<svg width="287" height="239" viewBox="0 0 287 239" fill="none" xmlns="http://www.w3.org/2000/svg">
<g clip-path="url(#clip0_184_381)">
<path d="M234.704 31.4699C235.594 29.9899 238.034 29.0299 236.824 27.1299C236.034 25.8999 234.734 24.9099 233.544 24.0899C233.444 24.0199 233.324 24.1099 233.324 24.2199L233.134 29.9899C233.104 30.7799 233.244 31.7999 233.044 32.5599C232.974 32.8099 233.344 32.4899 233.024 32.5799C231.554 32.9699 229.764 32.8599 228.254 32.9999L204.474 35.0799L173.454 37.7899C165.404 38.4899 157.344 39.1999 149.294 39.8999L145.954 40.1899C145.484 40.2299 144.654 40.4699 144.194 40.3399C143.844 40.2399 144.104 40.5199 144.074 40.2399C144.044 39.9899 144.424 39.2099 144.494 38.8799C144.574 38.4799 144.654 38.0799 144.724 37.6699C144.854 36.8299 144.944 35.9899 144.964 35.1399C145.034 32.3099 144.294 29.5199 142.374 27.3799C141.284 26.1699 139.914 25.2699 138.464 24.5599C138.364 24.5099 138.204 24.5999 138.254 24.7199C138.474 25.3399 139.364 25.8899 139.724 26.4499C141.094 28.5799 141.394 31.3499 141.504 33.8199C141.554 34.8199 141.544 35.8199 141.524 36.8199C141.514 37.6799 141.624 38.8399 141.304 39.6399C140.924 40.5899 140.564 40.6299 139.834 40.7399C138.694 40.8999 137.514 40.9299 136.364 41.0299C128.014 41.7599 119.664 42.5099 111.314 43.2599C110.634 43.3199 109.964 43.3799 109.284 43.4399C108.964 43.4699 108.384 43.6399 108.074 43.5499C107.724 43.4499 108.214 43.7199 108.144 43.5999C108.074 43.4899 108.124 42.9599 108.034 42.7799C107.494 41.6399 105.974 41.0899 104.814 40.9899V41.2799C106.864 41.2799 108.924 41.2399 110.974 41.1799C112.544 41.1299 114.114 41.0699 115.674 40.9499C116.384 40.8899 117.744 40.9699 118.374 40.5499C119.774 39.6299 115.944 39.5799 115.674 39.5899C111.084 39.6499 106.474 40.0099 101.884 40.2199C85.3235 40.9899 68.7635 41.8099 52.2035 42.6099C49.9135 42.7199 47.5235 43.0399 45.2335 42.8799C44.9735 42.8599 44.5735 42.8699 44.3235 42.7699C43.7835 42.5499 43.4335 41.7999 44.1335 41.6799C44.5435 41.6099 45.1435 41.8799 45.5235 42.0199C46.3135 42.3099 47.0735 42.7099 47.7935 43.1499C48.2335 43.4199 48.6735 43.6299 49.1435 43.8499C49.7035 44.1099 49.7435 43.9699 49.5335 44.2999C49.5035 44.3399 49.5035 44.4099 49.5335 44.4499C49.8135 44.8799 50.7235 45.0599 51.1635 45.1699C52.2035 45.4299 53.2635 45.4999 54.3335 45.4999C55.8135 45.4999 57.2935 45.4699 58.7735 45.4499C63.5435 45.3999 68.3135 45.3699 73.0835 45.4399C77.8535 45.5099 82.6335 45.2799 86.9735 46.8599C88.9635 47.5799 90.5335 48.6899 92.2435 49.8799C92.8635 50.3099 92.9935 50.2299 93.0635 49.4599C93.2235 47.6799 93.0135 45.8099 92.9235 44.0299C92.9035 43.6899 92.6535 42.6799 92.8235 42.3599C92.7935 42.4199 92.6935 42.4999 93.0035 42.3899C93.4135 42.2399 93.9035 42.2199 94.3335 42.1499C95.8035 41.8999 97.2935 41.7099 98.7835 41.6399C100.274 41.5699 102.294 41.4499 103.664 42.1899C104.474 42.6299 104.324 43.1399 104.344 43.9099C104.444 47.3099 104.534 50.7099 104.634 54.1099L104.784 59.4999L104.824 61.0399C104.824 61.1799 104.774 61.7899 104.894 61.5799C104.644 62.0299 102.464 62.6399 103.324 63.2899C103.384 63.3299 103.684 63.2699 103.694 63.2699C104.324 63.4499 104.684 63.5999 105.004 64.2299C105.204 64.6199 105.274 65.0599 105.464 65.4599C105.654 65.8599 105.764 65.9499 105.834 66.4599C106.284 69.8299 106.304 73.3099 106.424 76.7099C106.424 76.7899 106.484 76.8599 106.574 76.8599C107.254 76.8199 108.374 77.8999 108.824 78.2699C109.834 79.1099 110.784 80.1099 111.394 81.2799C112.194 82.8099 112.594 84.5899 113.324 86.1799C115.424 90.7599 118.434 95.0399 122.464 98.1099C129.604 103.55 136.014 110.04 142.074 116.64C144.534 119.32 147.194 122.07 149.064 125.21C150.804 128.13 151.264 131.69 151.574 135.01C152.044 140.14 152.044 145.32 152.114 150.47C152.194 156.01 152.364 161.54 152.274 167.08C152.104 177.49 151.444 187.89 150.594 198.26C149.964 205.95 149.454 213.78 148.064 221.38C147.094 226.66 143.894 230.4 139.304 232.98C136.844 234.37 134.574 235.37 131.794 235.81C124.224 237.02 116.444 237.29 108.794 237.63C101.304 237.96 93.7835 238.24 86.2835 238.07C81.9335 237.97 77.8135 237.11 73.9935 234.91C71.7835 233.63 69.7135 232.02 68.0435 230.08C66.3735 228.14 65.5035 225.56 65.0435 223.01C64.3235 219.06 64.2035 214.94 63.9535 210.95C63.4835 203.58 63.1135 196.21 62.7435 188.84C62.0535 174.77 61.2635 160.67 61.0535 146.57C60.9535 139.86 61.3135 133.12 61.5735 126.42C61.7335 122.32 61.9035 118.21 62.2035 114.12C62.3935 111.52 62.7335 109.35 63.6835 106.91C64.8335 103.96 66.8235 101.95 69.2235 99.9699C71.4535 98.1199 73.5735 96.1399 75.6635 94.1299C77.3535 92.4999 79.0535 90.8799 80.7135 89.2299C81.5735 88.3799 82.2635 87.4199 82.7735 86.3199C83.0535 85.7299 83.7035 84.5499 83.5835 83.8799C83.5135 83.4899 83.7935 83.7899 83.3735 83.6499C83.4035 83.6499 83.4735 83.7799 83.4935 83.7999C83.7335 83.9999 84.0935 84.0799 84.3835 84.1699C85.6935 84.5399 87.1135 84.6299 88.4635 84.6999C92.5635 84.8999 96.9335 84.5199 100.754 82.9099C101.644 82.5399 102.494 82.0899 103.294 81.5499C104.294 80.8599 105.184 79.5699 106.354 79.2499C106.754 79.1399 108.464 79.0199 107.384 79.9599C106.994 80.2999 106.184 80.3099 105.704 80.3599C104.704 80.4699 103.704 80.5199 102.694 80.5499C97.8235 80.7399 92.7935 80.7699 87.9635 80.0399C87.0835 79.9099 85.7635 79.8899 84.9635 79.4299C83.9235 78.8299 85.5635 77.9499 86.2535 77.7599C87.6935 77.3499 89.2135 77.8899 90.6335 78.1499C92.5935 78.5099 94.5935 78.6499 96.5835 78.6799C98.2235 78.6999 99.8735 78.6199 101.504 78.4399C102.414 78.3399 104.414 78.3999 105.084 77.6799C105.494 77.2399 105.274 76.9399 105.254 76.4099C105.204 74.9599 105.234 73.4899 105.094 72.0399C105.094 71.9699 105.054 71.9199 104.984 71.8999C103.764 71.4599 104.294 75.5699 104.294 76.0799C104.294 76.3999 104.434 76.9599 104.004 76.7099C104.084 76.7599 104.114 76.8399 104.044 76.5299C104.004 76.3499 104.034 76.1099 104.024 75.9299C104.004 75.0399 103.684 73.4399 104.024 72.5899C104.064 72.4899 103.964 72.4199 103.884 72.4099C103.674 72.3799 103.384 72.5199 103.184 72.5699C103.124 72.5899 103.074 72.6499 103.074 72.7099C103.074 73.5699 103.054 74.4299 103.054 75.2899C103.054 75.7699 103.104 76.2699 103.074 76.7499C103.034 77.2799 103.264 76.8199 103.004 76.9199C102.934 76.9499 102.444 77.1099 102.364 77.0799C102.444 77.1099 102.544 77.2799 102.474 77.0399C102.354 76.6199 102.474 75.9299 102.474 75.4999V72.9199C102.474 72.8499 102.404 72.7699 102.324 72.7699L101.434 72.8699C101.354 72.8699 101.284 72.9299 101.284 73.0199L101.314 75.4199C101.314 75.8899 101.414 76.4599 101.334 76.9299C101.254 77.3699 101.504 77.1099 100.894 77.2199C100.364 77.3199 100.524 77.5399 100.544 77.1099C100.564 76.6499 100.574 76.1899 100.594 75.7299L100.684 73.1799C100.684 73.1099 100.614 73.0299 100.534 73.0299L99.4935 73.1599C99.4135 73.1599 99.3535 73.2199 99.3435 73.3099L99.3135 75.5699C99.3135 76.0599 99.2835 76.5499 99.2935 77.0399C99.3035 77.4499 99.3935 77.6199 98.9935 77.4399C98.6935 77.3099 99.0935 77.6999 98.9135 77.4599C98.8535 77.3799 98.8935 77.0999 98.8935 77.0099C98.8935 76.5199 98.8535 76.0299 98.8335 75.5399L98.7435 73.1999C98.7435 73.1199 98.6835 73.0499 98.5935 73.0499L97.7535 73.0799C97.6735 73.0799 97.6135 73.1399 97.6035 73.2299C97.6035 74.0499 97.5835 74.8799 97.5735 75.6999C97.5735 76.1399 97.6935 76.8499 97.5535 77.2699C97.4435 77.6199 97.5135 77.7099 96.9035 77.5199C96.4635 77.3799 96.8435 77.6799 96.7735 77.5599C96.7435 77.5099 96.7735 77.1899 96.7735 77.1499C96.8135 76.6799 96.7735 76.1899 96.7735 75.7099V73.2199C96.7835 73.1399 96.7235 73.0699 96.6435 73.0699L95.5535 73.0999C95.4735 73.0999 95.4135 73.1699 95.4035 73.2499L95.3635 76.3499C95.3635 76.6299 95.3835 76.9199 95.3535 77.1999C95.3235 77.4499 95.2735 77.5099 95.4335 77.3999C95.3535 77.4599 94.6535 77.4599 94.5835 77.4099C94.4735 77.3399 94.6135 77.4499 94.5035 77.1999C94.3235 76.7699 94.5035 75.8399 94.5135 75.3699C94.5135 74.7899 94.6335 74.0999 94.5335 73.5299C94.4235 72.8499 94.1535 72.9299 93.3835 72.8499C93.3035 72.8499 93.2435 72.9199 93.2335 72.9999L93.1135 75.3499C93.0835 75.8699 93.0335 76.3999 93.0335 76.9299C93.0335 77.0199 93.0635 77.2699 93.0135 77.3399C92.9035 77.4899 93.3435 77.0899 92.8635 77.2499C92.3835 77.4099 92.5135 77.2799 92.4635 76.9999C92.3935 76.5499 92.4635 76.0499 92.4635 75.5899V72.9199C92.4635 72.9199 92.4335 72.8099 92.3935 72.7899C92.1335 72.6699 91.8135 72.6999 91.5335 72.6899C91.4535 72.6899 91.3935 72.7599 91.3835 72.8399L91.3435 75.3099C91.3435 75.7999 91.4035 76.3799 91.3135 76.8599C91.3035 76.9199 91.3535 77.1499 91.3135 77.1899C91.5535 76.9699 90.9635 77.0499 90.9035 77.0199C90.3935 76.7299 90.8435 77.2299 90.7435 77.0499C90.7135 76.9999 90.7435 76.6899 90.7435 76.6399C90.7835 76.1699 90.7635 75.6799 90.7635 75.2099L90.8035 72.7399C90.8035 72.6799 90.7535 72.6099 90.6935 72.5999L89.6735 72.4199C89.5835 72.3999 89.4935 72.4599 89.4935 72.5599V75.9199C89.4935 76.0999 89.5635 76.4999 89.4935 76.6799C89.4335 76.8299 89.6835 76.8899 89.3435 76.6399C89.0635 76.4299 89.2035 76.7199 89.1035 76.5499C89.0135 76.3899 89.0835 75.9699 89.0835 75.7899L89.0235 73.6599C89.0235 73.3399 88.8035 72.3699 88.9735 72.1099C88.9735 72.0999 91.3735 72.4899 91.7135 72.5299C92.9635 72.6699 94.2135 72.7799 95.4635 72.8499C97.9935 72.9899 100.794 73.1199 103.254 72.3599C103.864 72.1699 104.794 71.8499 105.094 71.2099C105.204 70.9599 105.164 70.6899 105.174 70.4199L105.264 66.5699C105.264 66.4799 105.164 66.3899 105.084 66.4299C104.974 66.4699 104.274 66.6699 104.274 66.7599C104.274 66.5699 103.984 66.5699 103.984 66.7599V70.4199C103.984 70.5299 104.034 70.7899 103.984 70.8799C103.864 71.0899 104.014 70.7299 103.874 70.9499C103.784 71.0799 103.374 70.9699 103.604 71.2199C103.564 71.1799 103.624 70.9499 103.614 70.8899C103.574 70.4299 103.644 69.9399 103.664 69.4699L103.744 67.1399C103.744 67.0399 103.644 66.9799 103.564 66.9999L102.664 67.2199C102.604 67.2399 102.554 67.2999 102.554 67.3599V69.4399C102.554 69.8599 102.554 70.2699 102.554 70.6899C102.554 70.7399 102.584 71.0899 102.554 71.1499C102.434 71.3399 102.744 70.9099 102.454 71.1299C102.414 71.1599 101.874 71.1099 102.094 71.2999C102.044 71.2599 102.104 71.0699 102.084 71.0099C101.954 70.6599 102.044 70.0699 102.034 69.6999L101.944 67.5099C101.944 67.4399 101.884 67.3499 101.794 67.3599L100.674 67.5099C100.594 67.5199 100.534 67.5699 100.524 67.6599L100.434 69.9199C100.414 70.3599 100.434 70.8099 100.384 71.2399C100.354 71.5399 100.454 71.6999 99.9835 71.5199C99.7235 71.4199 99.8735 71.8199 99.8435 71.2499C99.8235 70.8199 99.8435 70.3799 99.8435 69.9499V67.6599C99.8435 67.5799 99.7735 67.5099 99.6935 67.5099H98.2735C98.1935 67.5099 98.1235 67.5799 98.1235 67.6599V70.7299C98.1235 71.0099 98.0835 71.8499 98.1435 71.7899C98.0235 71.8999 97.2835 71.7699 97.5935 72.0399C97.5535 71.9999 97.5635 71.6799 97.5735 71.6099C97.6235 70.9899 97.5035 70.3099 97.4835 69.6899C97.4635 69.1699 97.5735 68.4399 97.4335 67.9499C97.2635 67.3399 97.0135 67.4399 96.2935 67.5899C96.2335 67.5999 96.1835 67.6699 96.1835 67.7299V71.4299C96.1835 71.5599 96.2335 71.7899 96.1835 71.9099C96.0735 72.1499 96.4335 71.8499 96.1235 71.8699C95.5635 71.8999 95.8135 71.8699 95.7335 71.5099C95.6335 71.0499 95.7535 70.4399 95.7735 69.9699C95.7935 69.3499 96.0635 68.2599 95.8335 67.6799C95.8135 67.6399 95.7835 67.5899 95.7335 67.5799C95.6035 67.5599 94.8135 67.5699 94.8335 67.7299C94.8135 67.5499 94.5435 67.5399 94.5435 67.7299C94.5235 68.5599 94.5135 69.3999 94.5035 70.2299C94.5035 70.7099 94.5435 71.2499 94.4835 71.7299C94.4235 72.1399 94.6835 71.9399 94.1335 71.8799C93.5835 71.8199 93.8435 72.0799 93.8035 71.6499C93.7635 71.2199 93.8235 70.7299 93.8235 70.2799L93.8635 67.7399C93.8635 67.6599 93.7935 67.5899 93.7135 67.5899H92.6735C92.5935 67.5899 92.5235 67.6599 92.5235 67.7399L92.5635 69.8299C92.5635 70.3399 92.5435 70.8699 92.5935 71.3699C92.5935 71.4699 92.6335 71.6799 92.5935 71.7599C92.4835 72.0199 92.8535 71.7099 92.5635 71.7299C91.9335 71.7699 92.1635 70.7299 92.1235 70.0699L91.9935 67.8099C91.9935 67.7399 91.9535 67.6899 91.8835 67.6699L91.1335 67.3699C91.0435 67.3299 90.9435 67.4199 90.9535 67.5099L91.0035 70.5799C91.0035 70.7399 91.1535 71.5999 91.0235 71.7399C91.2235 71.5099 90.4035 71.6099 90.6435 71.8099C90.5935 71.7699 90.6435 71.4699 90.6435 71.3999C90.4135 70.2299 90.6835 68.9199 90.5835 67.7299C90.5235 66.9799 90.3235 66.8999 89.5035 66.6999C89.4135 66.6799 89.3135 66.7399 89.3235 66.8399C89.3735 68.2699 89.6435 69.8699 89.4635 71.2899C89.4635 71.3399 89.5035 71.4899 89.4635 71.5199C89.7135 71.2499 89.3835 71.3899 89.2335 71.2899C88.7835 70.9899 89.0435 71.4999 88.9235 70.9299C88.7335 70.0099 88.8835 68.8499 88.8735 67.9099C88.8735 67.5199 88.7435 65.9199 89.0635 65.8899C89.1735 65.8799 89.7335 66.2799 89.8435 66.3299C91.3335 66.9899 93.0835 67.1399 94.6935 67.2199C97.4335 67.3599 100.344 67.2899 103.044 66.7599C103.514 66.6699 104.554 66.5399 104.814 66.0199C105.054 65.5399 104.294 64.6199 103.794 64.5199C103.294 64.4199 102.984 64.8699 102.624 65.0899C101.254 65.9499 99.2935 65.9299 97.7435 65.9499C95.8035 65.9799 93.7635 65.9299 91.8535 65.6099C91.1435 65.4899 89.3335 64.9099 90.7735 64.0699C91.3835 63.7099 92.3035 63.8599 92.9335 64.0699C93.0235 64.0999 93.1135 64.0199 93.1135 63.9299V62.3599C93.1135 62.2499 92.9935 62.1799 92.8935 62.2299C92.1635 62.6299 90.8435 61.9799 90.3035 61.5499C90.0535 61.3499 89.8435 60.8899 89.6035 60.7499C89.6535 60.7799 88.9435 60.4699 89.2935 60.7499C89.4635 60.8899 89.6335 60.9799 89.8335 61.0699C91.9735 62.0699 94.8835 61.9599 97.1635 61.9899C99.3035 62.0199 101.594 62.0299 103.634 61.2799C104.634 60.9099 104.993 60.4699 104.904 59.2899C104.904 59.1899 104.813 59.1299 104.724 59.1499C102.644 59.5299 100.564 60.0199 98.4335 60.0199C96.1935 60.0199 93.9435 59.8299 91.7135 59.6099C91.2135 59.5599 90.5535 59.6099 90.1035 59.3799C89.1235 58.8899 89.7435 58.7399 90.3135 58.4099C90.7835 58.1399 90.8035 58.2899 90.9235 57.6999C91.1535 56.5399 90.9135 55.1599 90.7835 53.9899C90.7835 53.9199 90.7435 53.8699 90.6735 53.8499C86.2835 52.5799 81.7535 51.8799 77.2535 51.0999C70.4635 49.9299 63.5935 48.9799 56.7335 48.3299C54.5835 48.1299 52.3835 48.2399 50.2735 47.6999C49.0235 47.3799 47.9135 46.8199 47.0435 45.8599C46.6335 45.4099 46.7835 45.1599 46.7135 44.8099C46.7135 44.8199 46.8035 44.7299 46.8135 44.6999C46.8235 44.6399 46.8135 44.5599 46.7435 44.5399C46.4235 44.3999 45.9235 44.4599 45.5835 44.4499C44.5235 44.4099 43.4535 44.3799 42.3835 44.3499C39.2635 44.2699 36.1435 44.1999 33.0335 44.1399C30.6935 44.0899 28.3635 44.0499 26.0235 44.0099C24.4635 43.9799 22.6535 44.1999 21.1535 43.8399C20.5435 43.6999 20.1935 43.4099 19.5835 43.3599C18.6435 43.2799 17.7035 43.2299 16.7735 43.1599L7.68351 42.5299L3.54351 42.2399C2.77351 42.1899 1.85351 42.2599 1.10351 42.0699C0.713508 41.9699 1.03351 42.1499 0.963508 42.0399C0.553508 41.4099 0.593508 39.8099 0.503508 39.1099C0.363508 37.9799 0.293508 36.8399 0.363508 35.6999C0.403508 35.0499 0.473508 34.3999 0.583508 33.7599C0.693508 33.1199 0.613508 33.2899 1.16351 33.2099C3.15351 32.9199 5.18351 32.8799 7.18351 32.6099C7.87351 32.5199 8.18351 32.5099 8.77351 32.8099C8.83351 32.8399 8.88351 32.9499 8.97351 32.9899C9.33351 33.1399 10.3035 32.8899 10.1635 33.3999C10.0535 33.7899 9.60351 33.6899 9.22351 33.7599C8.57351 33.8699 7.49351 34.4799 8.71351 34.8599C9.08351 34.9699 11.3535 34.6599 10.2035 35.2699C9.87351 35.4399 9.05351 35.3099 8.87351 35.7099C8.84351 35.7699 8.84351 35.8399 8.89351 35.8899C9.07351 36.0799 9.32351 36.0999 9.56351 36.1599C10.1135 36.2899 10.9635 36.3799 9.97351 36.6599C9.54351 36.7799 8.60351 36.5699 8.48351 37.2199C8.38351 37.7699 9.02351 37.8299 9.41351 37.8699C9.61351 37.8899 10.0235 37.7599 10.2135 37.8499C10.8335 38.1399 10.4335 38.2599 9.94351 38.3499C9.67351 38.3999 9.14351 38.4599 9.02351 38.7999C8.84351 39.3199 9.41351 39.5199 9.82351 39.5699C10.0635 39.5999 10.3735 39.4599 10.5935 39.5399C11.2235 39.7399 10.6535 39.8699 10.4035 40.0099C10.1135 40.1699 9.44351 40.0699 9.21351 40.3799C8.95351 40.7399 9.14351 41.1499 9.50351 41.3599C9.81351 41.5399 10.1635 41.3099 10.4535 41.4099C11.3935 41.7199 9.70351 41.8799 9.42351 41.9399C9.34351 41.9599 9.30351 42.0499 9.32351 42.1199C9.43351 42.7099 10.1535 42.5399 10.6035 42.4899C10.6735 42.4899 10.7535 42.4299 10.7535 42.3399C10.4335 39.3299 9.96351 36.2899 9.80351 33.2599C9.73351 31.9199 10.0135 32.0699 11.2635 31.9199L17.0935 31.2499C17.9835 31.1499 19.2335 31.2399 20.0535 30.8799C20.4835 30.6899 20.7235 30.2599 21.1735 30.0999C21.9435 29.8299 22.8435 29.7399 23.6435 29.5699C25.3035 29.2099 27.0735 28.9899 28.7035 28.4799C29.1135 28.3499 28.5335 28.4799 28.3635 28.5899C27.9135 28.8899 27.5135 29.5499 27.1835 29.9699C26.4935 30.8499 25.8735 31.7699 25.3235 32.7399C23.2935 36.2899 21.4935 42.1799 26.7235 43.7799C26.8335 43.8099 26.9235 43.7099 26.9035 43.5999C26.3035 41.1799 25.7935 38.7399 25.4035 36.2799C25.1535 34.7399 24.8535 33.0599 25.0135 31.4899C25.1435 30.2199 25.8635 30.2499 26.9535 29.9999C30.2735 29.2599 33.6135 28.5799 36.9435 27.8999C37.4535 27.7999 37.9735 27.7199 38.4735 27.5899C38.5335 27.5699 38.8235 27.4799 38.8935 27.4999C38.9935 27.5399 38.7435 27.3399 38.8835 27.6099C39.2435 28.3099 39.2735 29.4199 39.3835 30.1799C39.5235 31.1399 39.6035 32.1099 39.6735 33.0799C39.8435 35.3399 39.9435 37.6099 40.0235 39.8799C40.0535 40.7999 40.0835 41.7199 40.1035 42.6399C40.1035 42.8899 40.0635 43.1999 40.1135 43.4299C40.1335 43.4999 40.0835 43.6099 40.1135 43.6799C40.0635 43.5599 40.4635 44.5799 40.3935 43.8299C40.3935 43.7199 40.2335 43.6199 40.1435 43.7299L39.8135 44.1199C39.6935 44.2599 39.9035 44.4699 40.0235 44.3299C41.4535 42.6099 40.9835 39.6799 40.8635 37.6099C40.6835 34.5799 40.3335 31.5499 39.9235 28.5399C39.8735 28.1799 39.7835 27.7999 39.7735 27.4399C39.7735 27.3899 39.7135 27.2399 39.7435 27.1999C39.6035 27.4799 40.0535 27.2999 40.2935 27.2699C42.2735 26.9999 44.2935 26.8299 46.2935 26.7199C47.4135 26.6599 48.5435 26.5199 49.6535 26.4799C50.1035 26.4599 50.4935 26.4999 50.9035 26.6599C51.2535 26.7899 53.2035 27.9299 51.3835 28.4399C50.9235 28.5699 49.8135 27.8799 49.4235 27.6699C47.1535 26.4299 46.2835 24.3499 46.4435 21.8499C46.7235 17.6299 47.0435 13.4299 47.2535 9.2099C47.3535 7.1299 48.1635 5.1799 48.7935 3.1599L49.4035 1.19991C49.4535 1.02991 49.7135 0.239905 49.6335 0.289905C49.6935 0.249905 50.9935 0.399905 51.3135 0.429905C54.9235 0.749905 58.4835 1.6699 61.8535 2.9899C64.4335 3.9999 66.9035 5.26991 69.2135 6.77991C69.7635 7.13991 73.6735 9.9699 73.6335 10.0299C73.2335 10.5899 70.1835 9.7199 69.7235 9.6299C66.7235 9.0399 63.7535 8.27991 60.8535 7.31991C58.2135 6.43991 55.5735 5.43991 53.1335 4.09991C52.3135 3.6499 51.1835 3.1299 50.5835 2.4099C49.3435 0.909905 51.3735 1.07991 52.2735 1.18991C55.9935 1.6399 59.7235 2.3999 63.3235 3.4499C65.1835 3.9899 67.0735 4.60991 68.7235 5.6199C70.7335 6.84991 72.6635 8.2599 74.5635 9.6399C75.2335 10.1299 75.0435 10.2499 74.7535 11.0499C74.4235 11.9699 74.1035 13.0999 73.5935 13.9399C73.2735 14.4599 72.7835 14.9199 72.3935 15.3899C72.2035 15.6199 72.0135 15.9599 71.7735 16.1399C71.3735 16.4399 71.6735 16.3699 71.1335 16.2099C68.5335 15.4499 66.1135 14.3199 63.4435 13.7299C61.5135 13.3099 59.5435 13.0399 57.5735 12.9399C56.1535 12.8699 54.7335 12.8999 53.3235 12.9099C52.2935 12.9099 51.1135 12.9899 50.1335 12.6099C49.3035 12.2799 48.2235 10.9599 48.4635 9.9699C48.5835 9.4599 48.8035 9.5799 49.2435 9.3599C49.5235 9.2199 49.7735 8.8799 50.0935 8.9599C50.8235 9.1399 51.7135 10.8099 52.1135 11.3599C53.5735 13.3699 55.0935 15.3599 57.1935 16.7499C60.1235 18.6899 63.6735 19.0899 67.0935 18.6399C68.1235 18.5099 69.1635 18.3199 70.1635 18.0499C69.9235 18.1099 70.8835 17.8299 70.8935 17.8299C70.6635 17.7599 70.3135 18.3199 70.0835 18.6699C69.4035 19.7299 68.7235 20.7899 68.0535 21.8499C67.6435 22.4999 66.8135 23.3999 66.6035 24.1499C66.4135 24.8299 66.8135 25.5899 67.0135 26.2999C67.0335 26.3599 67.0935 26.4099 67.1535 26.4099C74.3335 25.8799 81.5235 25.3499 88.7035 24.8099C88.8035 24.8099 88.8635 24.7199 88.8435 24.6299L88.4935 22.3499C88.4835 22.2799 88.4135 22.2499 88.3535 22.2399C87.1235 22.0799 85.8835 21.8699 84.6635 21.6399C83.6135 21.4399 82.7835 21.0299 81.8335 20.5599L81.6835 20.8099C83.8335 21.7699 86.7335 21.4499 88.9635 21.1199C91.1935 20.7899 93.2035 20.2099 95.2035 19.3699C96.9335 18.6399 98.8535 17.7999 100.004 16.2499C100.734 15.2699 101.364 13.7099 100.824 12.4999C100.694 12.1999 100.144 11.4199 99.7035 11.5699C99.1935 11.7399 99.7835 12.4199 99.8835 12.7399C100.514 14.6799 98.8435 15.8999 97.3335 16.7499C93.5335 18.8799 89.1635 19.9499 84.8135 19.9999C83.3435 20.0199 81.1035 20.1099 80.0835 18.8199C78.7735 17.1699 80.0235 15.3099 81.3235 14.0799C84.6435 10.9399 89.1435 9.1799 93.6735 8.9299C96.9335 8.7499 100.864 9.0499 101.684 12.9699C102.504 16.8899 97.9735 20.1699 94.8535 21.4699C94.7835 21.4999 94.7235 21.5699 94.7535 21.6499L95.7535 24.4399C95.7735 24.4999 95.8235 24.5499 95.8935 24.5499C108.964 24.0499 122.034 23.5499 135.104 23.0499C143.074 22.7499 151.074 22.9099 159.054 22.8899C175.964 22.8399 192.874 22.7999 209.784 22.7499L228.084 22.6999C232.334 22.6899 236.634 22.8399 240.834 22.1799C244.224 21.6499 247.544 20.6999 250.784 19.5899C253.544 18.6499 257.504 17.7099 259.154 15.0099C260.483 12.8299 258.824 10.8799 256.624 10.4299C253.794 9.84991 250.484 10.7899 247.944 12.0099C246.214 12.8399 243.554 14.6699 244.934 16.8999C246.184 18.8999 249.424 19.3899 251.524 19.6699C259.254 20.6899 267.384 20.2199 275.064 18.9899C278.993 18.3599 282.874 17.4599 286.684 16.2999C286.863 16.2499 286.784 15.9599 286.604 16.0199C276.374 19.1399 265.564 20.3399 254.894 19.6699C252.534 19.5199 250.104 19.3499 247.854 18.5399C246.884 18.1899 245.724 17.6699 245.164 16.7499C244.284 15.2899 245.384 13.9399 246.564 13.1099C248.554 11.7199 251.164 10.9399 253.564 10.6599C254.664 10.5299 255.833 10.4999 256.904 10.7999C258.763 11.3199 260.004 13.0199 258.874 14.8599C257.423 17.2299 254.084 18.1199 251.644 18.9699C249.444 19.7399 247.224 20.4499 244.964 21.0199C241.294 21.9499 237.534 22.4399 233.744 22.3399C232.314 22.2999 230.834 22.3999 229.394 22.3999C221.534 22.4199 213.664 22.4399 205.804 22.4699L172.254 22.5599L144.754 22.6399C141.374 22.6399 138.004 22.6399 134.624 22.7799C124.504 23.1699 114.374 23.5499 104.254 23.9399L98.4335 24.1599C97.8435 24.1799 96.4435 24.5099 95.8935 24.2599C96.1135 24.3599 95.8635 23.9499 95.7835 23.7199C95.5635 23.0999 95.2735 22.4699 95.1135 21.8399C95.0235 21.4799 94.8235 21.8699 95.1735 21.6499C95.6235 21.3599 96.1535 21.1599 96.6135 20.8799C99.1535 19.3599 102.514 16.5499 102.024 13.2399C101.024 6.5299 91.1135 8.35991 86.9335 10.1399C84.5435 11.1599 76.6035 15.4499 79.9835 19.1599C80.9835 20.2499 82.8835 20.2799 84.2535 20.2999C88.3935 20.3599 92.6235 19.4499 96.3335 17.6199C97.6635 16.9699 98.7835 16.2799 99.7735 15.1799C100.604 14.2599 100.404 13.4699 100.044 12.3399C99.9535 12.0699 99.7435 11.9599 99.9335 11.9499C100.254 11.9399 100.544 12.5799 100.624 12.8099C101.044 14.0599 100.234 15.6499 99.3935 16.5399C97.5235 18.5399 94.3335 19.5699 91.7535 20.2599C88.9135 21.0199 84.6835 21.8599 81.8235 20.5699C81.6535 20.4899 81.5035 20.7399 81.6735 20.8199C82.2235 21.0899 82.7735 21.4199 83.3435 21.6299C84.2835 21.9899 85.3735 22.0699 86.3635 22.2399C86.7235 22.2999 88.0235 22.2699 88.3135 22.5299C88.1035 22.3399 88.2735 22.8199 88.2835 22.9399C88.3035 23.3199 88.3635 23.9299 88.4935 24.2899C88.6635 24.7499 88.7235 24.4699 88.5235 24.5299C88.2535 24.6099 87.8935 24.5799 87.6135 24.5999L84.2135 24.8499L74.3035 25.5799L70.0035 25.8999C69.1835 25.9599 68.2735 26.1399 67.4535 26.0899C66.9935 26.0599 67.3535 26.2799 67.1935 25.8799C66.9935 25.3899 66.7735 24.6199 66.8535 24.2999C67.0735 23.4399 68.0535 22.3899 68.5235 21.6499C69.3635 20.3299 70.2035 19.0099 71.0635 17.6999C71.1635 17.5499 70.9535 17.4199 70.8335 17.5199C70.1435 18.0999 68.3435 18.1699 67.4735 18.2999C66.1335 18.4999 64.7635 18.5799 63.4135 18.4899C61.3835 18.3499 59.4035 17.7799 57.6635 16.6999C55.0435 15.0799 53.4535 12.5499 51.6035 10.1699C51.2535 9.72991 50.5535 8.56991 49.9135 8.59991C49.7035 8.59991 48.6635 9.1299 48.5435 9.2299C48.4435 9.3099 48.3835 9.2499 48.3035 9.3799C48.0535 9.7199 48.2135 10.3499 48.3035 10.7199C49.0435 13.6399 52.2035 13.2099 54.5635 13.1799C60.5035 13.1199 66.0935 14.3599 71.5635 16.6799C71.6235 16.6999 71.6935 16.7099 71.7435 16.6599C72.4235 15.8399 73.2735 15.0399 73.8335 14.1399C74.5635 12.9899 75.1135 11.3199 75.4135 9.9899C75.4235 9.9399 75.4135 9.8799 75.3735 9.84991C74.5835 9.15991 73.6535 8.5899 72.7935 7.9899C71.2735 6.9199 69.7435 5.74991 68.0835 4.89991C65.3235 3.47991 62.1835 2.7399 59.1735 2.0899C56.7635 1.5599 54.2935 1.0699 51.8335 0.829905C51.2835 0.779905 49.8635 0.569905 49.7035 1.3999C49.5435 2.2299 50.8835 3.0099 51.4235 3.3799C54.6535 5.57991 58.5935 6.9299 62.3035 8.05991C64.6635 8.77991 67.0535 9.3799 69.4735 9.8599C70.6335 10.0899 71.8735 10.3899 73.0735 10.3799C73.5835 10.3799 74.0835 10.3499 73.8135 9.8199C73.7235 9.6399 73.2935 9.4099 73.1335 9.2799C72.2635 8.5499 71.3535 7.8699 70.4235 7.2199C68.6135 5.9599 66.7035 4.84991 64.7135 3.8999C60.1835 1.6899 54.7235 -0.110095 49.6035 -9.50661e-05C49.5335 -9.50661e-05 49.4835 0.0399049 49.4635 0.109905C48.7335 2.4499 48.0135 4.78991 47.2835 7.1199C46.6235 9.2399 46.8735 11.7299 46.7435 13.9299C46.6135 16.1299 46.4735 18.4499 46.2835 20.7099C46.1335 22.4699 45.9735 24.2199 46.9735 25.7899C47.8835 27.2099 49.6635 28.4099 51.3435 28.6799C52.6735 28.8899 52.8135 27.6699 51.9535 26.8799C51.2635 26.2399 50.3935 26.0999 49.4935 26.1599C48.2435 26.2499 46.9935 26.3199 45.7535 26.4299C43.6935 26.5999 41.6835 26.7599 39.6335 27.0299C39.5635 27.0299 39.4835 27.0899 39.4835 27.1799C39.6535 29.6499 40.1435 32.1199 40.3735 34.5899C40.5435 36.4099 40.6835 38.2399 40.6935 40.0699C40.6935 41.4499 40.7835 42.9699 39.8535 44.0799L40.0635 44.2899C40.4035 43.8799 40.1935 44.0599 40.1535 43.8699C40.1835 43.9999 40.4135 44.0099 40.4335 43.8699C40.6935 42.3199 40.3735 40.4699 40.3135 38.9099C40.2035 36.1599 40.1035 33.3999 39.7735 30.6699C39.7135 30.1599 39.6335 29.6499 39.5435 29.1399C39.4735 28.7299 39.4535 27.7299 39.1635 27.3899C39.0235 27.2299 39.0835 27.2299 38.8835 27.1699C38.5035 27.0499 37.5835 27.4399 37.2035 27.5099C36.0835 27.7399 34.9535 27.9699 33.8335 28.1999C31.4935 28.6799 29.1435 29.1599 26.8035 29.6899C25.6935 29.9399 24.9535 29.9399 24.7635 31.1899C24.4635 33.1999 24.9835 35.4499 25.3335 37.4299C25.6835 39.4099 26.2235 41.2799 26.5435 43.2199C26.6335 43.7699 26.7135 43.4199 26.5035 43.3499C25.6435 43.0699 24.8535 42.5699 24.3235 41.8399C23.3435 40.4999 23.4335 38.7099 23.8035 37.1699C24.5835 33.8799 26.6135 30.7199 28.9835 28.3499C29.0935 28.2399 28.9835 28.0799 28.8435 28.1099C27.0935 28.4899 25.3435 28.8599 23.5935 29.2399C22.7735 29.4199 21.8035 29.4899 21.0235 29.7899C20.6135 29.9499 20.2135 30.4799 19.9535 30.5799C19.4735 30.7699 18.7035 30.7199 18.1935 30.7799L14.8135 31.1699C13.1835 31.3599 11.5535 31.5399 9.92351 31.7299C9.85351 31.7299 9.80351 31.7699 9.78351 31.8399C9.12351 33.6599 9.83351 36.0199 10.0335 37.8899C10.1735 39.1799 10.3435 40.4799 10.4435 41.7799C10.4735 42.2199 10.5735 42.4399 9.95351 42.1499C9.53351 41.9599 9.81351 42.1399 10.1035 42.0699C10.3135 42.0199 10.5335 42.0199 10.7435 41.9499C10.9135 41.8999 11.3035 41.8299 11.4035 41.6199C11.5335 41.3599 11.4435 41.2499 11.2235 41.0799C11.1135 40.9999 10.8835 40.9999 10.7535 40.9899C10.6035 40.9799 10.4635 41.1199 10.3035 41.0699C9.93351 41.1899 9.75351 40.9699 9.77351 40.3999L10.0535 40.3299C10.3235 40.1599 12.3235 39.9399 11.3235 39.2499C11.1035 39.0999 8.77351 39.2599 9.99351 38.5999C10.3335 38.4099 11.0735 38.6299 11.1435 38.0399C11.1735 37.7899 11.1135 37.7299 10.9235 37.5799C10.6835 37.3999 8.46351 37.6799 9.62351 36.9199C9.87351 36.7599 11.6635 36.8399 10.9035 36.0899C10.7435 35.9399 10.3735 35.9399 10.1735 35.8999C10.0435 35.8699 9.81351 35.8699 9.68351 35.8199C9.31351 35.6699 9.37351 35.8399 9.57351 35.6699C9.98351 35.2999 10.7135 35.5499 11.1135 35.0199C11.1435 34.9799 11.1335 34.9199 11.1135 34.8699C10.9135 34.4599 10.5735 34.4599 10.1535 34.4599C9.89351 34.4599 8.53351 34.7699 8.58351 34.1799C8.59351 34.0299 9.72351 33.9499 9.80351 33.9399C10.2635 33.8599 11.3035 33.5799 10.6135 32.9599C10.3135 32.6899 9.68351 32.8599 9.34351 32.6399C9.19351 32.5399 9.08351 32.2599 8.99351 32.1999C8.29351 31.8199 7.12351 32.3099 6.36351 32.4099C4.44351 32.6499 2.52351 32.7899 0.603508 32.9399C0.543508 32.9399 0.473508 32.9799 0.463508 33.0499C-0.146492 36.1199 0.173508 39.1599 0.763508 42.2099C0.773508 42.2799 0.843508 42.3099 0.903508 42.3199C4.44351 42.5699 7.98351 42.8099 11.5235 43.0599L18.1435 43.5199C18.7235 43.5599 19.3335 43.5399 19.9035 43.6399C20.3635 43.7199 20.7335 43.9999 21.1935 44.0999C22.5335 44.3999 24.1635 44.2199 25.5435 44.2499C26.8335 44.2799 28.1335 44.2999 29.4235 44.3199C34.1735 44.4099 38.9135 44.4899 43.6635 44.6299C44.4135 44.6499 45.1535 44.6699 45.9035 44.7099C46.0935 44.7099 46.3235 44.7699 46.5035 44.7399C46.8135 44.6799 46.5235 44.4599 46.4335 44.6199C46.1835 45.0899 46.2835 45.2599 46.6535 45.7399C47.6335 47.0299 49.1135 47.6999 50.6635 48.0399C52.3735 48.4099 54.1135 48.3699 55.8435 48.5099C57.8235 48.6599 59.8035 48.9199 61.7735 49.1699C65.2835 49.6099 68.8035 49.9899 72.2935 50.5299C77.6235 51.3599 82.9535 52.2699 88.2335 53.3899C88.9135 53.5299 89.7935 53.6599 90.3735 54.0099C90.6335 54.1599 90.5735 54.0099 90.6135 54.5599C90.6635 55.1399 90.7035 55.7299 90.7235 56.3199C90.7335 56.6899 90.8735 57.5799 90.6435 57.9099C90.4435 58.1999 89.7435 58.2099 89.4735 58.5799C89.2835 58.8399 89.2135 59.0199 89.4335 59.3099C89.9235 59.9599 91.6235 59.8599 92.3535 59.9299C93.9735 60.0799 95.6035 60.2099 97.2335 60.2699C98.6735 60.3199 100.054 60.2699 101.474 60.0199C102.394 59.8599 103.344 59.7399 104.254 59.5199C104.394 59.4899 104.854 59.4699 104.744 59.3699C104.614 59.2499 104.704 59.7399 104.674 59.8499C104.174 61.4099 101.844 61.4899 100.424 61.5899C97.2535 61.8299 93.4335 61.9599 90.3735 60.9199C90.1135 60.8299 89.7235 60.7399 89.5335 60.5099C89.4135 60.3699 89.2435 60.5499 89.3035 60.6899C89.5835 61.3399 90.1735 61.8699 90.8035 62.1699C91.2735 62.3899 91.8535 62.5699 92.3735 62.5699C92.5335 62.5699 92.6835 62.5399 92.8335 62.5399C93.2335 62.5399 92.8835 62.4299 92.8635 62.3799C92.9735 62.6499 92.8635 63.1899 92.8635 63.4899C92.8635 63.7899 92.7635 63.8299 93.0035 63.7399C92.9135 63.7699 92.4835 63.6099 92.3935 63.5999C91.6335 63.4799 90.7135 63.5199 90.2135 64.1999C89.0735 65.7399 92.2535 65.9299 93.0635 66.0099C95.6835 66.2499 98.4835 66.4599 101.094 65.9299C101.904 65.7699 102.444 65.4499 103.134 65.0699C103.294 64.9799 103.524 64.7599 103.804 64.8099C104.034 64.8599 104.724 65.5599 104.584 65.8799C104.444 66.1999 103.704 66.2999 103.434 66.3699C102.024 66.7099 100.524 66.7799 99.0835 66.8599C96.3135 67.0099 93.2835 67.1299 90.6035 66.2499C90.1735 66.1099 89.2935 65.3899 88.8435 65.5899C88.3635 65.8099 88.6335 67.6299 88.6435 68.0299C88.6635 69.1099 88.6835 70.1999 88.7035 71.2799C88.7035 71.3399 88.7435 71.3999 88.8135 71.4199L89.6335 71.6399C89.7235 71.6599 89.8235 71.5899 89.8135 71.4999L89.7435 69.1499L89.6935 67.4799C89.6835 67.1199 89.7935 66.8499 89.5635 66.9599C90.0235 66.7599 90.2935 67.3899 90.3635 67.6899C90.4635 68.1399 90.3835 68.7099 90.3835 69.1699C90.3935 70.0499 90.4135 70.9199 90.4235 71.7999C90.4235 71.8699 90.4935 71.9499 90.5735 71.9499L91.2435 71.8799C91.3235 71.8799 91.3935 71.8199 91.3935 71.7299L91.3535 69.4599L91.3335 68.0899C91.3335 67.9599 91.2835 67.7499 91.3335 67.6199C91.4235 67.3499 91.0635 67.6999 91.3135 67.6799C92.0735 67.6299 91.8335 68.6599 91.8735 69.3299L92.0135 71.7299C92.0135 71.7899 92.0535 71.8599 92.1235 71.8699L92.7935 72.0199C92.8835 72.0399 92.9835 71.9799 92.9735 71.8799L92.9335 69.5099C92.9335 69.0499 92.8535 68.5299 92.9035 68.0699C92.9035 68.0299 92.8635 67.7699 92.9035 67.7299C92.6735 67.9599 93.2835 67.8199 93.4035 67.8499C93.8435 67.9499 93.6035 67.5299 93.6435 68.1299C93.6835 68.5899 93.6235 69.0899 93.6235 69.5499L93.5835 71.9499C93.5835 72.0299 93.6535 72.0899 93.7335 72.0999L94.7035 72.1699C94.7835 72.1699 94.8435 72.0999 94.8535 72.0199C94.8735 70.5799 94.8935 69.1299 94.9235 67.6899H94.6335C94.6435 67.8099 94.7435 67.8599 94.8435 67.8999C95.0635 67.9899 95.5235 67.6699 95.6735 67.7999C95.7135 67.8299 95.6235 68.2599 95.6335 68.3099C95.8235 69.3999 95.5535 70.7599 95.5235 71.8699C95.5235 71.9299 95.5735 71.9999 95.6335 72.0099L96.3835 72.1599C96.4735 72.1799 96.5635 72.1199 96.5635 72.0199V69.7099C96.5635 69.2099 96.5835 68.7099 96.5635 68.2099C96.5435 67.7099 96.4835 67.8599 96.7235 67.7799C97.3635 67.5499 97.1335 67.7499 97.2235 68.1499C97.3335 68.5999 97.2535 69.1899 97.2735 69.6499C97.3035 70.4399 97.3435 71.2299 97.3935 72.0199C97.3935 72.1199 97.4835 72.1799 97.5735 72.1599L98.3935 72.0099C98.4535 71.9999 98.5035 71.9299 98.5035 71.8699V69.3299C98.5035 68.8799 98.4635 68.4099 98.5035 67.9599C98.5035 67.9099 98.4635 67.6899 98.5035 67.6399C98.3235 67.8899 98.7535 67.7399 98.9335 67.7599C99.1135 67.7799 99.4635 67.6799 99.6335 67.7599C99.8235 67.8599 99.5035 67.4599 99.6335 67.8199C99.7435 68.1399 99.6335 68.7499 99.6335 69.0899V71.6499C99.6335 71.7199 99.7035 71.7999 99.7835 71.7999L100.604 71.7299C100.684 71.7299 100.744 71.6699 100.754 71.5799L100.834 69.4599C100.854 68.9899 100.804 68.4599 100.894 67.9999C100.984 67.5099 100.704 67.8199 101.184 67.7099C101.314 67.6799 101.664 67.5699 101.794 67.6299C101.794 67.6299 101.624 67.3899 101.744 67.6999C101.864 68.0299 101.784 68.5999 101.794 68.9499L101.884 71.2799C101.884 71.3499 101.944 71.4299 102.034 71.4299L102.784 71.3599C102.864 71.3599 102.934 71.2999 102.934 71.2099V68.9899C102.934 68.5899 102.854 68.0899 102.934 67.6899C103.014 67.2899 102.834 67.3599 103.404 67.3199C103.614 67.3099 103.614 67.0099 103.514 67.5499C103.434 67.9699 103.484 68.4499 103.464 68.8699L103.384 71.1999C103.384 71.2899 103.484 71.3699 103.564 71.3399L104.234 71.1199C104.294 71.0999 104.344 71.0499 104.344 70.9799V66.7199C104.344 66.5299 104.054 66.5299 104.054 66.7199C104.054 67.1299 105.294 66.9299 105.054 66.5899C105.204 66.7999 105.024 67.6899 105.024 67.9399L104.984 69.8299C104.964 70.5699 105.134 70.9499 104.584 71.4199C103.584 72.2899 101.804 72.4099 100.574 72.5199C96.7135 72.8499 92.7735 72.3799 88.9535 71.8599C88.8635 71.8499 88.7635 71.8999 88.7735 71.9999L88.9135 76.6499C88.9135 76.7199 88.9535 76.7699 89.0235 76.7899L89.7035 76.9899C89.7935 77.0199 89.8835 76.9399 89.8835 76.8499V74.2699C89.8835 73.8099 89.8435 73.3399 89.8835 72.8799C89.8835 72.8299 89.8435 72.5999 89.8835 72.5599C89.6535 72.8399 90.1235 72.6899 90.3335 72.7899C90.6835 72.9599 90.6435 72.5799 90.6035 73.2099C90.5735 73.6799 90.5835 74.1699 90.5835 74.6399L90.5435 77.1099C90.5435 77.1899 90.6135 77.2499 90.6935 77.2599L91.5535 77.3399C91.6335 77.3399 91.6935 77.2699 91.7035 77.1899L91.7435 74.8599C91.7435 74.3599 91.7835 73.8499 91.7735 73.3499C91.7735 73.3099 91.7435 72.9599 91.7735 72.9099C91.8035 72.8699 91.5635 72.9199 91.9035 72.9699C92.4035 73.0299 92.2035 72.9399 92.2735 73.4599C92.3335 73.9499 92.2735 74.4899 92.2735 74.9899V77.3199C92.2735 77.3999 92.3435 77.4599 92.4235 77.4699L93.2635 77.5499C93.3435 77.5499 93.4035 77.4799 93.4135 77.3999L93.5235 75.1899L93.6035 73.6699C93.6035 73.5799 93.5835 73.2499 93.6335 73.1699C93.7935 72.8799 93.5135 73.1699 93.5735 73.1299C94.1235 72.8599 94.2735 73.2799 94.3535 73.5899C94.4635 73.9999 94.3435 74.6399 94.3335 75.0599C94.3335 75.8699 94.3235 76.6899 94.3135 77.4999C94.3135 77.5699 94.3635 77.6199 94.4235 77.6399C94.7635 77.7799 95.2435 77.6899 95.6035 77.6699C95.6835 77.6699 95.7435 77.6099 95.7535 77.5199L95.7835 74.9499C95.7835 74.4999 95.7335 74.0099 95.8035 73.5599C95.8035 73.5099 95.7735 73.2899 95.8035 73.2399C95.6135 73.4699 96.1935 73.3399 96.3335 73.3499C96.7035 73.3499 96.6435 73.0899 96.6035 73.6899C96.5635 74.1599 96.6035 74.6599 96.6035 75.1299V77.6199C96.5935 77.6999 96.6535 77.7599 96.7335 77.7699C97.0735 77.7899 97.5135 77.8799 97.8435 77.7699C97.9035 77.7499 97.9535 77.6999 97.9535 77.6299C97.9535 76.7899 97.9735 75.9499 97.9835 75.1099C97.9835 74.6199 97.9235 74.0499 98.0035 73.5599C98.0535 73.2599 97.8735 73.1399 98.4035 73.3399C98.8835 73.5199 98.4635 73.1299 98.5535 73.2699C98.5835 73.3199 98.5735 73.6399 98.5735 73.6799C98.5735 74.1599 98.6135 74.6399 98.6335 75.1099L98.7335 77.5799C98.7335 77.6499 98.7935 77.7299 98.8835 77.7299L99.5435 77.6799C99.6235 77.6799 99.6835 77.6199 99.6935 77.5299L99.7235 75.1299C99.7235 74.6499 99.6735 74.1099 99.7435 73.6199C99.8035 73.1699 99.5335 73.4499 100.124 73.3599C100.674 73.2699 100.454 73.0799 100.484 73.4899C100.524 73.9399 100.454 74.4199 100.434 74.8699L100.344 77.4199C100.344 77.5199 100.444 77.5699 100.524 77.5599L101.614 77.3799C101.674 77.3699 101.724 77.2999 101.724 77.2399L101.694 74.9799C101.694 74.4899 101.714 73.9999 101.674 73.5099C101.634 72.9499 101.564 73.1299 101.964 73.0899C102.464 73.0399 102.194 72.7799 102.264 73.3299C102.324 73.7899 102.264 74.3099 102.264 74.7699V77.2099C102.264 77.3099 102.354 77.3699 102.444 77.3499C102.744 77.2699 103.054 77.1799 103.364 77.1199C103.464 77.0999 103.484 76.9799 103.454 76.9099C103.184 76.3199 103.434 75.0599 103.434 74.4299C103.434 73.9099 103.174 72.4699 103.814 72.7099C103.924 72.7499 103.644 72.4099 103.794 72.6399C103.834 72.7099 103.784 73.0099 103.774 73.0799C103.754 73.5799 103.774 74.0799 103.774 74.5799C103.784 75.3399 103.804 76.0999 103.824 76.8599C103.824 76.9599 103.914 77.0099 104.004 76.9999L104.534 76.9199C104.594 76.9199 104.644 76.8399 104.644 76.7799V73.4099C104.644 73.1399 104.564 72.4599 104.644 72.2799C104.904 71.6899 104.884 72.6499 104.894 72.8799C104.944 74.1499 105.164 75.5499 105.024 76.8099C105.024 76.8699 105.104 77.1499 105.094 77.1799C104.694 78.2099 101.334 78.1699 100.504 78.2399C97.1235 78.5299 93.5835 78.4499 90.2535 77.7599C89.1035 77.5199 87.9135 77.2199 86.7235 77.3799C86.0035 77.4799 84.2635 78.0899 84.3235 79.0799C84.3435 79.4399 84.5035 79.4999 84.8135 79.6599C86.0435 80.2799 87.7935 80.3199 89.1335 80.4799C92.9135 80.9299 96.7735 80.9499 100.574 80.8899C102.304 80.8599 104.034 80.8199 105.754 80.6399C106.374 80.5699 108.134 80.4399 108.224 79.5599C108.294 78.8599 107.114 78.8199 106.684 78.8799C105.114 79.0899 103.984 80.8299 102.684 81.6299C99.2935 83.7199 95.0735 84.3399 91.1635 84.4399C89.5435 84.4799 87.9035 84.4299 86.2935 84.2199C85.9535 84.1799 83.7635 84.0099 83.6935 83.5099C83.6735 83.3699 83.4335 83.3699 83.4135 83.5099C82.8535 87.6399 79.2335 90.3399 76.4335 93.0599C74.5535 94.8899 72.6535 96.6899 70.6835 98.4199C68.7135 100.15 66.6735 101.54 65.1835 103.62C61.7735 108.4 61.9235 114.3 61.6435 119.9C61.0535 131.76 60.6635 143.59 61.0835 155.45C61.5935 169.92 62.2635 184.39 63.0435 198.86C63.3435 204.56 63.6535 210.26 64.0735 215.95C64.3935 220.17 64.5435 224.86 66.6735 228.6C68.8035 232.34 72.8935 234.96 76.6435 236.54C79.7635 237.86 83.0035 238.31 86.3535 238.38C93.0835 238.53 99.8335 238.3 106.554 238.03C113.944 237.74 121.374 237.38 128.724 236.53C130.784 236.29 132.954 236.11 134.934 235.46C137.944 234.48 141.124 232.57 143.484 230.47C148.754 225.78 148.954 218.48 149.664 211.95C150.644 202.99 151.354 193.99 151.894 185C152.454 175.76 152.734 166.53 152.574 157.28C152.474 151.78 152.474 146.28 152.274 140.78C152.144 137.16 151.984 133.48 151.194 129.93C149.844 123.84 145.034 119.28 140.904 114.89C135.454 109.09 129.743 103.22 123.384 98.3899C119.274 95.2699 116.144 91.2699 113.914 86.6199C113.214 85.1699 112.674 83.6799 112.144 82.1599C111.494 80.3099 110.134 78.8299 108.594 77.6599C108.084 77.2699 107.554 76.9299 106.984 76.6499C106.584 76.4499 106.854 76.8799 106.794 76.4499C106.614 75.2399 106.694 73.9299 106.634 72.7099C106.554 71.0899 106.474 69.4699 106.344 67.8599C106.284 67.1099 106.304 66.2399 106.004 65.5499C105.704 64.8599 105.304 63.5299 104.554 63.1299C104.084 62.8799 103.334 63.2899 103.774 62.7599C104.094 62.3799 104.724 62.0899 105.154 61.8399C105.194 61.8099 105.224 61.7699 105.224 61.7099C105.104 57.5499 104.994 53.3899 104.874 49.2399C104.824 47.3299 104.694 45.3999 104.714 43.4799C104.714 42.5099 104.274 41.9699 103.004 41.6499C99.7535 40.8299 95.9635 41.4999 92.7235 42.1899C92.6635 42.1999 92.6135 42.2699 92.6135 42.3299C92.6935 43.5299 92.7535 44.7299 92.8035 45.9299C92.8235 46.3899 93.0735 49.8499 92.8335 49.9199C92.6735 49.9699 91.9535 49.2599 91.8035 49.1499C91.1035 48.6299 90.3735 48.1499 89.6035 47.7299C87.5635 46.6099 85.3135 45.9299 83.0035 45.6399C79.4135 45.1899 75.7435 45.2199 72.1335 45.1799C67.8535 45.1299 63.5635 45.1599 59.2835 45.1999C57.7535 45.2199 56.2235 45.2399 54.6935 45.2499C53.5735 45.2499 52.4435 45.2099 51.3535 44.9299C51.1835 44.8899 49.8935 44.3799 49.8735 44.5199C49.8635 44.5899 50.3035 44.4599 50.3535 44.3999C50.3935 44.3499 50.4135 44.2899 50.3735 44.2199C50.0335 43.6199 48.7435 43.3299 48.1335 42.9799C47.0535 42.3499 45.7635 41.5599 44.4935 41.4499C43.9135 41.3999 43.0435 41.6399 43.3035 42.4199C43.6435 43.4499 45.8335 43.2399 46.6035 43.2099C52.0735 43.0199 57.5435 42.6799 63.0035 42.4199C71.9135 41.9799 80.8235 41.5499 89.7335 41.1199C94.0035 40.9199 98.2635 40.7099 102.534 40.5199C107.144 40.3099 111.784 39.8799 116.394 39.9099C116.614 39.9099 118.374 39.8399 118.454 40.1499C118.534 40.4499 117.394 40.5199 117.174 40.5499C115.634 40.7499 114.064 40.7999 112.504 40.8699C109.984 40.9699 107.454 41.0099 104.934 41.0199C104.744 41.0199 104.754 41.2999 104.934 41.3099C105.714 41.3699 108.644 42.3299 107.904 43.6699C107.854 43.7599 107.914 43.8999 108.034 43.8899C116.064 43.1599 124.104 42.4399 132.134 41.7299C134.124 41.5499 136.114 41.3799 138.104 41.2099C138.904 41.1399 140.004 41.2499 140.774 40.9799C141.704 40.6599 141.794 39.4699 141.874 38.6299C142.074 36.4899 142.014 34.2399 141.794 32.0999C141.574 29.9599 141.104 27.5599 139.734 25.7999C139.484 25.4799 139.104 24.9599 138.734 24.7599C138.504 24.6299 139.074 25.1299 139.164 25.1899C139.574 25.4799 140.054 25.6999 140.474 25.9999C141.394 26.6499 142.234 27.4399 142.904 28.3499C145.484 31.8799 144.994 36.4999 143.934 40.4799C143.914 40.5599 143.974 40.6699 144.074 40.6599C154.184 39.7799 164.284 38.8999 174.394 38.0099C190.374 36.6199 206.354 35.2199 222.334 33.8299C225.994 33.5099 229.654 33.1899 233.314 32.8699C233.394 32.8699 233.454 32.8099 233.464 32.7199C233.554 30.1199 233.634 27.5299 233.724 24.9299C233.724 24.7399 233.724 24.5599 233.744 24.3699C233.764 24.1099 233.524 24.3499 233.604 24.3999C234.214 24.7999 234.784 25.2799 235.324 25.7699C236.124 26.4899 237.534 27.6899 236.814 28.8299C236.224 29.7699 235.184 30.3499 234.594 31.3299C234.494 31.4899 234.744 31.6399 234.844 31.4799L234.704 31.4699Z" fill="#634C3D" stroke="#634C3D" stroke-width="0.5"/>
</g>
<defs>
<clipPath id="clip0_184_381">
<rect width="286.67" height="238.4" fill="white" transform="translate(0.132812)"/>
</clipPath>
</defs>
</svg>
