<svg width="222" height="597" viewBox="0 0 222 597" fill="none" xmlns="http://www.w3.org/2000/svg">
<path d="M0.910345 403.629L0.361328 402.895C12.4396 392.71 29.7334 382.708 56.452 396.472C65.9682 402.436 78.6869 401.794 90.5822 394.82L90.2162 385.461C89.3011 385.002 88.3861 384.451 87.4711 383.901L86.9221 383.625C82.53 381.148 77.4059 378.578 72.2818 378.945C64.1381 379.496 58.5565 393.077 58.465 393.168L57.55 395.462L59.746 271.768L60.4781 272.594C64.5041 276.998 71.4583 280.118 77.7719 280.302C81.5235 280.393 84.6345 279.384 86.5561 277.457C86.7391 277.274 87.6541 276.264 88.2031 274.521C88.2031 274.429 88.2031 274.429 88.2031 274.337C87.2881 276.172 85.8241 277.457 83.811 278.191C77.2229 280.577 66.7917 276.264 61.1185 270.758C60.478 270.116 60.2035 269.015 60.3865 267.272C60.5695 264.152 62.7656 261.582 65.8767 260.848C66.4257 260.756 67.0662 260.573 67.7067 260.481C67.6152 258.738 68.0727 257.27 68.6217 255.434C69.4452 252.59 70.6348 248.644 70.6348 241.028V237.357L70.7262 234.329L71.4583 81.1789L71.3668 77.325L71.0008 76.3156V74.2051C69.1707 74.7557 67.5237 75.1227 66.3342 75.1227C65.4191 75.1227 64.7786 74.6639 64.5956 73.9298C64.3211 73.0122 64.7786 71.8193 65.5107 71.4522C66.2427 71.0852 66.9747 71.3604 67.4322 71.544L71.0923 73.1039L71.0008 69.617C69.2622 70.1676 67.5237 70.5346 66.3342 70.5346C65.4191 70.5346 64.7786 70.0758 64.5956 69.3417C64.3211 68.4241 64.7786 67.2312 65.5107 66.8642C66.2427 66.4971 66.9747 66.7724 67.4322 66.9559L71.0008 68.4241L70.9093 65.0289C69.0792 65.5795 67.3407 65.9465 66.1511 65.9465C65.2361 65.9465 64.5956 65.4877 64.4126 64.7536C64.1381 63.836 64.5956 62.6431 65.3276 62.2761C66.0597 61.909 66.7917 62.1843 67.2492 62.3678L70.9093 63.9278L70.8177 60.4408C68.9877 60.9914 67.2492 61.3585 66.1511 61.3585C65.2361 61.3585 64.5956 60.8996 64.4126 60.1655C64.1381 59.2479 64.5956 58.055 65.3276 57.688C66.0597 57.3209 66.7917 57.5962 67.2492 57.7797L70.9093 59.3397L70.8177 55.8528C68.9877 56.4033 67.1577 56.7704 65.9682 56.7704C65.0531 56.7704 64.4126 56.3115 64.2296 55.5775C63.9551 54.6598 64.4126 53.467 65.1447 53.0999C65.8767 52.7329 66.6087 53.0081 67.0662 53.1916L70.8177 54.7516L70.7262 51.1729C68.8962 51.7235 67.1577 52.1823 65.9682 52.0905C65.0531 52.0905 64.4126 51.6317 64.2296 50.8976C63.9551 49.98 64.4126 48.7871 65.1447 48.4201C65.8767 48.053 66.5172 48.3283 67.0662 48.5118L70.8177 50.0718L70.7262 46.4013C68.9877 46.9519 67.3407 47.3189 66.1511 47.2271C65.2361 47.2271 64.5956 46.7683 64.4126 46.0342C64.1381 45.1166 64.5956 43.9237 65.3276 43.5567C66.0597 43.1896 66.7917 43.4649 67.2492 43.6484L70.7262 45.1166L70.6348 41.5379C68.8047 42.1803 67.1577 42.6391 66.1511 42.5473C65.2361 42.5473 64.5956 42.0885 64.4126 41.3544C64.1381 40.4368 64.5956 39.2439 65.3276 38.8769C66.0597 38.5098 66.7002 38.7851 67.2492 38.9686L70.7262 40.4368L70.6348 36.5828C68.8047 37.1334 67.1577 37.5004 65.9682 37.5004C65.0531 37.5004 64.4126 37.0416 64.2296 36.3075C63.9551 35.3899 64.4126 34.197 65.1447 33.83C65.8767 33.4629 66.5172 33.7382 67.0662 33.9217L70.6348 35.3899L70.5433 31.903C68.8047 32.4535 67.1577 32.8206 65.9682 32.7288C65.0531 32.7288 64.4126 32.27 64.2296 31.5359C63.9551 30.6183 64.4126 29.4254 65.1447 29.0584C65.8767 28.6913 66.6087 28.9666 67.0662 29.1501L70.6348 30.6183L70.5433 27.2231C68.7132 27.7737 66.9747 28.1407 65.7851 28.1407C64.8701 28.1407 64.2296 27.6819 64.0466 26.9478C63.7721 26.0302 64.2296 24.8373 64.9616 24.4703C65.6937 24.1032 66.3342 24.3785 66.8832 24.562L70.5433 26.122L70.4517 22.635C68.7132 23.1856 66.8832 23.5527 65.7851 23.5527C64.8701 23.5527 64.2296 23.0939 64.0466 22.3598C63.7721 21.4421 64.2296 20.2492 64.9616 19.8822C65.6937 19.5151 66.4257 19.7904 66.8832 19.974L70.4517 21.4421L70.3602 17.9552C68.5302 18.5058 66.7917 18.8728 65.5107 18.8728C64.5956 18.8728 63.9551 18.414 63.7721 17.6799C63.4976 16.7623 63.9551 15.5694 64.6871 15.2023C65.4192 14.8353 66.0596 15.1106 66.6087 15.2941L70.3602 16.8541L70.2687 13.2753C68.4387 13.8259 66.7002 14.193 65.5107 14.193C64.5956 14.193 63.9551 13.7342 63.7721 13.0001C63.4976 12.0825 63.9551 10.8895 64.6871 10.5225C65.4192 10.1554 66.1511 10.4307 66.6087 10.6143L70.2687 12.1742L70.1773 8.50375C68.4387 8.96256 66.7917 9.3296 65.6022 9.3296C64.6871 9.3296 64.0466 8.87081 63.8636 8.13671C63.5891 7.2191 64.0466 6.02618 64.7786 5.65914C65.5106 5.29209 66.1512 5.56738 66.7002 5.7509L70.1773 7.2191L70.0857 5.7509H69.9942C69.9027 5.7509 69.7197 5.65913 69.3537 5.56737C64.9616 4.55799 64.0466 4.0992 63.8636 3.54863C63.5891 2.63102 64.0466 1.4381 64.7786 1.07106C65.5106 0.70401 66.2427 0.979301 66.7002 1.16282L76.5824 5.2921C77.3144 5.01681 77.7719 4.83329 77.7719 4.83329L79.8764 3.82391C80.4254 3.54862 81.1575 3.18158 81.8895 3.45686C82.713 3.73215 83.3535 4.64977 83.3535 5.7509C83.3535 6.76028 82.8045 7.76966 81.981 8.04495C81.8895 8.04495 81.8895 8.04495 81.798 8.13671C81.8895 8.13671 81.8895 8.13671 81.981 8.13671C82.8045 8.412 83.445 9.32961 83.445 10.4308C83.445 11.4401 82.896 12.4495 82.0725 12.7248C81.3405 13.0001 80.6085 12.7248 80.0594 12.4495L76.7654 11.0731C75.4843 11.6236 73.7458 12.266 71.9158 12.9083L76.6739 14.9271C77.4059 14.6518 77.8634 14.4683 77.8634 14.4683L79.9679 13.4589C80.5169 13.1836 81.249 12.8166 81.981 13.0918C82.8045 13.3671 83.445 14.2847 83.445 15.3859C83.445 16.3953 82.896 17.4046 82.0725 17.6799C81.981 17.6799 81.981 17.6799 81.8895 17.7717C81.981 17.7717 81.981 17.7717 82.0725 17.7717C82.896 18.047 83.5365 18.9646 83.5365 20.0657C83.5365 21.0751 82.9875 22.0845 82.164 22.3598C82.2555 22.3598 82.2555 22.3598 82.347 22.3598C83.1705 22.635 83.811 23.5527 83.811 24.6538C83.811 25.6632 83.262 26.6726 82.4385 26.9478C82.347 26.9478 82.347 26.9478 82.2555 27.0396C82.347 27.0396 82.347 27.0396 82.4385 27.0396C83.262 27.3149 83.9025 28.2325 83.9025 29.3336C83.9025 30.343 83.3535 31.3524 82.53 31.6277H82.6215C83.445 31.9029 84.0855 32.8206 84.0855 33.9217C84.0855 34.9311 83.5365 35.9405 82.713 36.2157C82.6215 36.2157 82.6215 36.2158 82.53 36.3075C82.6215 36.3075 82.6215 36.3075 82.713 36.3075C83.5365 36.5828 84.177 37.5004 84.177 38.6016C84.177 39.6109 83.628 40.6203 82.8045 40.8956C82.0725 41.1709 81.3405 40.8956 80.7914 40.6203L77.4974 39.2439C76.2164 39.7945 74.4778 40.5285 72.6478 41.2626L77.6804 43.3732C78.4124 43.0979 78.8699 42.9144 78.8699 42.9144L80.9745 41.905C81.5235 41.6297 82.2555 41.2627 82.9875 41.5379C83.811 41.8132 84.4515 42.7308 84.4515 43.832C84.4515 44.8414 83.9025 45.8507 83.079 46.126C82.9875 46.126 82.9875 46.126 82.896 46.2178C82.9875 46.2178 82.9875 46.2178 83.079 46.2178C83.9025 46.4931 84.543 47.4107 84.543 48.5118C84.543 49.5212 83.994 50.5306 83.1705 50.8059C82.4385 51.0811 81.7065 50.8058 81.1575 50.5306L77.8634 49.1541C76.5824 49.7047 74.8438 50.347 73.0138 50.9894L77.7719 53.0081C78.5039 52.7329 78.9614 52.5493 78.9614 52.5493L81.066 51.5399C81.615 51.2647 82.347 50.8976 83.079 51.1729C83.9025 51.4482 84.543 52.3658 84.543 53.4669C84.543 54.4763 83.994 55.4857 83.1705 55.761C83.079 55.761 83.079 55.761 82.9875 55.8528C83.079 55.8528 83.079 55.8528 83.1705 55.8528C83.994 56.128 84.6345 57.0457 84.6345 58.1468C84.6345 59.1562 84.0855 60.1656 83.262 60.4408C83.3535 60.4408 83.3535 60.4408 83.445 60.4408C84.2685 60.7161 84.909 61.6337 84.909 62.7349C84.909 63.7443 84.36 64.7536 83.5365 65.0289C83.445 65.0289 83.445 65.0289 83.3535 65.1207C83.445 65.1207 83.445 65.1207 83.5365 65.1207C84.36 65.3959 85.0005 66.3136 85.0005 67.4147C85.0005 68.4241 84.4515 69.4335 83.628 69.7087H83.7195C84.543 69.984 85.1835 70.9016 85.1835 72.0028C85.1835 73.0122 84.6345 74.0215 83.811 74.2968C83.7195 74.2968 83.7195 74.2968 83.628 74.3886C83.7195 74.3886 83.7195 74.3886 83.811 74.3886C84.6345 74.6639 85.2751 75.5815 85.2751 76.6826C85.2751 77.692 84.726 78.7014 83.9025 78.9767C83.1705 79.252 82.4385 78.9767 81.8895 78.7014L78.7784 77.4167L76.4909 78.6096V83.473C76.4909 83.7483 76.6739 114.213 76.6739 116.048V221.758L76.7654 224.878C76.7654 235.522 76.8569 246.35 77.0399 256.719V258.554C77.9549 259.196 79.3274 259.839 80.7 260.573C82.164 261.307 83.7195 262.041 84.726 262.867C88.5691 265.895 90.5822 269.199 90.7652 272.502C90.8567 273.42 90.6736 274.337 90.4906 275.163C90.6736 284.706 90.4906 293.332 90.3991 301.682C90.2161 311.501 90.1246 320.769 90.4906 330.679L92.5037 385.461C96.0723 387.388 99.8238 388.947 103.392 388.856C108.883 388.764 113.641 384.635 116.66 377.385L117.484 377.753C114.281 385.277 109.157 389.682 103.392 389.773C99.7323 389.865 96.0723 388.305 92.5037 386.47L92.8697 395.921L92.5952 396.105C80.334 403.446 67.1577 404.088 57.367 397.94C29.7334 383.809 12.8056 393.536 0.910345 403.629ZM60.661 274.062L58.648 390.783C60.5696 386.837 65.5106 378.395 72.2818 377.936C77.6804 377.569 82.896 380.23 87.3796 382.799L87.9286 383.075C88.6606 383.533 89.3926 383.901 90.2162 384.359L88.2031 330.128C87.8371 320.218 88.0201 310.95 88.1116 301.132C88.2031 293.424 88.3861 285.532 88.2031 276.815C87.9286 277.365 87.5626 277.824 87.1966 278.191C85.092 280.302 81.798 281.403 77.7719 281.311C71.6413 281.036 64.8701 278.191 60.661 274.062ZM67.7982 261.491C67.1577 261.582 66.6087 261.674 66.0597 261.766C63.4061 262.316 61.3931 264.61 61.3016 267.272C61.2101 269.198 61.5761 269.841 61.7591 270.024C67.8897 275.989 77.8634 279.292 83.5365 277.274C86.2816 276.264 87.7456 274.245 88.1116 271.034H88.3861C87.9286 268.281 86.0071 265.528 82.8045 262.867C81.8895 262.133 80.4254 261.399 78.9614 260.756C77.4974 260.022 75.9419 259.288 75.0268 258.554L74.8438 258.462V256.168C74.7523 245.708 74.5693 234.88 74.5693 224.235L74.4778 221.115V115.498C74.4778 113.663 74.2948 83.1977 74.2948 82.9224V81.9131V77.4167L76.3994 76.3156L71.9158 74.4804V76.3156L72.2818 77.325L72.3733 81.2707L71.6413 234.421L71.5498 237.449V241.119C71.5498 248.827 70.3602 252.865 69.5367 255.801C68.9877 257.637 68.6217 258.921 68.7132 260.481C71.1838 260.298 73.8373 260.481 75.4843 262.041C77.5889 263.968 77.8634 266.446 76.9484 267.822C76.2164 269.015 74.9353 269.29 73.4713 268.74C71.4583 267.914 69.6282 267.18 68.3472 263.418C68.0727 262.775 67.8897 262.041 67.7982 261.491ZM68.7132 261.307C68.8047 261.858 68.9877 262.5 69.1707 263.142C70.2687 266.446 71.8243 267.088 73.7458 267.822C74.8438 268.281 75.6674 268.006 76.1249 267.272C76.7654 266.17 76.5824 264.243 74.7523 262.683C73.2883 261.399 70.9093 261.123 68.7132 261.307ZM78.4124 76.2238L80.883 77.2332C81.432 77.5085 81.8895 77.6002 82.2555 77.5085C82.6215 77.4167 82.9875 76.7744 82.9875 76.1321C82.9875 75.398 82.6215 74.8474 82.2555 74.7556C81.8895 74.6639 81.432 74.8474 80.883 75.1227L78.4124 76.2238ZM72.4648 73.7463L77.3144 75.765L78.5039 75.1227L80.4254 74.2051C80.7914 74.0216 81.1575 73.838 81.5235 73.7463C81.1575 73.6545 80.7915 73.5627 80.5169 73.3792L77.1314 72.0028C75.9418 72.5533 74.2948 73.1957 72.4648 73.7463ZM66.0597 72.1863C65.9682 72.1863 65.8766 72.1863 65.7851 72.2781C65.5106 72.4616 65.1446 73.1039 65.3276 73.7463C65.4191 74.1133 65.6936 74.2968 66.2427 74.2968C67.1577 74.2968 68.4387 74.0216 69.8112 73.6545L66.9747 72.4616C66.6087 72.2781 66.3342 72.1863 66.0597 72.1863ZM71.7328 69.8005L71.8243 73.0122C73.2883 72.5534 74.7523 72.0028 75.9419 71.544L71.7328 69.8005ZM78.3209 71.544L80.7914 72.5534C81.3405 72.8286 81.798 72.9204 82.164 72.8287C82.53 72.7369 82.896 72.0946 82.896 71.4522C82.896 70.7181 82.53 70.1676 82.164 70.0758C81.798 69.984 81.3405 70.1676 80.7914 70.4428L78.6869 71.4522C78.6869 71.4522 78.5039 71.4522 78.3209 71.544ZM72.4648 69.0664L77.1314 70.9934C77.8634 70.7181 78.3209 70.5346 78.3209 70.5346L80.4254 69.5252C80.6999 69.4335 80.9745 69.25 81.3405 69.1582C80.9745 69.0664 80.6084 68.9746 80.3339 68.7911L76.9484 67.4147C75.7589 67.9653 74.1118 68.5159 72.4648 69.0664ZM66.0597 67.5065C65.9682 67.5065 65.8766 67.5065 65.7851 67.5982C65.5106 67.7818 65.1446 68.4241 65.3276 69.0664C65.4191 69.4335 65.6936 69.617 66.2427 69.617C67.1577 69.617 68.4387 69.4335 69.8112 68.9747L66.9747 67.7818C66.5172 67.5982 66.2427 67.5065 66.0597 67.5065ZM71.6413 65.2124L71.7328 68.3323C73.1968 67.8735 74.5693 67.323 75.7588 66.8642L71.6413 65.2124ZM78.1379 66.9559L80.6085 67.9653C81.1575 68.1488 81.615 68.3323 81.981 68.2406C82.347 68.1488 82.713 67.5065 82.713 66.8642C82.713 66.1301 82.347 65.5795 81.981 65.4877C81.615 65.396 81.1575 65.5795 80.6085 65.8548L78.6869 66.7724C78.5954 66.7724 78.4124 66.8641 78.1379 66.9559ZM72.2818 64.4783L76.9484 66.4053C77.7719 66.0383 78.3209 65.8548 78.3209 65.8548L80.2425 64.9372C80.6085 64.7536 80.9745 64.5701 81.3405 64.4783C80.9745 64.3866 80.6084 64.2948 80.3339 64.1113L76.9484 62.7349C75.7589 63.2854 74.0203 63.9278 72.2818 64.4783ZM65.7851 62.9184C65.6936 62.9184 65.6022 62.9184 65.5107 63.0102C65.2361 63.1937 64.8701 63.836 65.0531 64.4783C65.1446 64.8454 65.4192 65.0289 65.9682 65.0289C66.8832 65.0289 68.1642 64.7536 69.5367 64.3866L66.7002 63.1937C66.3342 63.0102 66.0597 62.9184 65.7851 62.9184ZM71.5498 60.5326L71.6413 63.7442C73.1053 63.2854 74.5693 62.7349 75.6674 62.2761L71.5498 60.5326ZM78.1379 62.3678L80.6085 63.3772C81.1575 63.5607 81.615 63.7443 81.981 63.6525C82.347 63.5607 82.713 62.9184 82.713 62.2761C82.713 61.542 82.347 60.9914 81.981 60.8996C81.615 60.8079 81.1575 60.9914 80.6085 61.2667L78.5039 62.2761C78.4124 62.1843 78.3209 62.276 78.1379 62.3678ZM72.1903 59.8903L76.8569 61.8173C77.5889 61.542 78.0464 61.3585 78.0464 61.3585L80.1509 60.3491C80.4255 60.2573 80.7 60.0738 81.066 59.982C80.7 59.8903 80.3339 59.7985 80.0594 59.615L76.6739 58.2385C75.4843 58.6973 73.8373 59.3397 72.1903 59.8903ZM65.7851 58.2385C65.6936 58.2385 65.6022 58.2385 65.5107 58.3303C65.2361 58.5138 64.8701 59.1562 65.0531 59.7985C65.1446 60.1655 65.4192 60.3491 65.9682 60.3491C66.8832 60.3491 68.1642 60.0738 69.5367 59.7067L66.7002 58.5138C66.3342 58.4221 66.0597 58.2385 65.7851 58.2385ZM71.4583 56.0363L71.5498 59.0644C72.9223 58.6056 74.2948 58.055 75.4843 57.688L71.4583 56.0363ZM77.8634 57.688L80.3339 58.6973C80.8829 58.8809 81.3405 59.0644 81.7065 58.9726C82.0725 58.8809 82.4385 58.2386 82.4385 57.5962C82.4385 56.8621 82.0725 56.3116 81.7065 56.2198C81.3405 56.128 80.8829 56.3116 80.3339 56.5868L78.5039 57.5045C78.4124 57.5045 78.1379 57.5962 77.8634 57.688ZM71.9158 55.3022L76.5824 57.2292C77.4059 56.8621 77.9549 56.6786 78.0464 56.6786L79.8764 55.761C80.2424 55.5775 80.6085 55.3939 80.9745 55.3022C80.6085 55.2104 80.2424 55.1187 79.9679 54.9351L76.5824 53.5587C75.3929 54.0175 73.7458 54.6598 71.9158 55.3022ZM65.5107 53.6505C65.4192 53.6505 65.3276 53.6505 65.2361 53.7422C64.9616 53.9257 64.5956 54.5681 64.7786 55.2104C64.8701 55.5775 65.1446 55.761 65.6936 55.761C66.6087 55.761 67.8897 55.4857 69.2622 55.1186L66.4257 53.9258C66.0597 53.834 65.7852 53.6505 65.5107 53.6505ZM71.3668 51.3564L71.4583 54.4763C72.9223 54.0175 74.2948 53.467 75.3928 53.0999L71.3668 51.3564ZM77.7719 53.0999L80.2425 54.1093C80.7915 54.2928 81.249 54.4763 81.615 54.3846C81.981 54.2928 82.347 53.6505 82.347 53.0081C82.347 52.274 81.981 51.7235 81.615 51.6317C81.249 51.54 80.7915 51.7235 80.2425 51.9988L78.1379 53.0081C78.1379 52.9164 77.9549 53.0081 77.7719 53.0999ZM65.5107 49.0624C65.4192 49.0624 65.3276 49.0624 65.2361 49.1541C64.9616 49.3377 64.5956 49.98 64.7786 50.6223C64.8701 50.9894 65.1446 51.1729 65.6936 51.1729C66.6087 51.1729 67.7982 50.8976 69.2622 50.5306L66.3342 49.2459C65.9682 49.1541 65.6937 49.0624 65.5107 49.0624ZM71.2753 46.4013L71.3668 49.7965C72.9223 49.2459 74.3863 48.6953 75.5759 48.2365L71.2753 46.4013ZM77.9549 48.2365L80.4254 49.2459C80.9745 49.4294 81.432 49.6129 81.798 49.5212C82.164 49.4294 82.53 48.7871 82.53 48.1448C82.53 47.4107 82.164 46.8601 81.798 46.7683C81.432 46.6766 80.9745 46.8601 80.4254 47.1354L78.4124 48.1448C78.3209 48.053 78.1379 48.1448 77.9549 48.2365ZM72.0073 45.759L76.6739 47.6859C77.4059 47.4107 77.8634 47.1354 77.9549 47.1354L79.9679 46.126C80.3339 45.9425 80.7 45.759 81.066 45.6672C80.7 45.5754 80.3339 45.4837 80.0594 45.3002L76.6739 43.9237C75.4843 44.5661 73.8373 45.2084 72.0073 45.759ZM65.6022 44.199C65.5107 44.199 65.4191 44.199 65.3276 44.2908C65.0531 44.4743 64.6871 45.1166 64.8701 45.759C64.9616 46.126 65.2361 46.3095 65.7851 46.3095C66.7002 46.3095 67.9812 46.0343 69.3537 45.6672L66.5172 44.4743C66.1512 44.2908 65.8767 44.199 65.6022 44.199ZM71.0923 41.8132L71.1837 45.1166C72.7393 44.6578 74.2033 44.1072 75.3928 43.6484L71.0923 41.8132ZM77.8634 43.5567L80.3339 44.5661C80.8829 44.7496 81.3405 44.9331 81.7065 44.8414C82.0725 44.7496 82.4385 44.1073 82.4385 43.4649C82.4385 42.7308 82.0725 42.1803 81.7065 42.0885C81.3405 41.9967 80.8829 42.1803 80.3339 42.4556L78.2294 43.4649C78.2294 43.4649 78.0464 43.5567 77.8634 43.5567ZM65.6022 39.5192C65.5107 39.5192 65.4191 39.5192 65.3276 39.6109C65.0531 39.7945 64.6871 40.4368 64.8701 41.0791C64.9616 41.4462 65.2361 41.6297 65.7851 41.6297C66.5172 41.6297 67.7982 41.3544 69.0792 40.8956L66.4257 39.7945C66.0597 39.6109 65.7852 39.5192 65.6022 39.5192ZM71.0008 36.7663L71.0923 40.2533C72.5563 39.7027 74.1118 39.0604 75.3013 38.6016L71.0008 36.7663ZM77.5889 38.5098L80.0594 39.5192C80.6085 39.7027 81.066 39.8862 81.432 39.7945C81.798 39.7027 82.164 39.0604 82.164 38.418C82.164 37.684 81.798 37.1334 81.432 37.0416C81.066 36.9499 80.6085 37.1334 80.0594 37.4087L78.1379 38.3263C78.1379 38.2345 77.9549 38.3263 77.5889 38.5098ZM71.7328 36.0322L76.4909 38.051C77.3144 37.6839 77.7719 37.5004 77.7719 37.5004L79.6934 36.5828C80.0594 36.3993 80.4254 36.2158 80.7914 36.124C80.4254 36.0322 80.0595 35.9405 79.7849 35.7569L76.3994 34.3805C75.2098 34.7476 73.4713 35.3899 71.7328 36.0322ZM65.3276 34.4723C65.2361 34.4723 65.1446 34.4723 65.0531 34.564C64.7786 34.7476 64.4126 35.3899 64.5956 36.0322C64.6871 36.3993 64.9616 36.5828 65.5107 36.5828C66.4257 36.5828 67.7067 36.3075 69.0792 35.9405L66.2427 34.7476C65.7851 34.5641 65.5106 34.4723 65.3276 34.4723ZM70.9093 32.0865L71.0008 35.2981C72.4648 34.8393 73.9288 34.2888 75.1183 33.83L70.9093 32.0865ZM77.5889 33.83L80.0594 34.8393C80.6085 35.1146 81.066 35.2064 81.432 35.1146C81.798 35.0229 82.164 34.3805 82.164 33.7382C82.164 33.0041 81.798 32.4535 81.432 32.3618C81.066 32.27 80.6085 32.4535 80.0594 32.7288L77.9549 33.7382C77.8634 33.7382 77.7719 33.7382 77.5889 33.83ZM71.6413 31.3524L76.3079 33.2794C77.0399 33.0041 77.4974 32.8206 77.4974 32.8206L79.6019 31.8112C79.8764 31.7194 80.1509 31.5359 80.5169 31.4442C80.1509 31.3524 79.7849 31.2606 79.5104 31.0771L76.1249 29.7007C74.9353 30.1595 73.3798 30.8018 71.6413 31.3524ZM65.2361 29.7924C65.1446 29.7924 65.0531 29.7924 64.9616 29.8842C64.6871 30.0677 64.3211 30.7101 64.5041 31.3524C64.5956 31.7194 64.8701 31.903 65.4191 31.903C66.3342 31.903 67.6152 31.6277 68.9877 31.2606L66.1511 30.0677C65.7851 29.8842 65.5106 29.7924 65.2361 29.7924ZM70.8177 27.4984L70.9093 30.6183C72.3733 30.1595 73.7458 29.6089 74.9353 29.1501L70.8177 27.4984ZM77.3144 29.2419L79.7849 30.2512C80.334 30.5265 80.7915 30.6183 81.1575 30.5265C81.5235 30.4348 81.8895 29.7924 81.8895 29.1501C81.8895 28.416 81.5235 27.8655 81.1575 27.7737C80.7915 27.6819 80.334 27.8654 79.7849 28.1407L77.8634 29.0584C77.8634 29.0584 77.6804 29.1501 77.3144 29.2419ZM71.4583 26.7643L76.1249 28.6913C76.9484 28.3243 77.4974 28.1407 77.4974 28.1407L79.4189 27.2231C79.7849 27.0396 80.1509 26.8561 80.5169 26.7643C80.1509 26.6725 79.7849 26.5808 79.5104 26.3973L76.1249 25.0208C74.9353 25.5714 73.1968 26.2137 71.4583 26.7643ZM65.0531 25.2044C64.9616 25.2044 64.8701 25.2044 64.7786 25.2961C64.5041 25.4796 64.1381 26.122 64.3211 26.7643C64.4126 27.1314 64.6871 27.3149 65.2361 27.3149C66.1511 27.3149 67.4322 27.0396 68.8047 26.6725L65.9682 25.4797C65.6022 25.2961 65.3276 25.2044 65.0531 25.2044ZM70.7262 22.8186L70.8177 26.0302C72.2818 25.5714 73.7458 25.0208 74.9353 24.562L70.7262 22.8186ZM77.3144 24.562L79.7849 25.5714C80.334 25.8467 80.7915 25.9385 81.1575 25.8467C81.5235 25.7549 81.8895 25.1126 81.8895 24.4703C81.8895 23.7362 81.5235 23.1856 81.1575 23.0938C80.7915 23.0021 80.334 23.1856 79.7849 23.4609L77.6804 24.4703C77.5889 24.4703 77.4974 24.4703 77.3144 24.562ZM71.3668 22.0845L76.0334 24.0115C76.7654 23.7362 77.2229 23.5527 77.2229 23.5527L79.3274 22.5433C79.6019 22.4515 79.8764 22.268 80.2425 22.1762C79.8764 22.0845 79.5104 21.9927 79.2359 21.8092L75.8503 20.4328C74.6608 20.9833 73.1053 21.5339 71.3668 22.0845ZM64.9616 20.5245C64.8701 20.5245 64.7786 20.5245 64.6871 20.6163C64.4126 20.7998 64.0466 21.4421 64.2296 22.0845C64.3211 22.4515 64.5956 22.635 65.1447 22.635C66.0597 22.635 67.3407 22.3597 68.7132 21.9927L65.8767 20.7998C65.5106 20.6163 65.2361 20.5245 64.9616 20.5245ZM70.6348 18.3222L70.7262 21.4421C72.0988 20.9833 73.5628 20.4328 74.6608 20.0657L70.6348 18.3222ZM77.0399 19.974L79.5104 20.9833C80.0594 21.2586 80.5169 21.3504 80.883 21.2586C81.249 21.1669 81.615 20.5245 81.615 19.8822C81.615 19.1481 81.249 18.5975 80.883 18.5058C80.5169 18.414 80.0594 18.5975 79.5104 18.8728L77.6804 19.7904C77.5889 19.7904 77.4059 19.8822 77.0399 19.974ZM71.1837 17.4964L75.8503 19.4234C76.6739 19.0563 77.2229 18.8728 77.3144 18.8728L79.1444 17.9552C79.5104 17.7717 79.8764 17.5881 80.2425 17.4964C79.8764 17.4046 79.5104 17.3129 79.2359 17.1293L75.8503 15.7529C74.6608 16.3035 72.9223 16.9458 71.1837 17.4964ZM64.7786 15.9364C64.6871 15.9364 64.5956 15.9364 64.5041 16.0282C64.2296 16.2117 63.8636 16.854 64.0466 17.4964C64.1381 17.8634 64.4126 18.047 64.9616 18.047C65.8767 18.047 67.1577 17.7717 68.5302 17.4046L65.6936 16.2117C65.2361 16.0282 64.9616 15.9364 64.7786 15.9364ZM70.5433 13.6424L70.6348 16.7623C72.0988 16.3035 73.4713 15.7529 74.6608 15.2941L70.5433 13.6424ZM77.0399 15.2941L79.5104 16.3035C80.0594 16.5788 80.5169 16.6705 80.883 16.5788C81.249 16.487 81.615 15.8447 81.615 15.2023C81.615 14.4682 81.249 13.9177 80.883 13.8259C80.5169 13.7342 80.0594 13.9177 79.5104 14.193L77.4059 15.2023C77.3144 15.2023 77.2229 15.2941 77.0399 15.2941ZM64.6871 11.2566C64.5956 11.2566 64.5041 11.2566 64.4126 11.3484C64.1381 11.5319 63.7721 12.1742 63.9551 12.8165C64.0466 13.1836 64.3211 13.3671 64.8701 13.3671C65.7851 13.3671 66.9747 13.0918 68.4387 12.7248L65.6022 11.5319C65.2362 11.3484 64.9616 11.2566 64.6871 11.2566ZM70.4517 8.68726L70.5433 12.0825C72.0988 11.5319 73.5628 10.9813 74.8438 10.5225L70.4517 8.68726ZM77.1314 10.5225L79.6019 11.5319C80.1509 11.8072 80.6085 11.8989 80.9745 11.8072C81.3405 11.7154 81.7065 11.0731 81.7065 10.4308C81.7065 9.69666 81.3405 9.14609 80.9745 9.05433C80.6085 8.96257 80.1509 9.14609 79.6019 9.42137L77.5889 10.4308C77.4974 10.339 77.4059 10.4307 77.1314 10.5225ZM71.2753 8.04495L75.9419 9.97195C76.6739 9.69666 77.1314 9.42137 77.2229 9.42137L79.2359 8.41199C79.6019 8.22846 79.9679 8.04494 80.3339 7.95318C79.9679 7.86142 79.6019 7.76966 79.3274 7.58614L75.9419 6.20971C74.7523 6.85204 73.0138 7.49438 71.2753 8.04495ZM64.8701 6.48499C64.7786 6.48499 64.6871 6.48499 64.5956 6.57675C64.3211 6.76028 63.9551 7.40261 64.1381 8.04495C64.2296 8.41199 64.5041 8.59552 65.0531 8.59552C65.9682 8.59552 67.2492 8.32022 68.6217 7.95318L65.7851 6.76029C65.3276 6.57677 65.0531 6.48499 64.8701 6.48499ZM69.4452 4.83329H70.3602L70.4517 7.31084C72.0073 6.85203 73.5628 6.30147 74.7523 5.7509L65.6936 1.98867C65.2361 1.80515 64.8701 1.62162 64.5956 1.80514C64.3211 1.98866 63.9551 2.631 64.1381 3.27333C64.3211 3.45685 65.2361 3.8239 68.9877 4.64975C69.1707 4.83328 69.3537 4.83329 69.4452 4.83329ZM77.1314 5.84267L79.6019 6.85203C80.1509 7.03555 80.6085 7.21909 80.9745 7.12733C81.3405 7.03557 81.7065 6.39324 81.7065 5.7509C81.7065 5.01681 81.3405 4.46624 80.9745 4.37448C80.6085 4.28272 80.1509 4.46624 79.6019 4.74152L77.4974 5.7509C77.4059 5.7509 77.3144 5.75091 77.1314 5.84267Z" fill="#F4F0EC"/>
<path d="M143.533 130.608C148.741 114.646 149.527 97.9932 148.053 81.4392C147.758 77.6949 147.267 73.9505 146.972 70.2062C146.874 68.4325 146.579 66.1662 147.071 64.4911C147.365 63.3087 147.267 64.6882 147.365 65.2794C147.464 66.2647 147.464 67.3486 147.464 68.334C147.365 76.611 146.579 84.888 145.892 93.0664C145.499 97.5005 145.106 101.935 144.712 106.467C144.516 108.635 144.319 110.803 144.418 113.069C144.418 113.857 144.418 114.843 145.007 115.532C145.105 115.631 145.302 115.73 145.499 115.631C146.972 114.547 146.579 110.803 146.579 109.226C146.579 105.088 146.383 100.949 146.285 96.9093C146.088 90.8986 145.695 84.8879 145.106 78.9758C144.811 75.9212 144.418 72.8666 144.221 69.812C144.123 68.5311 143.73 65.3779 144.418 64.294C144.811 63.7028 144.614 65.3779 144.712 65.8706C144.811 66.856 144.811 67.9398 144.811 68.9252C144.712 77.0051 143.926 85.1836 143.239 93.2635C142.846 97.8946 142.453 102.427 141.961 107.058C141.765 109.128 140.684 113.857 142.256 115.631C142.354 115.73 142.551 115.828 142.747 115.73C144.221 114.646 143.828 110.901 143.828 109.325C143.828 105.186 143.632 101.048 143.533 97.0078C143.337 90.9972 142.944 84.9865 142.354 79.0744C142.06 76.0198 141.667 72.9652 141.47 69.9106C141.372 68.6296 140.979 65.4765 141.667 64.3926C142.06 63.8014 141.863 65.4765 141.961 65.9691C142.06 66.9545 142.06 68.0384 142.06 69.0237C141.961 77.1037 141.175 85.2821 140.487 93.362C140.094 97.9932 139.701 102.526 139.21 107.157C139.014 109.226 137.933 113.956 139.505 115.73C139.603 115.828 139.8 115.927 139.996 115.828C141.47 114.744 141.077 111 141.077 109.423C141.077 105.285 140.88 101.146 140.782 97.1064C140.586 91.0957 140.193 85.085 139.603 79.1729C139.308 76.1183 138.915 73.0637 138.719 70.0091C138.621 68.7281 138.228 65.575 138.915 64.4911C139.308 63.8999 139.112 65.575 139.21 66.0677C139.308 67.053 139.308 68.1369 139.308 69.1223C139.21 77.2022 138.424 85.3806 137.736 93.4605C137.343 98.0917 136.95 102.624 136.459 107.256C136.262 109.325 135.182 114.054 136.754 115.828C136.852 115.927 137.048 116.025 137.245 115.927C138.719 114.843 138.326 111.098 138.326 109.522C138.326 105.383 138.129 101.245 138.031 97.2049C137.835 91.1942 137.441 85.1836 136.852 79.2714C136.557 76.2168 136.164 73.1622 135.968 70.1076C135.869 68.8267 135.476 65.6735 136.164 64.5896C136.557 63.9984 136.361 65.6735 136.459 66.1662C136.557 67.1516 136.557 68.2355 136.557 69.2208C136.459 77.3007 135.673 85.4792 134.985 93.5591C134.592 98.1902 134.199 102.723 133.708 107.354C133.511 109.423 132.43 114.153 134.002 115.927C134.101 116.025 134.297 116.124 134.494 116.025C135.968 114.941 135.575 111.197 135.575 109.62C135.575 105.482 135.378 101.343 135.28 97.3034C135.083 91.2928 134.69 85.2821 134.101 79.37C133.806 76.3154 133.413 73.2608 133.216 70.2062C133.118 68.9252 132.725 65.7721 133.413 64.6882C133.806 64.097 133.609 65.7721 133.708 66.2647C133.806 67.2501 133.806 68.334 133.806 69.3194C133.708 77.3993 132.922 85.5777 132.234 93.6576C131.841 98.2888 131.448 102.821 130.957 107.453C130.76 109.522 129.679 114.252 131.251 116.025C131.35 116.124 131.546 116.222 131.743 116.124C133.216 115.04 132.823 111.295 132.823 109.719C132.823 105.58 132.627 101.442 132.529 97.402C132.332 91.3913 131.939 85.3806 131.35 79.4685C131.055 76.4139 130.662 73.3593 130.465 70.3047C130.367 69.0237 129.974 65.8706 130.662 64.7867C131.055 64.1955 130.858 65.8706 130.957 66.3633C131.055 67.3486 131.055 68.4325 131.055 69.4179C130.957 77.4978 130.171 85.6762 129.483 93.7561C129.09 98.3873 128.697 102.92 128.205 107.551C128.009 109.62 126.928 114.35 128.5 116.124C128.598 116.222 128.795 116.321 128.991 116.222C130.564 115.04 130.072 111.098 130.072 109.423C130.072 105.482 129.876 101.442 129.777 97.5005C129.581 91.2928 129.286 85.085 128.991 78.8773C128.893 75.8227 128.5 72.6695 128.402 69.6149C128.402 68.9252 128.107 64.8853 128.697 64.5896C128.795 64.5896 128.795 69.7135 128.795 70.3047C128.205 77.7934 127.419 85.1836 126.83 92.6723C126.437 97.3034 126.044 102.033 125.749 106.664C125.651 108.832 125.454 111.098 125.651 113.365C125.749 114.153 125.651 115.631 126.339 116.124C126.535 116.222 126.732 116.321 126.83 116.124C127.518 115.434 127.419 114.252 127.518 113.365C127.714 111 127.518 108.635 127.419 106.172C127.125 101.048 126.928 95.9239 126.732 90.8001C126.535 85.4792 126.437 80.2568 126.339 74.9359C126.339 72.4725 126.044 70.0091 126.044 67.6442C126.044 66.856 126.339 63.0131 126.535 65.6735C126.633 66.7574 126.633 67.8413 126.535 68.9252C126.24 76.4139 124.766 83.7055 124.079 91.0957C123.686 95.9239 123.293 100.752 122.998 105.679C122.801 108.044 122.605 110.507 122.801 112.872C122.801 113.759 122.801 115.532 123.587 116.124C123.784 116.222 123.98 116.321 124.079 116.124C124.766 115.434 124.668 114.252 124.766 113.365C124.963 111 124.766 108.635 124.668 106.172C124.373 101.048 124.177 95.9239 123.98 90.8001C123.784 85.4792 123.686 80.2568 123.587 74.9359C123.587 72.4725 123.489 70.0091 123.587 67.6442C123.686 66.856 123.882 63.0131 124.177 65.6735C124.275 66.7574 124.275 67.8413 124.177 68.9252C123.784 76.3154 122.113 83.7055 121.426 91.0957C121.033 95.9239 120.64 100.752 120.345 105.679C120.148 108.044 119.952 110.507 120.148 112.872C120.148 113.759 120.148 115.532 120.934 116.124C121.131 116.222 121.327 116.321 121.426 116.124C122.113 115.434 122.015 114.252 122.113 113.365C122.31 111 122.114 108.635 122.015 106.172C121.72 101.048 121.524 95.9239 121.327 90.8001C121.131 85.4792 121.033 80.2568 120.934 74.9359C120.934 72.4725 120.836 70.0091 120.934 67.6442C121.033 66.856 121.229 63.0131 121.524 65.6735C121.622 66.7574 121.622 67.8413 121.524 68.9252C121.131 76.3154 119.461 83.7055 118.773 91.0957C118.38 95.9239 117.987 100.752 117.692 105.679C117.495 108.044 117.299 110.507 117.495 112.872C117.495 113.759 117.495 115.532 118.281 116.124C118.478 116.222 118.674 116.321 118.773 116.124C119.461 115.434 119.362 114.252 119.461 113.365C119.657 111 119.461 108.635 119.362 106.172C119.068 101.048 118.871 95.9239 118.675 90.8001C118.478 85.4792 118.38 80.2568 118.281 74.9359C118.281 72.4725 118.183 70.0091 118.281 67.6442C118.38 66.856 118.576 63.0131 118.871 65.6735C118.969 66.7574 118.969 67.8413 118.871 68.9252C118.478 76.3154 116.808 83.7055 116.12 91.0957C115.727 95.9239 115.334 100.752 115.039 105.679C114.842 108.044 114.646 110.507 114.842 112.872C114.842 113.759 114.843 115.532 115.629 116.124C115.825 116.222 116.022 116.321 116.12 116.124C116.808 115.434 116.709 114.252 116.808 113.365C117.004 111 116.808 108.635 116.709 106.172C116.415 101.048 116.218 95.9239 116.022 90.8001C115.825 85.4792 115.727 80.2568 115.629 74.9359C115.629 72.4725 115.53 70.0091 115.629 67.6442C115.727 66.856 115.923 63.0131 116.218 65.6735C116.316 66.7574 116.316 67.8413 116.218 68.9252C115.825 76.3154 114.155 83.7055 113.467 91.0957C113.074 95.9239 112.681 100.752 112.386 105.679C112.19 108.044 111.993 110.507 112.19 112.872C112.19 113.759 112.19 115.532 112.976 116.124C113.172 116.222 113.369 116.321 113.467 116.124C114.155 115.434 114.056 114.252 114.155 113.365C114.351 111 114.155 108.635 114.056 106.172C113.762 101.048 113.565 95.9239 113.369 90.8001C113.172 85.4792 113.074 80.2568 112.976 74.9359C112.976 72.4725 112.877 70.0091 112.976 67.6442C113.074 66.856 113.27 63.0131 113.565 65.6735C113.663 66.7574 113.663 67.8413 113.565 68.9252C113.172 76.3154 111.502 83.7055 110.814 91.0957C110.421 95.9239 110.028 100.752 109.733 105.679C109.537 108.044 109.34 110.507 109.537 112.872C109.537 113.759 109.537 115.532 110.323 116.124C110.519 116.222 110.716 116.321 110.814 116.124C111.502 115.434 111.404 114.252 111.502 113.365C111.698 111 111.502 108.635 111.404 106.172C111.109 101.048 110.912 95.9239 110.716 90.8001C110.519 85.4792 110.421 80.2568 110.323 74.9359C110.323 72.4725 110.224 70.0091 110.323 67.6442C110.421 66.856 110.617 63.0131 110.912 65.6735C111.011 66.7574 111.011 67.8413 110.912 68.9252C110.519 76.3154 108.849 83.7055 108.161 91.0957C107.768 95.9239 107.375 100.752 107.08 105.679C106.884 108.044 106.687 110.507 106.884 112.872C106.884 113.759 106.884 115.532 107.67 116.124C107.866 116.222 108.063 116.321 108.161 116.124C108.947 115.335 108.849 113.562 108.947 112.576C109.144 109.522 108.751 106.467 108.652 103.413C108.358 97.3034 108.063 91.0957 107.965 84.9865C107.768 79.1729 107.375 73.1622 107.866 67.2501C107.965 66.6589 108.554 64.9838 108.259 64.5896C108.456 64.8853 108.456 66.0677 108.456 66.4618C108.554 67.6442 108.456 68.8267 108.358 70.0091C108.063 72.9652 107.572 75.9212 107.178 78.8773C105.508 91.1942 104.624 103.511 106.196 115.927C107.67 128.145 109.34 140.166 109.93 152.483C111.207 177.708 110.912 202.933 111.404 228.159C111.895 253.679 112.386 279.298 112.976 304.819C114.056 356.156 115.039 407.592 116.12 458.929C116.709 487.405 116.906 515.882 118.281 544.359C118.871 556.085 119.559 567.81 121.033 579.339C121.524 583.28 122.212 587.32 123.293 591.163C123.784 592.838 124.472 595.597 126.24 596.386C130.662 598.553 133.708 585.054 134.297 582.985C135.673 578.058 135.968 572.836 136.459 567.81C137.147 561.603 137.736 555.296 138.326 549.089C139.505 536.18 140.389 523.371 141.175 510.463C144.123 459.323 144.516 407.986 145.597 356.846C146.678 305.41 147.758 254.073 148.839 202.638C149.134 190.321 150.117 177.807 148.839 165.589C147.955 156.326 145.302 145.684 137.638 139.674C132.627 135.634 122.31 134.55 119.755 142.039C118.871 144.6 119.166 147.754 120.738 150.118C122.31 152.483 124.668 152.976 127.321 152.877C140.094 152.385 144.418 140.659 149.036 130.707C151.59 125.287 154.636 119.671 160.04 116.616C169.473 111.098 181.952 114.449 191.876 116.616C201.701 118.686 212.116 120.459 221.746 116.321C222.139 116.124 221.844 115.532 221.353 115.73C210.446 120.361 198.754 117.306 187.651 115.04C179.299 113.266 169.67 111.493 161.613 115.04C151.394 119.572 148.544 131.397 143.73 140.462C141.175 145.192 137.736 149.527 132.529 151.301C129.679 152.286 125.159 153.075 122.605 151.104C119.755 148.837 119.362 144.009 121.131 141.053C123.98 136.225 131.448 136.619 135.575 139.181C139.603 141.644 142.354 145.881 144.319 150.118C148.937 160.465 148.741 172.289 148.446 183.325C147.464 230.918 146.481 278.51 145.499 326.103C144.516 373.301 143.828 420.598 142.256 467.797C141.47 491.445 140.389 515.094 138.522 538.644C137.638 550.37 136.459 561.997 135.083 573.624C134.297 579.93 133.118 586.039 130.465 591.853C129.876 593.035 128.598 596.386 126.732 595.991C125.061 595.597 124.275 592.346 123.882 590.966C121.426 582.591 120.836 573.624 120.148 565.051C118.38 542.881 117.888 520.513 117.495 498.343C116.709 455.776 115.825 413.307 114.941 370.739C113.958 323.245 113.074 275.751 112.091 228.356C111.6 205.101 111.698 181.847 110.814 158.593C110.421 147.458 109.635 136.225 108.161 125.189C106.589 113.365 105.41 101.935 106.491 90.0118C106.982 84.2967 107.866 78.6802 108.652 72.9652C108.947 71.093 109.144 69.1223 109.144 67.2501C109.144 66.1662 109.34 64.4911 108.554 63.7028C108.456 63.6043 108.259 63.5058 108.063 63.6043C106.589 64.6882 106.982 68.334 106.982 69.9106C106.884 74.1476 107.08 78.2861 107.178 82.5231C107.375 90.603 107.67 98.6829 108.161 106.763C108.259 108.635 108.358 110.409 108.358 112.281C108.358 113.069 108.456 114.449 108.063 115.04C107.866 115.335 107.965 115.335 108.063 115.335C107.965 115.335 107.768 113.266 107.768 112.971C107.473 109.029 108.063 104.891 108.358 100.949C108.849 94.643 109.34 88.3367 110.224 82.0304C110.716 78.5817 111.207 75.2315 111.698 71.7827C111.993 69.812 112.976 65.3779 111.404 63.8014C111.305 63.7028 111.109 63.6043 110.912 63.7028C109.438 64.7867 109.831 68.4325 109.831 70.0091C109.733 74.2461 109.93 78.3846 110.028 82.6216C110.224 90.7016 110.519 98.7815 111.011 106.861C111.109 108.734 111.207 110.507 111.207 112.379C111.207 113.168 111.305 114.547 110.912 115.138C110.716 115.434 110.814 115.434 110.912 115.434C110.814 115.434 110.617 113.365 110.617 113.069C110.323 109.128 110.912 104.989 111.207 101.048C111.698 94.7415 112.19 88.4352 113.074 82.129C113.565 78.6802 114.056 75.33 114.548 71.8813C114.842 69.9106 115.825 65.4765 114.253 63.8999C114.155 63.8014 113.958 63.7028 113.762 63.8014C112.288 64.8853 112.681 68.5311 112.681 70.1076C112.583 74.3447 112.779 78.4831 112.877 82.7202C113.074 90.8001 113.369 98.88 113.86 106.96C113.958 108.832 114.056 110.606 114.056 112.478C114.056 113.266 114.155 114.646 113.762 115.237C113.565 115.532 113.663 115.532 113.762 115.532C113.663 115.532 113.467 113.463 113.467 113.168C113.172 109.226 113.762 105.088 114.056 101.146C114.548 94.84 115.039 88.5338 115.923 82.2275C116.415 78.7788 116.906 75.4286 117.397 71.9798C117.692 70.0091 118.675 65.575 117.102 63.9984C117.004 63.8999 116.808 63.8014 116.611 63.8999C115.137 64.9838 115.53 68.6296 115.53 70.2062C115.432 74.4432 115.629 78.5817 115.727 82.8187C115.923 90.8986 116.218 98.9785 116.709 107.058C116.808 108.931 116.906 110.704 116.906 112.576C116.906 113.365 117.004 114.744 116.611 115.335C116.415 115.631 116.513 115.631 116.611 115.631C116.513 115.631 116.316 113.562 116.316 113.266C116.022 109.325 116.611 105.186 116.906 101.245C117.397 94.9386 117.888 88.6323 118.773 82.326C119.264 78.8773 119.755 75.5271 120.247 72.0783C120.541 70.1076 121.524 65.6735 119.952 64.097C119.854 63.9984 119.657 63.8999 119.461 63.9984C117.987 65.0823 118.38 68.7281 118.38 70.3047C118.281 74.5417 118.478 78.6802 118.576 82.9172C118.773 90.9971 119.068 99.0771 119.559 107.157C119.657 109.029 119.755 110.803 119.755 112.675C119.755 113.463 119.854 114.843 119.461 115.434C119.264 115.73 119.362 115.73 119.461 115.73C119.362 115.73 119.166 113.66 119.166 113.365C118.871 109.423 119.461 105.285 119.755 101.343C120.247 95.0371 120.738 88.7308 121.622 82.4246C122.113 78.9758 122.605 75.6256 123.096 72.1769C123.391 70.2062 124.373 65.7721 122.801 64.1955C122.703 64.097 122.507 63.9984 122.31 64.097C120.836 65.1809 121.229 68.8267 121.229 70.4032C121.131 74.6403 121.327 78.7788 121.426 83.0158C121.622 91.0957 121.917 99.1756 122.408 107.256C122.506 109.128 122.605 110.901 122.605 112.773C122.605 113.562 122.703 114.941 122.31 115.532C122.113 115.828 122.212 115.828 122.31 115.828C122.212 115.828 122.015 113.759 122.015 113.463C121.72 109.522 122.31 105.383 122.605 101.442C123.096 95.1356 123.587 88.8294 124.472 82.5231C124.963 79.0744 125.454 75.7242 125.946 72.2754C126.24 70.3047 127.223 65.8706 125.651 64.294C125.552 64.1955 125.356 64.097 125.159 64.1955C123.686 65.2794 124.079 68.9252 124.079 70.5018C123.98 74.7388 124.177 78.8773 124.275 83.1143C124.472 91.1942 124.766 99.2741 125.258 107.354C125.356 109.226 125.454 111 125.454 112.872C125.454 113.66 125.552 115.04 125.159 115.631C124.963 115.927 125.061 115.927 125.159 115.927C125.061 115.927 124.865 113.857 124.865 113.562C124.57 109.62 125.159 105.482 125.454 101.54C125.946 95.2342 126.437 88.9279 127.321 82.6216C127.812 79.1729 128.402 75.8227 128.598 72.3739C128.697 70.4032 129.679 65.9691 128.205 64.3926C128.107 64.294 127.911 64.1955 127.714 64.294C127.026 64.7867 127.026 65.7721 126.83 66.5604C126.437 68.9252 126.83 71.2901 126.928 73.6549C127.026 78.5817 127.125 83.607 127.223 88.5338C127.419 93.362 127.518 98.1902 127.812 103.018C127.911 105.482 128.107 107.945 128.205 110.507C128.205 111.69 128.205 112.872 128.107 113.956C128.009 114.646 128.205 116.715 127.812 115.138C127.223 112.971 127.616 110.409 127.714 108.142C127.812 105.58 128.009 103.018 128.205 100.457C128.5 96.5151 128.893 92.6723 129.188 88.7308C129.679 83.7055 130.17 78.6802 130.564 73.5564C130.76 71.1915 131.055 68.8267 130.858 66.4618C130.76 65.6735 130.858 64.5896 130.072 64.097C129.974 63.9984 129.777 63.9984 129.581 64.1955C127.812 66.1662 128.795 71.093 128.991 73.4578C129.286 77.2022 129.483 80.9465 129.581 84.6909C129.876 93.362 130.662 102.132 130.465 110.901C130.465 112.182 130.564 113.956 130.072 115.237C129.483 116.813 129.777 113.759 129.777 113.168C129.777 110.704 130.072 108.339 130.269 105.876C130.76 100.752 131.153 95.6283 131.546 90.5045C131.939 85.1836 132.332 79.9612 132.529 74.6403C132.627 72.2754 132.823 69.9106 132.725 67.4472C132.627 66.5604 132.725 64.8853 131.939 64.294C131.743 64.1955 131.546 64.097 131.448 64.294C130.76 64.9838 130.858 66.1662 130.76 67.053C130.564 69.2208 130.76 71.3886 130.957 73.5564C131.35 77.3007 131.743 81.0451 132.037 84.7894C132.725 93.4605 133.216 102.23 133.118 111C133.118 112.281 133.216 114.054 132.725 115.335C132.136 116.912 132.43 113.857 132.43 113.266C132.43 110.803 132.725 108.438 132.922 105.975C133.413 100.851 133.806 95.7269 134.199 90.603C134.592 85.2821 134.985 80.0597 135.182 74.7388C135.28 72.374 135.476 70.0091 135.378 67.5457C135.28 66.6589 135.378 64.9838 134.592 64.3926C134.396 64.294 134.199 64.1955 134.101 64.3926C133.413 65.0823 133.511 66.2647 133.413 67.1516C133.216 69.3193 133.413 71.4871 133.61 73.6549C134.003 77.3993 134.396 81.1436 134.69 84.8879C135.378 93.5591 135.869 102.329 135.771 111.098C135.771 112.379 135.869 114.153 135.378 115.434C134.789 117.011 135.083 113.956 135.083 113.365C135.083 110.901 135.378 108.536 135.575 106.073C136.066 100.949 136.459 95.8254 136.852 90.7016C137.245 85.3806 137.638 80.1582 137.835 74.8373C137.933 72.4725 138.129 70.1076 138.031 67.6442C137.933 66.7574 138.031 65.0823 137.245 64.4911C137.048 64.3926 136.852 64.294 136.754 64.4911C136.066 65.1809 136.164 66.3633 136.066 67.2501C135.869 69.4179 136.066 71.5857 136.262 73.7535C136.655 77.4978 137.048 81.2421 137.343 84.9865C138.031 93.6576 138.522 102.427 138.424 111.197C138.424 112.478 138.522 114.252 138.031 115.532C137.442 117.109 137.736 114.054 137.736 113.463C137.736 111 138.031 108.635 138.228 106.172C138.719 101.048 139.112 95.9239 139.505 90.8001C139.898 85.4792 140.291 80.2568 140.487 74.9359C140.586 72.571 140.782 70.2062 140.684 67.7428C140.586 66.856 140.684 65.1809 139.898 64.5896C139.701 64.4911 139.505 64.3926 139.407 64.5896C138.719 65.2794 138.817 66.4618 138.719 67.3486C138.522 69.5164 138.719 71.6842 138.915 73.852C139.308 77.5963 139.701 81.3407 139.996 85.085C140.684 93.7562 141.175 102.526 141.077 111.295C141.077 112.576 141.175 114.35 140.684 115.631C140.094 117.208 140.389 114.153 140.389 113.562C140.389 111.098 140.684 108.734 140.88 106.27C141.372 101.146 141.765 96.0225 142.158 90.8986C142.551 85.5777 142.944 80.3553 143.14 75.0344C143.239 72.6695 143.435 70.3047 143.337 67.8413C143.239 66.9545 143.337 65.2794 142.551 64.6882C142.354 64.5896 142.158 64.4911 142.06 64.6882C141.372 65.3779 141.47 66.5604 141.372 67.4472C141.175 69.615 141.372 71.7827 141.568 73.9505C141.961 77.6949 142.354 81.4392 142.649 85.1836C143.337 93.8547 143.828 102.624 143.73 111.394C143.73 112.675 143.828 114.449 143.337 115.73C142.747 117.306 143.042 114.252 143.042 113.66C143.042 111.197 143.337 108.832 143.533 106.369C144.025 101.245 144.418 96.121 144.811 90.9972C145.204 85.6762 145.597 80.4539 145.793 75.1329C145.892 72.7681 146.088 70.4032 145.99 67.9398C145.892 67.053 145.99 65.3779 145.204 64.7867C145.007 64.6882 144.811 64.5896 144.712 64.7867C144.025 65.4765 144.123 66.6589 144.025 67.5457C143.828 69.7135 144.025 71.8813 144.221 74.049C144.614 77.7934 145.007 81.5378 145.302 85.2821C145.99 93.9532 146.481 102.723 146.383 111.493C146.383 112.773 146.481 114.547 145.99 115.828C145.4 117.405 145.695 114.35 145.695 113.759C145.695 111.295 145.99 108.931 146.186 106.467C146.678 101.343 147.071 96.2195 147.464 91.0957C147.857 85.7748 148.25 80.5524 148.446 75.2315C148.544 72.8666 148.741 70.5018 148.643 68.0384C148.544 67.1516 148.643 65.4765 147.857 64.8853C147.66 64.7867 147.464 64.6882 147.365 64.8853C146.481 65.7721 146.579 67.7428 146.579 68.8267C146.481 71.1915 146.776 73.5564 147.071 75.9212C147.66 82.2275 148.348 88.5338 148.446 94.84C148.741 107.453 147.169 120.262 143.239 132.284C142.649 130.904 143.435 131.101 143.533 130.608Z" fill="#F4F0EC"/>
</svg>
