<svg width="204" height="291" viewBox="0 0 204 291" fill="none" xmlns="http://www.w3.org/2000/svg">
<g clip-path="url(#clip0_189_301)">
<path d="M74.683 204.931C76.6964 201.168 79.6229 197.965 83.156 195.581C84.9225 194.389 86.8376 193.418 88.8278 192.716C90.8916 191.965 93.0559 191.68 95.1204 191.088C96.2386 190.761 97.221 190.312 98.1411 189.691C98.4136 190.095 98.7229 190.474 98.9954 190.878C99.8249 192.028 100.679 193.215 101.545 194.34C105.048 198.976 108.772 203.463 112.385 208.024C114.154 210.25 115.912 212.537 117.571 214.837C117.695 215.02 117.989 214.822 117.865 214.638C114.622 210.148 111.145 205.869 107.68 201.528C105.985 199.412 104.29 197.297 102.644 195.095C101.802 194.006 100.998 192.893 100.131 191.768C99.5743 191.022 98.9557 190.264 98.4107 189.456C99.0484 188.972 99.6613 188.452 100.212 187.76C101.632 186.054 102.62 184.105 103.928 182.314C106.141 179.164 109.194 176.624 112.594 174.917C116.498 172.924 120.924 172.022 125.294 172.386C123.843 175.395 125.74 178.763 127.498 181.21C128.935 183.18 130.444 185.1 131.954 187.02C133.563 189.087 135.135 191.178 136.743 193.245C138.501 195.532 140.258 197.819 142.016 200.107C135.422 203.273 129.474 207.714 124.577 213.155C123.144 214.763 121.921 216.283 120.686 218.025C120.661 218.041 120.657 218.062 120.674 218.086C120.527 218.345 120.418 218.58 120.333 218.851C120.273 219.158 120.311 219.453 120.349 219.748C120.412 220.079 120.512 220.386 120.575 220.718C120.638 221.049 120.653 221.787 120.653 221.787C120.452 229.029 120.595 236.305 121.574 243.392C122.591 250.773 124.8 257.778 128.214 264.504C128.785 265.668 129.405 266.746 130.013 267.885C130.48 270.402 130.921 272.883 131.523 275.362C131.887 276.933 132.275 278.541 133.389 279.873C133.624 280.142 134.896 281.314 135.605 280.141C135.922 279.66 135.834 279.132 135.82 278.714C135.779 277.94 135.604 277.203 135.367 276.455C134.905 275.057 134.161 273.795 133.393 272.497C132.451 270.942 131.545 269.363 130.702 267.795C130.085 264.738 129.506 261.656 128.926 258.574C128.585 256.72 128.22 254.83 127.88 252.976C129.496 256.8 131.248 260.587 133.319 264.212C133.802 265.008 134.224 265.792 134.744 266.563C135.397 269.435 135.988 272.296 136.948 275.068C137.397 276.368 137.748 278 139.266 278.9C139.5 279.009 139.907 279.215 140.398 278.991C140.963 278.717 140.961 278.237 140.984 277.954C141.279 274.977 139.262 272.544 137.714 270.17C136.896 268.958 136.115 267.722 135.372 266.461C134.757 263.883 134.143 261.306 133.528 258.728C132.989 256.421 132.462 254.051 131.922 251.744C133.525 255.151 135.238 258.483 137.196 261.703C137.902 262.829 138.609 263.956 139.352 265.057C140.227 268.26 140.931 271.525 142.359 274.515C142.67 275.214 143.079 275.9 143.66 276.523C143.895 276.792 144.242 277.306 144.919 277.276C146.358 277.267 146.043 275.609 146.005 275.315C145.586 272.392 143.607 270.094 141.96 267.732C141.279 266.802 140.61 265.811 139.966 264.856C139.367 262.857 138.804 260.832 138.241 258.807C137.453 255.973 136.666 253.138 135.903 250.341C137.466 253.293 139.128 256.232 140.999 259.084C141.94 260.479 142.943 261.886 143.921 263.257C143.934 263.355 143.983 263.428 143.996 263.527C144.582 265.268 145.156 267.072 145.779 268.788C146.377 270.469 146.914 272.137 147.966 273.617C148.189 273.948 149.169 275.798 150.52 275.1C151.797 274.452 150.903 272.651 150.79 272.246C149.917 269.523 147.815 267.361 146.095 265.049C145.562 264.34 145.055 263.667 144.523 262.958C144.012 261.486 143.537 259.989 143.038 258.456C141.978 255.217 140.943 252.016 139.882 248.777C141.345 251.263 142.82 253.687 144.492 256.086C145.718 257.823 147.042 259.548 148.378 261.211C148.565 261.726 148.764 262.179 148.951 262.694C149.611 264.387 150.234 266.103 150.955 267.807C151.614 269.34 152.261 270.933 153.521 272.167C153.707 272.362 155.066 273.582 155.836 272.422C156.19 271.915 155.979 271.364 155.891 270.995C155.715 270.259 155.466 269.572 155.143 268.935C153.902 266.46 151.776 264.421 149.97 262.221C149.611 261.768 149.277 261.352 148.882 260.925C148.521 259.993 148.172 258.999 147.811 258.068C146.416 254.413 145.022 250.759 143.64 247.044C144.941 249.051 146.278 251.034 147.726 252.942C149.298 255.033 150.944 257.075 152.7 259.043C153.073 259.913 153.471 260.82 153.844 261.691C154.577 263.333 155.237 265.025 156.105 266.63C156.8 267.977 157.459 269.51 159.099 270.273C159.333 270.382 159.715 270.552 160.207 270.327C160.71 270.041 160.757 269.635 160.781 269.352C160.848 267.864 160.006 266.616 159.262 265.515C157.714 263.3 155.602 261.359 153.772 259.282C153.586 259.086 153.462 258.903 153.277 258.707C153.053 258.217 152.854 257.763 152.692 257.285C150.877 253.167 149.136 248.999 147.358 244.855C148.51 246.483 149.637 248.073 150.862 249.651C152.656 251.913 154.561 254.101 156.539 256.239C156.699 256.398 156.835 256.52 156.959 256.704C157.543 257.966 158.189 259.24 158.809 260.478C159.616 262.07 160.325 263.676 161.316 265.145C161.761 265.805 162.244 266.441 162.874 266.978C163.232 267.271 163.641 267.797 164.354 267.743C165.744 267.66 165.38 266.089 165.305 265.819C164.917 264.371 164.1 263.159 163.16 262.084C161.379 260.079 159.366 258.286 157.511 256.331C155.301 251.785 153.09 247.239 150.917 242.668C151.981 244.087 153.107 245.518 154.245 246.887C156.002 249.014 157.881 251.006 159.859 252.984C160.291 253.387 160.687 253.814 161.119 254.217C162.012 255.859 162.906 257.5 163.762 259.166C164.507 260.587 165.055 262.194 165.984 263.491C166.442 264.09 166.937 264.665 167.627 265.053C167.886 265.199 168.306 265.504 168.908 265.205C169.767 264.732 169.726 263.798 169.29 262.756C169.451 262.914 169.637 263.11 169.834 263.244C170.056 263.414 170.489 263.817 171.078 263.58C172.491 263.054 171.659 261.265 171.584 260.995C170.985 259.315 169.909 257.957 168.832 256.6C167.706 255.169 166.482 253.751 165.319 252.345C165.109 252.113 164.935 251.856 164.725 251.624C164.663 251.452 164.601 251.281 164.538 251.109C162.66 246.499 160.413 242.138 157.946 237.925C158.502 238.512 159.022 239.123 159.578 239.709C162.076 242.458 164.61 245.183 167.071 247.957C167.417 248.311 167.751 248.727 168.098 249.081C168.52 250.025 168.943 250.969 169.328 251.937C170.497 254.622 171.396 257.542 173.521 259.581C173.768 259.788 174.906 261.157 175.899 260.167C176.34 259.709 176.19 259.169 176.151 258.875C176.025 258.052 175.677 257.378 175.293 256.729C173.52 253.704 170.925 251.288 168.613 248.734C166.463 244.04 164.007 239.606 161.257 235.371C161.467 235.603 161.689 235.774 161.899 236.006C164.495 238.582 167.078 241.22 169.674 243.797C170.415 244.579 171.169 245.299 171.911 246.081C172.507 247.282 173.103 248.483 173.637 249.671C174.879 252.306 175.913 255.188 178.443 256.794C178.727 256.977 180.083 257.558 180.422 256.314C180.628 255.587 180.293 255.012 180.094 254.558C179.759 253.823 179.288 253.125 178.805 252.489C176.924 250.018 174.601 247.846 172.377 245.66C170.303 241.555 167.936 237.65 165.372 233.93C165.075 233.489 164.741 233.073 164.444 232.633C168.187 236.038 171.869 239.431 175.539 242.885C176.345 244.318 177.114 245.776 177.872 247.295C178.542 248.606 179.212 249.917 180.103 251.079C180.87 252.057 181.738 253.342 183.24 253.664C183.486 253.712 183.868 253.722 184.26 253.35C184.701 252.892 184.539 252.414 184.501 252.119C184.161 250.425 182.987 249.24 181.924 248.141C180.044 246.15 178.006 244.319 176.004 242.464C174.008 238.949 171.889 235.57 169.512 232.365C168.881 231.509 168.212 230.678 167.581 229.821C171.447 233.09 175.288 236.322 179.117 239.616C180.158 241.318 181.163 243.044 182.142 244.734C182.911 246.032 183.716 247.305 184.73 248.331C185.212 248.808 185.755 249.296 186.397 249.611C186.68 249.794 187.186 250.147 187.776 249.909C189.164 249.347 188.184 247.657 188.072 247.412C187.254 245.88 186.043 244.721 184.82 243.622C183.078 242.073 181.336 240.523 179.52 239.023C177.55 235.865 175.469 232.781 173.119 229.932C172.265 228.905 171.411 227.878 170.558 226.851C174.533 229.886 178.472 232.945 182.374 236.029C183.712 238.012 184.976 240.044 186.314 242.027C187.156 243.275 188.084 244.412 189.318 245.289C189.627 245.508 190.998 246.827 191.978 245.738C192.382 245.305 192.245 244.864 192.17 244.594C192.006 243.796 191.573 243.233 191.14 242.671C190.063 241.313 188.68 240.216 187.359 239.131C185.889 237.985 184.395 236.803 182.926 235.657C180.944 232.72 178.815 229.882 176.49 227.23C175.476 226.044 174.425 224.883 173.362 223.784C177.521 226.694 181.619 229.593 185.742 232.528C187.327 234.718 188.764 237.007 190.435 239.086C191.338 240.186 192.388 241.187 193.671 241.818C193.905 241.927 195.52 242.654 195.797 241.238C195.929 240.561 195.545 240.072 195.359 239.717C194.925 238.994 194.369 238.408 193.838 237.858C192.577 236.625 191.108 235.639 189.652 234.592C188.479 233.727 187.269 232.886 186.06 232.046C184.092 229.367 182.074 226.774 179.788 224.417C178.539 223.122 177.291 221.827 176.005 220.558C180.262 223.295 184.532 225.971 188.752 228.734C190.621 231.106 192.343 233.738 194.431 235.801C195.371 236.717 196.458 237.693 197.911 237.942C198.157 237.989 198.625 238.048 199.004 237.578C199.383 237.108 199.246 236.667 199.196 236.434C198.696 234.74 197.339 233.84 196.178 232.913C194.733 231.804 193.191 230.868 191.723 229.882C190.871 229.334 189.995 228.75 189.143 228.203C188.686 227.603 188.191 227.029 187.696 226.454C185.284 223.594 182.737 220.931 179.958 218.478C174.474 213.684 168.059 210.051 161.438 206.984C159.884 206.269 158.294 205.579 156.704 204.889C155.348 204.308 154.016 203.604 152.574 203.134C151.847 202.93 151.071 202.812 150.381 202.583C149.63 202.342 148.964 201.99 148.31 201.577C147.347 200.944 146.519 200.113 145.642 199.369L145.617 199.333C144.888 198.649 144.245 197.854 143.528 197.109C143.587 196.642 143.327 196.176 143.116 195.784C141.802 193.679 140.39 191.586 139.052 189.443C135.966 184.473 133.003 179.366 129.843 174.446C129.038 173.172 128.195 171.924 127.378 170.713C126.734 169.758 126.175 168.692 125.201 168.121C124.769 167.878 124.325 167.696 123.894 167.453C123.203 167.065 122.843 166.452 122.385 165.853C121.506 164.63 120.664 163.381 119.785 162.158C112.975 152.541 106.017 143.023 98.9493 133.58C91.9062 124.173 84.7279 114.804 77.464 105.546C74.0115 101.144 70.6326 96.6917 67.0208 92.45C64.3985 89.3572 61.2461 86.0344 57.1687 84.9921C54.2492 84.237 50.8428 84.6654 48.2284 86.1088C45.5036 87.6267 43.9409 90.3908 43.7577 93.4531C43.6566 95.6051 44.1089 97.7042 44.7332 99.7407C45.4948 102.219 46.4899 104.646 47.6203 107.036C49.9425 111.827 52.756 116.394 55.5078 120.949C61.6188 131.038 67.9018 141.064 74.2704 150.979C80.6638 160.931 87.1428 170.771 93.7938 180.549L96.3206 184.294C97.039 185.359 97.0808 186.453 97.3936 187.631C97.5564 188.269 97.8296 188.833 98.2012 189.384C97.686 189.731 97.1092 190.067 96.4828 190.329C94.3702 191.167 92.0948 191.367 89.9199 192.033C87.9169 192.636 85.989 193.509 84.2098 194.603C80.1849 197.052 76.8167 200.553 74.5959 204.723C74.2895 204.983 74.6101 205.141 74.683 204.931ZM133.103 273.655C133.835 274.978 134.505 276.289 134.856 277.761C135.007 278.461 135.157 279.161 135.038 279.936C135.014 280.059 134.868 280.478 134.868 280.478C134.573 280.517 134.164 279.991 134.115 279.918C132.854 278.525 132.501 276.732 132.1 275.026C131.698 273.32 131.395 271.601 131.031 269.87C131.676 271.144 132.359 272.394 133.103 273.655ZM137.299 270.984C138.08 272.22 138.922 273.469 139.494 274.792C139.768 275.516 140.005 276.264 140.168 277.062C140.194 277.259 140.458 278.683 140.041 278.858C139.623 279.033 138.644 277.503 138.57 277.393C138.111 276.633 137.788 275.836 137.501 275.015C136.903 273.335 136.514 271.567 136.088 269.824C135.975 269.419 135.875 268.953 135.762 268.548C136.246 269.344 136.754 270.176 137.299 270.984ZM145.27 276.131C145.296 276.327 145.334 276.622 145.126 276.869C144.967 277.03 145.139 276.968 144.929 276.895C144.72 276.823 144.584 276.701 144.473 276.616C143.781 276.067 143.384 275.32 143.012 274.609C142.205 273.017 141.681 271.287 141.181 269.594C140.906 268.71 140.644 267.765 140.369 266.882C140.691 267.359 141.038 267.873 141.397 268.326C143.068 270.724 145.257 273.095 145.27 276.131ZM185.48 240.078C184.948 239.208 184.403 238.401 183.833 237.556C184.166 237.812 184.475 238.031 184.771 238.312C186.179 239.446 187.599 240.518 188.921 241.763C189.539 242.362 190.181 242.997 190.677 243.731C190.751 243.841 191.78 245.445 191.461 245.766C191.143 246.088 189.958 245.285 189.847 245.199C189.193 244.786 188.563 244.249 188.031 243.699C187.067 242.587 186.298 241.289 185.48 240.078ZM191.311 236.892C192.669 237.952 194.089 239.025 194.884 240.679C194.971 240.887 195.194 241.218 195.134 241.525C195.097 241.71 195.171 241.66 194.95 241.65C194.79 241.651 194.666 241.627 194.543 241.603C193.841 241.436 193.249 241.034 192.693 240.607C191.496 239.706 190.543 238.532 189.639 237.272C188.81 236.122 187.955 234.935 187.126 233.785C188.521 234.82 189.928 235.795 191.311 236.892ZM193.295 231.973C194.763 232.959 196.232 233.945 197.443 235.265C197.889 235.766 198.507 236.364 198.584 237.274C198.61 237.47 198.659 237.384 198.548 237.458C198.401 237.558 198.192 237.485 198.13 237.473C197.785 237.439 197.465 237.281 197.169 237.16C195.825 236.517 194.713 235.505 193.748 234.392C192.524 232.974 191.348 231.47 190.209 229.941C191.234 230.586 192.282 231.267 193.295 231.973ZM150.03 272.866C150.18 273.406 150.441 274.031 150.174 274.746C150.101 274.955 150.15 274.869 150.051 274.882C149.854 274.908 149.669 274.712 149.583 274.664C149.213 274.433 148.978 274.164 148.743 273.895C147.604 272.526 147.006 270.846 146.396 269.227C145.873 267.817 145.412 266.418 144.925 264.983C145.049 265.167 145.235 265.362 145.359 265.546C147.141 267.87 149.23 270.093 150.03 272.866ZM154.358 269.358C154.705 270.032 155.004 270.792 155.106 271.578C155.156 271.812 155.17 272.07 155.146 272.353C155.062 272.783 154.988 272.673 154.667 272.516C152.953 271.642 152.367 269.9 151.696 268.429C150.839 266.603 150.117 264.74 149.395 262.876C151.127 264.967 153.166 266.957 154.358 269.358ZM158.366 265.853C158.787 266.477 159.171 267.126 159.457 267.788C159.694 268.376 160.016 269.013 159.933 269.764C159.91 270.047 159.984 270.157 159.652 270.061C159.258 269.953 158.986 269.709 158.739 269.501C158.023 268.916 157.502 268.145 157.044 267.386C155.742 265.219 154.698 262.877 153.752 260.523C155.36 262.271 157.041 263.968 158.366 265.853ZM162.066 262.288C163.067 263.375 163.909 264.623 164.371 266.022C164.471 266.328 164.571 266.635 164.56 267.016C164.573 267.114 164.61 267.249 164.525 267.361C164.427 267.533 164.537 267.459 164.316 267.448C163.392 267.27 162.86 266.56 162.427 265.998C160.509 263.712 159.303 260.892 158.036 258.221C159.408 259.539 160.804 260.894 162.066 262.288ZM143.3 231.618C142.866 230.895 142.469 230.148 142.109 229.376C142.072 229.241 141.289 227.525 141.571 227.388C141.792 227.239 142.844 228.56 142.968 228.743C143.5 229.453 143.971 230.151 144.392 230.934C145.769 233.372 146.913 236.019 148.069 238.606C146.41 236.306 144.751 234.005 143.3 231.618ZM168.034 262.481C168.332 263.082 168.667 263.657 168.719 264.37C168.733 264.628 168.759 264.984 168.266 264.889C167.897 264.818 167.662 264.549 167.415 264.342C166.13 263.232 165.447 261.663 164.751 260.155C164.03 258.611 163.163 257.166 162.368 255.672C163.419 256.673 164.408 257.662 165.311 258.762C166.288 259.973 167.339 261.134 168.034 262.481ZM166.865 259.637C166.605 259.332 166.395 259.099 166.321 258.989C164.848 257.204 163.119 255.593 161.389 253.982C159.888 251.201 158.386 248.421 156.885 245.64C155.979 243.9 155.11 242.136 154.229 240.433C155.107 241.497 156.022 242.536 156.901 243.599C159.288 246.423 161.639 249.272 163.989 252.121L164.014 252.157C164.3 252.819 164.524 253.469 164.81 254.131C165.483 255.921 166.033 257.848 166.865 259.637ZM150.799 235.588C149.661 234.219 148.511 232.911 147.373 231.542C146.259 230.209 145.158 228.815 144.413 227.234C144.276 226.952 144.115 226.634 144.052 226.302C144.039 226.204 143.977 226.032 143.964 225.934C143.963 225.774 143.951 225.836 144.099 225.896C144.839 226.199 145.371 226.908 145.841 227.446C146.979 228.815 147.896 230.333 148.838 231.888C149.706 233.333 150.512 234.766 151.343 236.236C151.195 236.015 150.984 235.783 150.799 235.588ZM170.5 260.818C170.823 261.455 171.281 262.214 171.039 263.125C171.003 263.31 171.077 263.26 170.978 263.273C170.843 263.311 170.671 263.214 170.584 263.165C170.264 263.007 170.017 262.8 169.77 262.593C168.658 261.58 167.914 260.319 167.317 258.958C166.546 257.181 165.911 255.365 165.214 253.538C167.156 255.861 169.208 258.109 170.5 260.818ZM152.599 230.794C153.256 231.847 153.912 232.9 154.544 233.916C154.074 233.378 153.592 232.902 153.123 232.364C151.936 231.081 150.712 229.823 149.562 228.515C148.523 227.293 147.323 225.912 146.836 224.317C146.823 224.219 146.724 224.072 146.748 223.949C146.748 223.789 146.699 223.875 146.822 223.899C147.105 223.922 147.426 224.239 147.624 224.373C148.34 224.958 148.946 225.618 149.478 226.328C150.641 227.734 151.62 229.264 152.599 230.794ZM173.987 256.381C174.482 257.115 174.966 257.911 175.24 258.795C175.315 259.065 175.415 259.371 175.441 259.728C175.456 260.145 175.444 260.207 175.025 260.062C174.335 259.833 173.889 259.332 173.469 258.868C172.937 258.318 172.455 257.682 172.046 256.996C170.868 255.013 170.058 252.781 169.138 250.623C170.881 252.493 172.563 254.35 173.987 256.381ZM177.179 251.984C178.218 253.206 179.478 254.439 179.659 256.294C179.672 256.393 179.722 256.626 179.636 256.737C179.587 256.823 179.661 256.774 179.44 256.763C179.095 256.728 178.873 256.558 178.614 256.412C177.96 255.998 177.428 255.449 176.97 254.849C175.238 252.759 174.23 250.073 173.025 247.573C174.459 249.064 175.843 250.48 177.179 251.984ZM179.976 247.478C181.237 248.711 182.559 249.956 183.354 251.611C183.515 251.929 183.64 252.272 183.728 252.641C183.765 252.776 183.766 252.935 183.767 253.095C183.755 253.317 183.841 253.205 183.669 253.268C183.374 253.307 183.152 253.136 182.979 253.039C182.597 252.869 182.3 252.589 181.967 252.333C179.78 250.442 178.624 247.696 177.247 245.099C177.135 244.854 176.986 244.633 176.85 244.352C177.851 245.439 178.926 246.477 179.976 247.478ZM181.333 242.662C181.048 242.16 180.738 241.621 180.416 241.144C181.157 241.766 181.836 242.376 182.577 242.998C183.887 244.145 185.258 245.304 186.334 246.661C186.878 247.309 187.349 248.007 187.624 248.89C187.637 248.988 187.713 249.578 187.713 249.578C187.517 249.763 186.999 249.472 186.912 249.423C184.089 248.176 182.858 245.16 181.333 242.662ZM97.7666 188.501C97.2945 187.484 97.3511 186.377 97.0142 185.322C96.6277 184.194 95.7374 183.192 95.0933 182.237L90.4609 175.372C87.3148 170.709 84.2055 166.021 81.1578 161.345C75.0504 152.056 69.0654 142.63 63.1788 133.191C60.2167 128.404 57.2794 123.654 54.3541 118.842C51.7261 114.471 49.0613 110.124 46.9981 105.479C45.9916 103.273 45.1571 101.004 44.4946 98.6728C43.9567 96.6849 43.6027 94.5728 43.9502 92.4683C44.4406 89.3057 46.5709 86.9066 49.5682 85.7926C52.6639 84.6656 56.2819 84.789 59.2417 86.3182C63.1267 88.3453 66.0222 92.0018 68.7195 95.3644C75.6486 104.046 82.4426 112.766 89.1877 121.573C95.9576 130.416 102.642 139.37 109.179 148.423C112.472 152.987 115.741 157.513 118.997 162.102C119.802 163.215 120.545 164.316 121.35 165.43C121.944 166.311 122.453 167.303 123.403 167.838C123.835 168.081 124.279 168.262 124.71 168.505C125.376 168.857 125.698 169.335 126.119 169.959L128.473 173.447C131.496 178.086 134.335 182.849 137.21 187.587C138.636 189.938 140.098 192.264 141.585 194.627C142.031 195.288 142.686 196.021 142.924 196.769C142.948 196.806 142.936 196.867 142.961 196.904C142.442 196.453 141.838 196.112 141.138 196.424C140.72 196.599 140.107 196.96 140.355 197.487C140.505 197.867 141.134 198.244 141.491 198.377C142.144 198.631 142.968 198.342 143.26 197.664C144.002 198.446 144.645 199.241 145.399 199.961C145.415 199.986 145.436 199.99 145.46 199.973C146.276 200.705 147.079 201.499 148.017 202.095C148.671 202.509 149.337 202.861 150.088 203.102C150.902 203.354 151.776 203.459 152.552 203.737C154.105 204.292 155.61 205.093 157.114 205.735C158.827 206.449 160.529 207.224 162.193 208.024C168.938 211.274 175.304 215.153 180.704 220.219C183.027 222.392 185.191 224.725 187.257 227.232C182.827 224.397 178.422 221.599 173.98 218.825C173.844 218.703 173.708 218.581 173.609 218.434C170.977 215.883 168.32 213.294 165.394 211.101C164.752 210.626 164.098 210.212 163.407 209.823C162.975 209.58 162.346 209.203 161.756 209.281C160.71 209.399 161.676 210.671 161.886 210.903C164.051 213.556 167.282 215.17 170.095 216.958C171.292 217.7 172.452 218.467 173.649 219.209C173.97 219.526 174.292 219.844 174.638 220.198C176.43 221.981 178.222 223.764 179.928 225.658C181.449 227.356 182.86 229.129 184.295 230.939C180 227.907 175.693 224.936 171.36 221.928C170.854 221.415 170.347 220.903 169.852 220.328C167.355 217.739 164.919 215.001 161.957 212.992C161.365 212.591 160.772 212.189 160.045 211.985C159.836 211.912 159.417 211.768 159.135 212.065C158.523 212.745 160.104 214.136 160.364 214.441C161.551 215.724 162.983 216.735 164.414 217.746C165.846 218.757 167.34 219.779 168.771 220.79C169.5 221.314 170.29 221.85 171.018 222.373L171.067 222.447C172.922 224.401 174.739 226.381 176.471 228.471C178.079 230.378 179.54 232.385 180.989 234.453C177.161 231.479 173.322 228.566 169.42 225.642C169.137 225.459 168.865 225.215 168.581 225.033C167.74 224.104 166.936 223.15 166.12 222.258C164.859 220.865 163.622 219.509 162.312 218.202C161.138 217.018 159.927 215.858 158.496 215.007C158.262 214.898 156.708 214.023 156.7 215.043C156.702 215.523 157.098 215.951 157.345 216.318C157.828 216.954 158.347 217.565 158.916 218.09C160.201 219.36 161.658 220.407 163.077 221.48C164.497 222.552 165.917 223.624 167.3 224.721C167.609 224.941 167.88 225.185 168.214 225.441C169.908 227.396 171.566 229.377 173.175 231.444C174.82 233.486 176.306 235.689 177.719 237.941C174.347 235.087 170.927 232.319 167.518 229.49C166.913 228.99 166.308 228.49 165.727 228.026C164.626 226.632 163.488 225.263 162.35 223.894C161.212 222.525 160.049 221.119 158.764 219.849C158.121 219.214 157.503 218.615 156.812 218.067C156.281 217.677 155.762 217.226 155.122 217.07C154.912 216.998 154.604 216.938 154.396 217.186C154.139 217.519 154.412 217.923 154.524 218.168C155.207 219.577 156.393 220.7 157.529 221.75C160.05 224.057 162.791 226.214 165.397 228.41C166.857 230.256 168.305 232.164 169.692 234.061C171.376 236.397 172.937 238.87 174.4 241.356C174.153 241.149 173.943 240.917 173.671 240.673C170.965 238.17 168.198 235.656 165.455 233.179C164.529 232.362 163.664 231.556 162.737 230.739C161.351 228.842 159.952 227.008 158.517 225.198C157.416 223.804 156.339 222.446 155.078 221.213C154.547 220.664 153.967 220.2 153.349 219.762C153.09 219.616 152.572 219.165 152.129 219.303C151.208 219.604 152.272 221.023 152.409 221.305C153.363 222.798 154.587 224.056 155.859 225.228C157.997 227.205 160.171 229.158 162.308 231.135C163.621 232.921 164.896 234.732 166.098 236.592C167.807 239.126 169.332 241.783 170.747 244.515C168.213 241.95 165.643 239.411 163.072 236.871C161.923 235.723 160.773 234.575 159.587 233.452C158.002 231.102 156.416 228.752 154.745 226.514C153.706 225.132 152.641 223.713 151.332 222.566C151.109 222.395 149.639 220.93 149.15 221.794C148.955 222.139 149.24 222.641 149.352 222.886C149.638 223.548 150.059 224.172 150.492 224.735C151.495 226.142 152.756 227.375 154.016 228.608C155.759 230.318 157.465 232.052 159.232 233.798C160.347 235.451 161.388 237.152 162.491 238.866C164.188 241.621 165.727 244.536 167.094 247.514C164.967 245.156 162.803 242.822 160.665 240.526C159.267 239.01 157.87 237.495 156.461 236.042C154.726 233.152 152.978 230.324 151.022 227.583C150.093 226.287 149.115 224.916 147.758 224.016C147.363 223.748 146.352 223.361 146.455 224.307C146.531 224.897 146.866 225.472 147.151 225.974C147.548 226.721 148.056 227.394 148.538 228.03C149.64 229.424 150.888 230.719 152.1 232.039C153.423 233.444 154.709 234.873 155.995 236.303C156.813 237.675 157.606 239.009 158.388 240.405C160.223 243.602 161.813 246.91 163.28 250.355C161.548 248.264 159.755 246.162 157.986 244.096C156.378 242.189 154.733 240.307 153.125 238.4C153.026 238.253 152.963 238.081 152.864 237.934C151.091 234.75 149.391 231.516 147.249 228.58C146.741 227.907 146.259 227.271 145.665 226.709C145.319 226.355 144.874 225.854 144.295 225.711C143.261 225.447 143.784 227.017 143.896 227.262C145.165 230.413 147.686 232.879 149.875 235.41C150.779 236.51 151.743 237.622 152.646 238.723C153.217 239.727 153.726 240.719 154.259 241.748C155.6 244.37 156.867 247.042 158.269 249.675C158.803 250.704 159.373 251.709 159.932 252.774C158.078 250.98 156.335 249.11 154.64 247.155C152.933 245.101 151.3 242.997 149.666 240.894L149.542 240.71C148.958 239.448 148.35 238.149 147.729 236.911C146.313 233.86 145.092 230.463 142.73 227.995C142.545 227.8 141.396 226.652 141.166 227.661C141.021 228.24 141.344 228.877 141.506 229.356C141.78 230.079 142.152 230.79 142.525 231.5C144.298 234.685 146.563 237.644 148.767 240.592C148.866 240.739 148.965 240.886 149.101 241.008C151.336 245.751 153.536 250.518 155.833 255.273C154.3 253.636 152.816 251.912 151.43 250.176C149.834 248.207 148.36 246.103 146.912 244.035L146.069 242.786C145.299 241.009 144.589 239.243 143.819 237.466C143.147 235.836 142.475 234.205 141.693 232.649C141.296 231.902 140.837 231.143 140.342 230.408C140.02 229.931 139.636 229.442 139.155 229.125C138.957 228.991 138.662 228.871 138.392 229.106C138.086 229.366 138.236 229.906 138.249 230.164C138.539 231.785 139.345 233.218 140.127 234.614C141.764 237.517 143.647 240.307 145.541 243.036C147.568 247.866 149.559 252.721 151.623 257.526C150.423 256.145 149.272 254.677 148.146 253.246C146.116 250.555 144.234 247.765 142.461 244.9C141.577 242.558 140.718 240.253 139.871 237.886C139.273 236.206 138.638 234.55 137.732 232.97C137.373 232.358 137.013 231.746 136.543 231.208C136.358 231.013 136.011 230.499 135.593 230.514C134.646 230.618 135.306 232.47 135.381 232.74C135.881 234.433 136.7 235.964 137.519 237.496C138.933 240.068 140.421 242.59 141.97 245.125C143.739 249.969 145.508 254.813 147.375 259.644C146.484 258.482 145.593 257.32 144.738 256.133C142.559 253.062 140.625 249.879 138.802 246.621C137.891 243.763 136.944 240.929 136.033 238.071C135.484 236.464 134.874 234.846 133.945 233.389C133.771 233.132 132.878 231.491 132.229 232.196C131.91 232.517 132.048 233.119 132.087 233.414C132.189 234.2 132.426 234.948 132.7 235.671C133.298 237.352 134.117 238.883 134.924 240.476C136.016 242.57 137.108 244.665 138.274 246.711C139.858 251.679 141.443 256.647 143.065 261.59C142.409 260.697 141.789 259.779 141.17 258.862C138.878 255.386 136.844 251.736 134.982 248.023C134.093 244.722 133.279 241.372 132.218 238.133C131.744 236.637 131.184 235.091 130.181 233.844C130.033 233.624 129.748 233.282 129.355 233.333C129.023 233.397 128.926 233.73 128.915 233.951C128.819 234.603 128.97 235.303 129.108 235.904C129.296 236.739 129.583 237.561 129.881 238.321C130.516 239.976 131.311 241.631 132.081 243.248C132.876 244.903 133.671 246.557 134.503 248.186C135.879 253.242 137.255 258.298 138.667 263.328C138.222 262.668 137.837 262.019 137.416 261.394C135.037 257.55 133.013 253.519 131.161 249.426C131.074 249.057 130.986 248.689 130.923 248.358C130.132 244.884 129.562 241.261 128.391 237.938C128.129 237.153 127.794 236.417 127.396 235.67C127.21 235.315 126.962 234.788 126.555 234.581C125.593 234.108 125.736 235.828 125.75 236.087C125.893 237.807 126.503 239.425 127.088 241.007C127.748 242.699 128.469 244.403 129.165 246.07C129.675 247.223 130.209 248.412 130.719 249.564C131.849 254.572 132.978 259.58 134.145 264.563C134.158 264.662 134.195 264.796 134.208 264.895C133.997 264.503 133.749 264.136 133.514 263.707C131.083 259.47 129.132 255.069 127.315 250.631C127.164 249.772 126.988 248.876 126.836 248.016C126.509 246.26 126.206 244.541 125.878 242.786C125.575 241.066 125.21 239.336 124.563 237.742C124.414 237.362 123.802 235.264 122.88 235.565C122.536 235.69 122.464 236.059 122.453 236.281C122.345 236.994 122.459 237.719 122.585 238.382C123.167 241.943 124.671 245.363 126.027 248.722C126.276 249.409 126.562 250.071 126.812 250.758C127.632 255.387 128.452 260.016 129.31 264.62C129.398 265.148 129.523 265.651 129.612 266.179C129.14 265.322 128.706 264.44 128.271 263.557C124.894 256.806 122.833 249.702 121.852 242.296C120.986 235.614 120.82 228.78 120.974 221.944C120.949 221.908 120.944 220.789 120.682 220.004C120.571 219.759 120.594 219.476 120.617 219.193C120.653 218.848 120.836 218.565 121.019 218.281C125.25 212.327 130.556 207.411 136.777 203.534C138.593 202.416 140.422 201.396 142.387 200.498C142.46 200.448 142.546 200.337 142.471 200.226C139.415 196.252 136.358 192.277 133.326 188.338C131.828 186.357 130.269 184.363 128.771 182.382C127.707 180.963 126.642 179.544 125.934 177.938C125.187 176.198 124.834 174.245 125.786 172.481C125.835 172.395 125.797 172.26 125.674 172.236C117.981 171.55 110.071 174.749 105.053 180.647C102.702 183.354 101.255 187.163 98.3364 189.346C98.0519 189.003 97.8785 188.746 97.7666 188.501ZM142.938 197.347C142.817 197.802 142.462 198.149 141.896 198.104C141.551 198.069 141.033 197.777 140.798 197.509C140.217 196.885 141.717 196.568 142.074 196.701C142.407 196.797 142.704 197.078 142.938 197.347ZM171.783 217.475C170.587 216.734 169.365 215.955 168.168 215.213C166.663 214.252 165.121 213.316 163.75 212.157C163.12 211.62 162.49 211.083 161.982 210.411C161.883 210.264 161.562 209.946 161.598 209.762C161.61 209.7 161.573 209.725 161.758 209.761C161.918 209.76 162.066 209.82 162.214 209.88C163.89 210.459 165.285 211.655 166.57 212.765C168.385 214.265 170.09 215.839 171.783 217.475ZM169.312 220.639C166.967 219.069 164.561 217.487 162.35 215.719C161.659 215.17 161.004 214.597 160.435 213.912C160.2 213.643 159.941 213.338 159.742 213.044C159.668 212.934 159.284 212.445 159.407 212.309C159.505 212.136 161.084 213.047 161.195 213.133C161.935 213.595 162.626 214.143 163.306 214.754C165.443 216.571 167.408 218.611 169.312 220.639ZM166.606 223.534C164.68 222.108 162.754 220.683 160.877 219.171C159.58 218.122 158.234 217 157.366 215.555C157.317 215.482 157.007 214.943 157.081 214.893C157.154 214.844 157.709 215.111 157.832 215.134C158.621 215.51 159.313 216.059 159.968 216.632C162.376 218.694 164.491 221.114 166.606 223.534ZM163.702 226.294C162.22 225.05 160.676 223.794 159.194 222.55C157.848 221.428 156.575 220.257 155.536 218.874C155.437 218.728 154.52 217.369 154.63 217.295C154.778 217.195 155.259 217.512 155.345 217.56C155.777 217.803 156.172 218.071 156.53 218.364C157.913 219.461 159.063 220.769 160.213 222.076C161.376 223.482 162.576 224.864 163.702 226.294ZM160.761 228.92C159.624 227.87 158.475 226.882 157.338 225.833C156.029 224.686 154.732 223.477 153.618 222.145C153.099 221.534 152.616 220.898 152.281 220.162C152.231 220.089 152.069 219.61 152.069 219.61C152.253 219.486 152.809 219.913 152.92 219.998C154.425 220.959 155.563 222.329 156.64 223.686C157.803 225.092 158.892 226.548 159.981 228.003C160.303 228.321 160.526 228.651 160.761 228.92ZM157.733 231.497C156.929 230.704 156.126 229.91 155.348 229.153C154.087 227.92 152.79 226.711 151.676 225.379C151.132 224.731 150.6 224.021 150.166 223.299C149.968 223.005 149.806 222.687 149.682 222.343C149.644 222.208 149.57 222.098 149.569 221.938C149.544 221.742 149.47 221.791 149.63 221.79C149.913 221.813 150.185 222.057 150.383 222.191C150.777 222.459 151.099 222.776 151.42 223.094C152.063 223.729 152.607 224.377 153.176 225.061C154.302 226.492 155.33 227.936 156.346 229.441C156.816 230.139 157.262 230.8 157.733 231.497ZM144.607 240.46C143.294 238.514 142.018 236.544 140.815 234.523C139.948 233.079 139.006 231.524 138.703 229.805C138.69 229.706 138.614 229.117 138.65 229.092C138.822 229.029 139.206 229.518 139.317 229.604C139.898 230.227 140.369 230.924 140.741 231.635C141.658 233.153 142.268 234.772 142.94 236.402C143.475 237.751 144.072 239.112 144.607 240.46ZM141.133 242.377C140.117 240.712 139.113 238.985 138.17 237.27C137.314 235.764 136.471 234.196 135.934 232.527C135.821 232.123 135.709 231.718 135.633 231.288C135.596 231.153 135.62 231.03 135.607 230.932C135.619 230.87 135.606 230.772 135.618 230.71C135.84 230.721 136.088 231.088 136.187 231.235C136.471 231.577 136.719 231.944 136.967 232.312C137.896 233.768 138.531 235.424 139.141 237.042C139.739 238.723 140.374 240.378 140.947 242.021C141.046 242.168 141.096 242.242 141.133 242.377ZM133.216 232.865C134.256 234.247 134.891 235.903 135.439 237.51C136.013 239.153 136.512 240.846 137.049 242.514C137.211 242.993 137.336 243.496 137.498 243.974C136.767 242.652 136.072 241.304 135.34 239.981C134.521 238.45 133.714 236.857 133.141 235.214C132.879 234.429 132.592 233.607 132.539 232.734C132.526 232.636 132.525 232.476 132.55 232.353C132.586 232.169 132.549 232.193 132.61 232.205C132.857 232.253 133.117 232.718 133.216 232.865ZM133.814 245.499C133.33 244.543 132.907 243.599 132.423 242.644C131.653 241.026 130.883 239.408 130.248 237.753C129.937 236.895 129.65 236.073 129.474 235.177C129.411 234.845 129.348 234.514 129.358 234.132C129.382 234.009 129.345 233.874 129.369 233.751C129.405 233.567 129.38 233.53 129.541 233.689C130.097 234.115 130.407 234.814 130.68 235.378C131.102 236.162 131.389 236.983 131.7 237.842C132.274 239.485 132.675 241.191 133.138 242.909C133.363 243.719 133.601 244.627 133.814 245.499ZM130.092 246.888C129.819 246.324 129.607 245.773 129.334 245.209C128.601 243.566 127.879 241.862 127.281 240.182C126.721 238.637 125.999 236.933 126.115 235.199C126.102 235.101 126.113 234.879 126.187 234.83C126.261 234.78 126.199 234.768 126.335 234.89C126.557 235.061 126.694 235.343 126.842 235.563C127.276 236.285 127.6 237.082 127.886 237.904C128.46 239.547 128.824 241.278 129.189 243.009C129.514 244.286 129.803 245.587 130.092 246.888ZM126.308 248.106C126.245 247.934 126.183 247.762 126.121 247.591C125.461 245.898 124.777 244.17 124.191 242.428C123.592 240.748 122.982 238.969 122.863 237.126C122.824 236.831 122.823 236.512 122.883 236.204C122.87 236.106 122.882 235.884 122.955 235.835L122.992 235.81C123.054 235.822 123.128 235.932 123.153 235.969C123.66 236.482 123.897 237.23 124.183 237.892C124.793 239.51 125.157 241.241 125.46 242.96C125.702 244.668 126.005 246.387 126.308 248.106Z" fill="#634C3D"/>
</g>
<g clip-path="url(#clip1_189_301)">
<path d="M0.5125 276L0.132812 275.497C8.48594 268.517 20.4461 261.663 38.9242 271.095C45.5055 275.183 54.3016 274.742 62.5281 269.963L62.275 263.549C61.6422 263.235 61.0094 262.857 60.3766 262.48L59.9969 262.291C56.9594 260.593 53.4156 258.833 49.8719 259.084C44.2398 259.462 40.3797 268.768 40.3164 268.831L39.6836 270.403L41.2023 185.635L41.7086 186.201C44.493 189.22 49.3023 191.358 53.6688 191.483C56.2633 191.546 58.4148 190.855 59.7437 189.534C59.8703 189.408 60.5031 188.717 60.8828 187.522V187.396C60.25 188.654 59.2375 189.534 57.8453 190.037C53.2891 191.672 46.075 188.716 42.1516 184.943C41.7086 184.503 41.5187 183.749 41.6453 182.554C41.7719 180.416 43.2906 178.655 45.4422 178.152C45.8219 178.089 46.2648 177.963 46.7078 177.9C46.6445 176.706 46.9609 175.699 47.3406 174.442C47.9102 172.492 48.7328 169.788 48.7328 164.569V162.053L48.7961 159.978L49.3023 55.0241L49.2391 52.3829L48.9859 51.6912V50.2449C47.7203 50.6222 46.5812 50.8737 45.7586 50.8737C45.1258 50.8737 44.6828 50.5593 44.5562 50.0562C44.3664 49.4274 44.6828 48.6099 45.1891 48.3583C45.6953 48.1068 46.2016 48.2954 46.518 48.4212L49.0492 49.4903L48.9859 47.1006C47.7836 47.478 46.5812 47.7295 45.7586 47.7295C45.1258 47.7295 44.6828 47.4151 44.5562 46.912C44.3664 46.2831 44.6828 45.4656 45.1891 45.2141C45.6953 44.9626 46.2016 45.1512 46.518 45.277L48.9859 46.2831L48.9227 43.9564C47.657 44.3337 46.4547 44.5853 45.632 44.5853C44.9992 44.5853 44.5563 44.2708 44.4297 43.7678C44.2398 43.1389 44.5563 42.3214 45.0625 42.0699C45.5687 41.8183 46.075 42.007 46.3914 42.1328L48.9227 43.2018L48.8594 40.8122C47.5938 41.1895 46.3914 41.441 45.632 41.441C44.9992 41.441 44.5563 41.1266 44.4297 40.6235C44.2398 39.9947 44.5563 39.1772 45.0625 38.9257C45.5687 38.6741 46.075 38.8628 46.3914 38.9885L48.9227 40.0576L48.8594 37.668C47.5938 38.0453 46.3281 38.2968 45.5055 38.2968C44.8727 38.2968 44.4297 37.9824 44.3031 37.4793C44.1133 36.8505 44.4297 36.033 44.9359 35.7814C45.4422 35.5299 45.9484 35.7186 46.2648 35.8443L48.8594 36.9134L48.7961 34.4609C47.5305 34.8382 46.3281 35.1526 45.5055 35.0897C44.8727 35.0897 44.4297 34.7753 44.3031 34.2722C44.1133 33.6434 44.4297 32.8259 44.9359 32.5743C45.4422 32.3228 45.8852 32.5114 46.2648 32.6372L48.8594 33.7062L48.7961 31.1909C47.5938 31.5682 46.4547 31.8197 45.632 31.7568C44.9992 31.7568 44.5563 31.4424 44.4297 30.9393C44.2398 30.3105 44.5563 29.493 45.0625 29.2415C45.5687 28.9899 46.075 29.1786 46.3914 29.3043L48.7961 30.3105L48.7328 27.858C47.4672 28.2982 46.3281 28.6126 45.632 28.5497C44.9992 28.5497 44.5563 28.2353 44.4297 27.7322C44.2398 27.1034 44.5563 26.2859 45.0625 26.0343C45.5687 25.7828 46.0117 25.9715 46.3914 26.0972L48.7961 27.1034L48.7328 24.4622C47.4672 24.8395 46.3281 25.0911 45.5055 25.0911C44.8727 25.0911 44.4297 24.7767 44.3031 24.2736C44.1133 23.6447 44.4297 22.8272 44.9359 22.5757C45.4422 22.3242 45.8852 22.5128 46.2648 22.6386L48.7328 23.6447L48.6695 21.2551C47.4672 21.6324 46.3281 21.884 45.5055 21.8211C44.8727 21.8211 44.4297 21.5067 44.3031 21.0036C44.1133 20.3747 44.4297 19.5572 44.9359 19.3057C45.4422 19.0542 45.9484 19.2428 46.2648 19.3686L48.7328 20.3747L48.6695 18.048C47.4039 18.4253 46.2016 18.6769 45.3789 18.6769C44.7461 18.6769 44.3031 18.3624 44.1766 17.8594C43.9867 17.2305 44.3031 16.413 44.8094 16.1615C45.3156 15.9099 45.7586 16.0986 46.1383 16.2244L48.6695 17.2934L48.6063 14.9038C47.4039 15.2811 46.1383 15.5326 45.3789 15.5326C44.7461 15.5326 44.3031 15.2182 44.1766 14.7151C43.9867 14.0863 44.3031 13.2688 44.8094 13.0173C45.3156 12.7657 45.8219 12.9544 46.1383 13.0801L48.6063 14.0863L48.543 11.6967C47.2773 12.074 46.075 12.3255 45.1891 12.3255C44.5562 12.3255 44.1133 12.0111 43.9867 11.508C43.7969 10.8792 44.1133 10.0617 44.6195 9.81015C45.1258 9.55861 45.5688 9.74726 45.9484 9.87303L48.543 10.9421L48.4797 8.48958C47.2141 8.86688 46.0117 9.11842 45.1891 9.11842C44.5562 9.11842 44.1133 8.804 43.9867 8.30092C43.7969 7.67208 44.1133 6.85458 44.6195 6.60304C45.1258 6.3515 45.632 6.54016 45.9484 6.66593L48.4797 7.73496L48.4164 5.21958C47.2141 5.534 46.075 5.78554 45.2523 5.78554C44.6195 5.78554 44.1766 5.47112 44.05 4.96804C43.8602 4.3392 44.1766 3.5217 44.6828 3.27016C45.1891 3.01863 45.632 3.20728 46.0117 3.33305L48.4164 4.3392L48.3531 3.33305H48.2898C48.2266 3.33305 48.1 3.27016 47.8469 3.20728C44.8094 2.51555 44.1766 2.20113 44.05 1.82382C43.8602 1.19498 44.1766 0.377477 44.6828 0.125939C45.1891 -0.125599 45.6953 0.0630548 46.0117 0.188824L52.8461 3.01863C53.3523 2.82997 53.6688 2.7042 53.6688 2.7042L55.1242 2.01247C55.5039 1.82382 56.0102 1.57228 56.5164 1.76094C57.0859 1.94959 57.5289 2.57843 57.5289 3.33305C57.5289 4.02478 57.1492 4.71651 56.5797 4.90516C56.5375 4.90516 56.4953 4.92612 56.4531 4.96804H56.5797C57.1492 5.1567 57.5922 5.78554 57.5922 6.54016C57.5922 7.23188 57.2125 7.92361 56.643 8.11227C56.1367 8.30092 55.6305 8.11227 55.2508 7.92361L52.9727 6.98035C52.0867 7.35765 50.8844 7.79785 49.6187 8.23804L52.9094 9.6215C53.4156 9.43284 53.732 9.30707 53.732 9.30707L55.1875 8.61534C55.5672 8.42669 56.0734 8.17515 56.5797 8.36381C57.1492 8.55246 57.5922 9.1813 57.5922 9.93592C57.5922 10.6276 57.2125 11.3194 56.643 11.508C56.6008 11.508 56.5586 11.529 56.5164 11.5709H56.643C57.2125 11.7596 57.6555 12.3884 57.6555 13.143C57.6555 13.8348 57.2758 14.5265 56.7062 14.7151H56.8328C57.4023 14.9038 57.8453 15.5326 57.8453 16.2873C57.8453 16.979 57.4656 17.6707 56.8961 17.8594C56.8539 17.8594 56.8117 17.8803 56.7695 17.9222H56.8961C57.4656 18.1109 57.9086 18.7397 57.9086 19.4944C57.9086 20.1861 57.5289 20.8778 56.9594 21.0665H57.0227C57.5922 21.2551 58.0352 21.884 58.0352 22.6386C58.0352 23.3303 57.6555 24.022 57.0859 24.2107C57.0438 24.2107 57.0016 24.2317 56.9594 24.2736H57.0859C57.6555 24.4622 58.0984 25.0911 58.0984 25.8457C58.0984 26.5374 57.7188 27.2291 57.1492 27.4178C56.643 27.6065 56.1367 27.4178 55.757 27.2292L53.4789 26.2859C52.593 26.6632 51.3906 27.1663 50.125 27.6693L53.6055 29.1157C54.1117 28.927 54.4281 28.8013 54.4281 28.8013L55.8836 28.1095C56.2633 27.9209 56.7695 27.6693 57.2758 27.858C57.8453 28.0466 58.2883 28.6755 58.2883 29.4301C58.2883 30.1218 57.9086 30.8136 57.3391 31.0022C57.2969 31.0022 57.2547 31.0232 57.2125 31.0651H57.3391C57.9086 31.2538 58.3516 31.8826 58.3516 32.6372C58.3516 33.3289 57.9719 34.0207 57.4023 34.2093C56.8961 34.398 56.3898 34.2093 56.0102 34.0207L53.732 33.0774C52.8461 33.4547 51.6437 33.8949 50.3781 34.3351L53.6688 35.7186C54.175 35.5299 54.4914 35.4041 54.4914 35.4041L55.9469 34.7124C56.3266 34.5238 56.8328 34.2722 57.3391 34.4609C57.9086 34.6495 58.3516 35.2784 58.3516 36.033C58.3516 36.7247 57.9719 37.4164 57.4023 37.6051C57.3602 37.6051 57.318 37.6261 57.2758 37.668H57.4023C57.9719 37.8566 58.4148 38.4855 58.4148 39.2401C58.4148 39.9318 58.0352 40.6235 57.4656 40.8122H57.5922C58.1617 41.0009 58.6047 41.6297 58.6047 42.3843C58.6047 43.076 58.225 43.7678 57.6555 43.9564C57.6133 43.9564 57.5711 43.9774 57.5289 44.0193H57.6555C58.225 44.208 58.668 44.8368 58.668 45.5914C58.668 46.2831 58.2883 46.9749 57.7188 47.1635H57.782C58.3516 47.3522 58.7945 47.981 58.7945 48.7356C58.7945 49.4274 58.4148 50.1191 57.8453 50.3078C57.8031 50.3078 57.7609 50.3287 57.7188 50.3706H57.8453C58.4148 50.5593 58.8578 51.1881 58.8578 51.9427C58.8578 52.6345 58.4781 53.3262 57.9086 53.5149C57.4023 53.7035 56.8961 53.5149 56.5164 53.3262L54.3648 52.4458L52.7828 53.2633V56.5962C52.7828 56.7849 52.9094 77.6625 52.9094 78.9202V151.363L52.9727 153.501C52.9727 160.796 53.0359 168.216 53.1625 175.322V176.58C53.7953 177.02 54.7445 177.46 55.6938 177.963C56.7063 178.466 57.782 178.969 58.4781 179.535C61.1359 181.611 62.5281 183.874 62.6547 186.138C62.718 186.767 62.5914 187.396 62.4648 187.962C62.5914 194.502 62.4648 200.413 62.4016 206.135C62.275 212.864 62.2117 219.215 62.4648 226.007L63.857 263.549C66.325 264.87 68.9195 265.939 71.3875 265.876C75.1844 265.813 78.475 262.983 80.5633 258.015L81.1328 258.267C78.918 263.423 75.3742 266.442 71.3875 266.505C68.8562 266.567 66.325 265.498 63.857 264.241L64.1102 270.718L63.9203 270.844C55.4406 275.874 46.3281 276.315 39.557 272.101C20.4461 262.417 8.73906 269.083 0.5125 276ZM41.8352 187.207L40.443 267.196C41.7719 264.492 45.1891 258.707 49.8719 258.392C53.6055 258.141 57.2125 259.965 60.3133 261.725L60.693 261.914C61.1992 262.228 61.7055 262.48 62.275 262.794L60.8828 225.63C60.6297 218.838 60.7563 212.487 60.8195 205.758C60.8828 200.476 61.0094 195.068 60.8828 189.094C60.693 189.471 60.4398 189.786 60.1867 190.037C58.7313 191.483 56.4531 192.238 53.6688 192.175C49.4289 191.986 44.7461 190.037 41.8352 187.207ZM46.7711 178.592C46.3281 178.655 45.9484 178.718 45.5688 178.781C43.7336 179.158 42.3414 180.73 42.2781 182.554C42.2148 183.874 42.468 184.315 42.5945 184.44C46.8344 188.528 53.732 190.792 57.6555 189.408C59.5539 188.717 60.5664 187.333 60.8195 185.132H61.0094C60.693 183.246 59.3641 181.359 57.1492 179.535C56.5164 179.032 55.5039 178.529 54.4914 178.089C53.4789 177.586 52.4031 177.083 51.7703 176.58L51.6437 176.517V174.945C51.5805 167.776 51.4539 160.356 51.4539 153.061L51.3906 150.923V78.5429C51.3906 77.2852 51.2641 56.4075 51.2641 56.2189V52.4458L52.7195 51.6912L49.6187 50.4335V51.6912L49.8719 52.3829L49.9352 55.087L49.4289 160.041L49.3656 162.116V164.632C49.3656 169.914 48.543 172.681 47.9734 174.693C47.5938 175.951 47.3406 176.831 47.4039 177.9C49.1125 177.775 50.9477 177.9 52.0867 178.969C53.5422 180.29 53.732 181.988 53.0992 182.931C52.593 183.749 51.707 183.937 50.6945 183.56C49.3023 182.994 48.0367 182.491 47.1508 179.913C46.9609 179.472 46.8344 178.969 46.7711 178.592ZM47.4039 178.466C47.4672 178.844 47.5937 179.284 47.7203 179.724C48.4797 181.988 49.5555 182.428 50.8844 182.931C51.6437 183.246 52.2133 183.057 52.5297 182.554C52.9727 181.799 52.8461 180.479 51.5805 179.41C50.568 178.529 48.9227 178.341 47.4039 178.466ZM54.1117 51.6283L55.8203 52.3201C56.2 52.5087 56.5164 52.5716 56.7695 52.5087C57.0227 52.4458 57.2758 52.0056 57.2758 51.5654C57.2758 51.0624 57.0227 50.6851 56.7695 50.6222C56.5164 50.5593 56.2 50.6851 55.8203 50.8737L54.1117 51.6283ZM49.9984 49.9304L53.3523 51.3139L54.175 50.8737L55.5039 50.2449C55.757 50.1191 56.0102 49.9933 56.2633 49.9304C56.0102 49.8676 55.757 49.8047 55.5672 49.6789L53.2258 48.7356C52.4031 49.1129 51.2641 49.5531 49.9984 49.9304ZM45.5688 48.8614C45.5055 48.8614 45.4422 48.8614 45.3789 48.9243C45.1891 49.0501 44.9359 49.4903 45.0625 49.9304C45.1258 50.182 45.3156 50.3078 45.6953 50.3078C46.3281 50.3078 47.2141 50.1191 48.1633 49.8676L46.2016 49.0501C45.9484 48.9243 45.7586 48.8614 45.5688 48.8614ZM49.4922 47.2264L49.5555 49.4274C50.568 49.1129 51.5805 48.7356 52.4031 48.4212L49.4922 47.2264ZM54.0484 48.4212L55.757 49.1129C56.1367 49.3016 56.4531 49.3645 56.7062 49.3016C56.9594 49.2387 57.2125 48.7985 57.2125 48.3583C57.2125 47.8553 56.9594 47.478 56.7062 47.4151C56.4531 47.3522 56.1367 47.478 55.757 47.6666L54.3016 48.3583C54.3016 48.3583 54.175 48.3583 54.0484 48.4212ZM49.9984 46.7233L53.2258 48.0439C53.732 47.8553 54.0484 47.7295 54.0484 47.7295L55.5039 47.0378C55.6937 46.9749 55.8836 46.8491 56.1367 46.7862C55.8836 46.7233 55.6305 46.6605 55.4406 46.5347L53.0992 45.5914C52.2766 45.9687 51.1375 46.346 49.9984 46.7233ZM45.5688 45.6543C45.5055 45.6543 45.4422 45.6543 45.3789 45.7172C45.1891 45.843 44.9359 46.2831 45.0625 46.7233C45.1258 46.9749 45.3156 47.1006 45.6953 47.1006C46.3281 47.1006 47.2141 46.9749 48.1633 46.6604L46.2016 45.843C45.8852 45.7172 45.6953 45.6543 45.5688 45.6543ZM49.4289 44.0822L49.4922 46.2203C50.5047 45.9058 51.4539 45.5285 52.2766 45.2141L49.4289 44.0822ZM53.9219 45.277L55.6305 45.9687C56.0102 46.0945 56.3266 46.2203 56.5797 46.1574C56.8328 46.0945 57.0859 45.6543 57.0859 45.2141C57.0859 44.711 56.8328 44.3337 56.5797 44.2708C56.3266 44.208 56.0102 44.3337 55.6305 44.5224L54.3016 45.1512C54.2383 45.1512 54.1117 45.2141 53.9219 45.277ZM49.8719 43.5791L53.0992 44.8997C53.6687 44.6482 54.0484 44.5224 54.0484 44.5224L55.3773 43.8935C55.6305 43.7678 55.8836 43.642 56.1367 43.5791C55.8836 43.5162 55.6305 43.4533 55.4406 43.3276L53.0992 42.3843C52.2766 42.7616 51.0742 43.2018 49.8719 43.5791ZM45.3789 42.5101C45.3156 42.5101 45.2523 42.5101 45.1891 42.573C44.9992 42.6987 44.7461 43.1389 44.8727 43.5791C44.9359 43.8307 45.1258 43.9564 45.5055 43.9564C46.1383 43.9564 47.0242 43.7678 47.9734 43.5162L46.0117 42.6987C45.7586 42.573 45.5687 42.5101 45.3789 42.5101ZM49.3656 40.8751L49.4289 43.076C50.4414 42.7616 51.4539 42.3843 52.2133 42.0699L49.3656 40.8751ZM53.9219 42.1328L55.6305 42.8245C56.0102 42.9503 56.3266 43.076 56.5797 43.0132C56.8328 42.9503 57.0859 42.5101 57.0859 42.0699C57.0859 41.5668 56.8328 41.1895 56.5797 41.1266C56.3266 41.0637 56.0102 41.1895 55.6305 41.3782L54.175 42.0699C54.1117 42.007 54.0484 42.0699 53.9219 42.1328ZM49.8086 40.4349L53.0359 41.7555C53.5422 41.5668 53.8586 41.441 53.8586 41.441L55.3141 40.7493C55.5039 40.6864 55.6937 40.5607 55.9469 40.4978C55.6937 40.4349 55.4406 40.372 55.2508 40.2462L52.9094 39.303C52.0867 39.6174 50.9477 40.0576 49.8086 40.4349ZM45.3789 39.303C45.3156 39.303 45.2523 39.303 45.1891 39.3659C44.9992 39.4916 44.7461 39.9318 44.8727 40.372C44.9359 40.6235 45.1258 40.7493 45.5055 40.7493C46.1383 40.7493 47.0242 40.5607 47.9734 40.3091L46.0117 39.4916C45.7586 39.4287 45.5687 39.303 45.3789 39.303ZM49.3023 37.7937L49.3656 39.8689C50.3148 39.5545 51.2641 39.1772 52.0867 38.9257L49.3023 37.7937ZM53.732 38.9257L55.4406 39.6174C55.8203 39.7432 56.1367 39.8689 56.3898 39.806C56.643 39.7432 56.8961 39.303 56.8961 38.8628C56.8961 38.3597 56.643 37.9824 56.3898 37.9195C56.1367 37.8566 55.8203 37.9824 55.4406 38.1711L54.175 38.7999C54.1117 38.7999 53.9219 38.8628 53.732 38.9257ZM49.6187 37.2907L52.8461 38.6112C53.4156 38.3597 53.7953 38.2339 53.8586 38.2339L55.1242 37.6051C55.3773 37.4793 55.6305 37.3535 55.8836 37.2907C55.6305 37.2278 55.3773 37.1649 55.1875 37.0391L52.8461 36.0959C52.0234 36.4103 50.8844 36.8505 49.6187 37.2907ZM45.1891 36.1587C45.1258 36.1587 45.0625 36.1587 44.9992 36.2216C44.8094 36.3474 44.5563 36.7876 44.6828 37.2278C44.7461 37.4793 44.9359 37.6051 45.3156 37.6051C45.9484 37.6051 46.8344 37.4164 47.7836 37.1649L45.8219 36.3474C45.5687 36.2845 45.3789 36.1587 45.1891 36.1587ZM49.2391 34.5866L49.3023 36.7247C50.3148 36.4103 51.2641 36.033 52.0234 35.7814L49.2391 34.5866ZM53.6688 35.7814L55.3773 36.4732C55.757 36.5989 56.0734 36.7247 56.3266 36.6618C56.5797 36.5989 56.8328 36.1587 56.8328 35.7186C56.8328 35.2155 56.5797 34.8382 56.3266 34.7753C56.0734 34.7124 55.757 34.8382 55.3773 35.0268L53.9219 35.7186C53.9219 35.6557 53.7953 35.7186 53.6688 35.7814ZM45.1891 33.0145C45.1258 33.0145 45.0625 33.0145 44.9992 33.0774C44.8094 33.2032 44.5563 33.6434 44.6828 34.0836C44.7461 34.3351 44.9359 34.4609 45.3156 34.4609C45.9484 34.4609 46.7711 34.2722 47.7836 34.0207L45.7586 33.1403C45.5055 33.0774 45.3156 33.0145 45.1891 33.0145ZM49.1758 31.1909L49.2391 33.5176C50.3148 33.1403 51.3273 32.763 52.15 32.4486L49.1758 31.1909ZM53.7953 32.4486L55.5039 33.1403C55.8836 33.2661 56.2 33.3918 56.4531 33.3289C56.7062 33.2661 56.9594 32.8259 56.9594 32.3857C56.9594 31.8826 56.7062 31.5053 56.4531 31.4424C56.2 31.3795 55.8836 31.5053 55.5039 31.6939L54.1117 32.3857C54.0484 32.3228 53.9219 32.3857 53.7953 32.4486ZM49.682 30.7507L52.9094 32.0713C53.4156 31.8826 53.732 31.6939 53.7953 31.6939L55.1875 31.0022C55.4406 30.8764 55.6937 30.7507 55.9469 30.6878C55.6937 30.6249 55.4406 30.562 55.2508 30.4363L52.9094 29.493C52.0867 29.9332 50.9477 30.3734 49.682 30.7507ZM45.2523 29.6816C45.1891 29.6816 45.1258 29.6816 45.0625 29.7445C44.8727 29.8703 44.6195 30.3105 44.7461 30.7507C44.8094 31.0022 44.9992 31.128 45.3789 31.128C46.0117 31.128 46.8977 30.9393 47.8469 30.6878L45.8852 29.8703C45.632 29.7445 45.4422 29.6816 45.2523 29.6816ZM49.0492 28.0466L49.1125 30.3105C50.1883 29.9961 51.2008 29.6188 52.0234 29.3043L49.0492 28.0466ZM53.732 29.2415L55.4406 29.9332C55.8203 30.059 56.1367 30.1847 56.3898 30.1218C56.643 30.059 56.8961 29.6188 56.8961 29.1786C56.8961 28.6755 56.643 28.2982 56.3898 28.2353C56.1367 28.1724 55.8203 28.2982 55.4406 28.4868L53.9852 29.1786C53.9852 29.1786 53.8586 29.2415 53.732 29.2415ZM45.2523 26.4745C45.1891 26.4745 45.1258 26.4745 45.0625 26.5374C44.8727 26.6632 44.6195 27.1034 44.7461 27.5436C44.8094 27.7951 44.9992 27.9209 45.3789 27.9209C45.8852 27.9209 46.7711 27.7322 47.657 27.4178L45.8219 26.6632C45.5687 26.5374 45.3789 26.4745 45.2523 26.4745ZM48.9859 24.588L49.0492 26.9776C50.0617 26.6003 51.1375 26.1601 51.9602 25.8457L48.9859 24.588ZM53.5422 25.7828L55.2508 26.4745C55.6305 26.6003 55.9469 26.7261 56.2 26.6632C56.4531 26.6003 56.7062 26.1601 56.7062 25.7199C56.7062 25.2168 56.4531 24.8395 56.2 24.7767C55.9469 24.7138 55.6305 24.8395 55.2508 25.0282L53.9219 25.657C53.9219 25.5942 53.7953 25.657 53.5422 25.7828ZM49.4922 24.0849L52.7828 25.4684C53.3523 25.2168 53.6688 25.0911 53.6688 25.0911L54.9977 24.4622C55.2508 24.3365 55.5039 24.2107 55.757 24.1478C55.5039 24.0849 55.2508 24.022 55.0609 23.8963L52.7195 22.953C51.8969 23.2045 50.6945 23.6447 49.4922 24.0849ZM45.0625 23.0159C44.9992 23.0159 44.9359 23.0159 44.8727 23.0788C44.6828 23.2045 44.4297 23.6447 44.5562 24.0849C44.6195 24.3365 44.8094 24.4622 45.1891 24.4622C45.8219 24.4622 46.7078 24.2736 47.657 24.022L45.6953 23.2045C45.3789 23.0788 45.1891 23.0159 45.0625 23.0159ZM48.9227 21.3809L48.9859 23.5819C49.9984 23.2674 51.0109 22.8901 51.8336 22.5757L48.9227 21.3809ZM53.5422 22.5757L55.2508 23.2674C55.6305 23.4561 55.9469 23.519 56.2 23.4561C56.4531 23.3932 56.7062 22.953 56.7062 22.5128C56.7062 22.0097 56.4531 21.6324 56.2 21.5695C55.9469 21.5067 55.6305 21.6324 55.2508 21.8211L53.7953 22.5128C53.732 22.5128 53.6688 22.5128 53.5422 22.5757ZM49.4289 20.8778L52.6562 22.1984C53.1625 22.0097 53.4789 21.884 53.4789 21.884L54.9344 21.1922C55.1242 21.1294 55.3141 21.0036 55.5672 20.9407C55.3141 20.8778 55.0609 20.8149 54.8711 20.6892L52.5297 19.7459C51.707 20.0603 50.6313 20.5005 49.4289 20.8778ZM44.9992 19.8088C44.9359 19.8088 44.8727 19.8088 44.8094 19.8717C44.6195 19.9974 44.3664 20.4376 44.493 20.8778C44.5562 21.1294 44.7461 21.2551 45.1258 21.2551C45.7586 21.2551 46.6445 21.0665 47.5938 20.8149L45.632 19.9974C45.3789 19.8717 45.1891 19.8088 44.9992 19.8088ZM48.8594 18.2367L48.9227 20.3747C49.9352 20.0603 50.8844 19.683 51.707 19.3686L48.8594 18.2367ZM53.3523 19.4315L55.0609 20.1232C55.4406 20.3119 55.757 20.3747 56.0102 20.3119C56.2633 20.249 56.5164 19.8088 56.5164 19.3686C56.5164 18.8655 56.2633 18.4882 56.0102 18.4253C55.757 18.3624 55.4406 18.4882 55.0609 18.6769L53.732 19.3057C53.732 19.3057 53.6055 19.3686 53.3523 19.4315ZM49.3023 17.7336L52.5297 19.0542C53.0992 18.8026 53.4789 18.6769 53.4789 18.6769L54.8078 18.048C55.0609 17.9222 55.3141 17.7965 55.5672 17.7336C55.3141 17.6707 55.0609 17.6078 54.8711 17.4821L52.5297 16.5388C51.707 16.9161 50.5047 17.3563 49.3023 17.7336ZM44.8727 16.6646C44.8094 16.6646 44.7461 16.6646 44.6828 16.7274C44.493 16.8532 44.2398 17.2934 44.3664 17.7336C44.4297 17.9851 44.6195 18.1109 44.9992 18.1109C45.632 18.1109 46.518 17.9222 47.4672 17.6707L45.5055 16.8532C45.2523 16.7274 45.0625 16.6646 44.8727 16.6646ZM48.7961 15.0296L48.8594 17.2305C49.8719 16.9161 50.8844 16.5388 51.707 16.2244L48.7961 15.0296ZM53.3523 16.2244L55.0609 16.9161C55.4406 17.1047 55.757 17.1676 56.0102 17.1047C56.2633 17.0419 56.5164 16.6017 56.5164 16.1615C56.5164 15.6584 56.2633 15.2811 56.0102 15.2182C55.757 15.1553 55.4406 15.2811 55.0609 15.4698L53.6055 16.1615C53.5422 16.1615 53.4789 16.1615 53.3523 16.2244ZM49.2391 14.5265L52.4664 15.8471C52.9727 15.6584 53.2891 15.5326 53.2891 15.5326L54.7445 14.8409C54.9344 14.778 55.1242 14.6523 55.3773 14.5894C55.1242 14.5265 54.8711 14.4636 54.6812 14.3378L52.3398 13.3946C51.5172 13.7719 50.4414 14.1492 49.2391 14.5265ZM44.8094 13.4574C44.7461 13.4574 44.6828 13.4574 44.6195 13.5203C44.4297 13.6461 44.1766 14.0863 44.3031 14.5265C44.3664 14.778 44.5563 14.9038 44.9359 14.9038C45.5688 14.9038 46.4547 14.7151 47.4039 14.4636L45.4422 13.6461C45.1891 13.5203 44.9992 13.4574 44.8094 13.4574ZM48.7328 11.9482L48.7961 14.0863C49.7453 13.7719 50.7578 13.3946 51.5172 13.143L48.7328 11.9482ZM53.1625 13.0801L54.8711 13.7719C55.2508 13.9605 55.5672 14.0234 55.8203 13.9605C56.0734 13.8976 56.3266 13.4574 56.3266 13.0173C56.3266 12.5142 56.0734 12.1369 55.8203 12.074C55.5672 12.0111 55.2508 12.1369 54.8711 12.3255L53.6055 12.9544C53.5422 12.9544 53.4156 13.0173 53.1625 13.0801ZM49.1125 11.3823L52.3398 12.7028C52.9094 12.4513 53.2891 12.3255 53.3523 12.3255L54.618 11.6967C54.8711 11.5709 55.1242 11.4451 55.3773 11.3823C55.1242 11.3194 54.8711 11.2565 54.6812 11.1307L52.3398 10.1875C51.5172 10.5648 50.3148 11.005 49.1125 11.3823ZM44.6828 10.3132C44.6195 10.3132 44.5562 10.3132 44.493 10.3761C44.3031 10.5019 44.05 10.9421 44.1766 11.3823C44.2398 11.6338 44.4297 11.7596 44.8094 11.7596C45.4422 11.7596 46.3281 11.5709 47.2773 11.3194L45.3156 10.5019C44.9992 10.3761 44.8094 10.3132 44.6828 10.3132ZM48.6695 8.74111L48.7328 10.8792C49.7453 10.5648 50.6945 10.1875 51.5172 9.87303L48.6695 8.74111ZM53.1625 9.87303L54.8711 10.5648C55.2508 10.7534 55.5672 10.8163 55.8203 10.7534C56.0734 10.6905 56.3266 10.2503 56.3266 9.81015C56.3266 9.30707 56.0734 8.92977 55.8203 8.86688C55.5672 8.804 55.2508 8.92977 54.8711 9.11842L53.4156 9.81015C53.3523 9.81015 53.2891 9.87303 53.1625 9.87303ZM44.6195 7.10612C44.5563 7.10612 44.493 7.10612 44.4297 7.169C44.2398 7.29477 43.9867 7.73496 44.1133 8.17515C44.1766 8.42669 44.3664 8.55246 44.7461 8.55246C45.3789 8.55246 46.2016 8.36381 47.2141 8.11227L45.2523 7.29477C44.9992 7.169 44.8094 7.10612 44.6195 7.10612ZM48.6063 5.34535L48.6695 7.67208C49.7453 7.29477 50.7578 6.91746 51.6437 6.60304L48.6063 5.34535ZM53.2258 6.60304L54.9344 7.29477C55.3141 7.48342 55.6305 7.54631 55.8836 7.48342C56.1367 7.42054 56.3898 6.98035 56.3898 6.54016C56.3898 6.03708 56.1367 5.65977 55.8836 5.59689C55.6305 5.534 55.3141 5.65977 54.9344 5.84843L53.5422 6.54016C53.4789 6.47727 53.4156 6.54016 53.2258 6.60304ZM49.1758 4.90516L52.4031 6.22573C52.9094 6.03708 53.2258 5.84843 53.2891 5.84843L54.6812 5.1567C54.9344 5.03093 55.1875 4.90516 55.4406 4.84228C55.1875 4.77939 54.9344 4.71651 54.7445 4.59074L52.4031 3.64747C51.5805 4.08766 50.3781 4.52785 49.1758 4.90516ZM44.7461 3.83612C44.6828 3.83612 44.6195 3.83612 44.5562 3.89901C44.3664 4.02478 44.1133 4.46497 44.2398 4.90516C44.3031 5.1567 44.493 5.28247 44.8727 5.28247C45.5055 5.28247 46.3914 5.09381 47.3406 4.84228L45.3789 4.02478C45.0625 3.89901 44.8727 3.83612 44.7461 3.83612ZM47.9102 2.7042H48.543L48.6063 4.40208C49.682 4.08766 50.7578 3.71035 51.5805 3.33305L45.3156 0.754784C44.9992 0.629015 44.7461 0.503246 44.5562 0.629015C44.3664 0.754784 44.1133 1.19498 44.2398 1.63517C44.3664 1.76094 44.9992 2.01247 47.5938 2.57843C47.7203 2.7042 47.8469 2.7042 47.9102 2.7042ZM53.2258 3.39593L54.9344 4.08766C55.3141 4.21343 55.6305 4.3392 55.8836 4.27632C56.1367 4.21343 56.3898 3.77324 56.3898 3.33305C56.3898 2.82997 56.1367 2.45267 55.8836 2.38978C55.6305 2.3269 55.3141 2.45267 54.9344 2.64132L53.4789 3.33305C53.4156 3.33305 53.3523 3.33305 53.2258 3.39593Z" fill="#634C3D"/>
</g>
<defs>
<clipPath id="clip0_189_301">
<rect width="86" height="216" fill="white" transform="translate(203.234 242.055) rotate(145.992)"/>
</clipPath>
<clipPath id="clip1_189_301">
<rect width="81" height="276" fill="white" transform="translate(0.132812)"/>
</clipPath>
</defs>
</svg>
