<svg width="552" height="280" viewBox="0 0 552 280" fill="none" xmlns="http://www.w3.org/2000/svg">
<g clip-path="url(#clip0_184_387)">
<path d="M462.034 57.913C479.079 57.9642 495.403 53.5186 510.924 46.9157C514.446 45.4596 517.908 43.8132 521.43 42.3571C523.112 41.7074 525.208 40.7134 526.979 40.6653C528.213 40.581 526.85 40.9172 526.31 41.1972C525.39 41.6004 524.343 41.9393 523.392 42.2474C515.37 44.7402 507.132 46.567 499.02 48.4582C494.616 49.464 490.211 50.4699 485.712 51.5065C483.557 51.994 481.402 52.4816 479.245 53.2853C478.484 53.5318 477.533 53.8399 477.052 54.6263C476.987 54.7523 476.954 54.9733 477.111 55.1328C478.619 56.221 482.111 54.6697 483.633 54.1767C487.629 52.8828 491.563 51.3985 495.433 50.0403C501.174 47.9707 506.855 45.7108 512.378 43.2914C515.235 42.051 518.061 40.7154 520.948 39.57C522.154 39.0744 525.075 37.708 526.337 38.035C527.031 38.2307 525.353 38.5642 524.908 38.8134C523.987 39.2166 522.941 39.5555 521.989 39.8636C514.157 42.2947 506.015 44.0908 497.998 45.9511C493.403 47.0186 488.904 48.0552 484.278 49.0276C482.219 49.4843 477.313 49.9166 476.094 51.9933C476.029 52.1193 475.996 52.3404 476.153 52.4998C477.661 53.588 481.153 52.0367 482.675 51.5437C486.671 50.2498 490.605 48.7655 494.475 47.4073C500.217 45.3377 505.897 43.0778 511.42 40.6585C514.277 39.418 517.103 38.0824 519.99 36.937C521.196 36.4414 524.117 35.075 525.38 35.402C526.074 35.5977 524.395 35.9312 523.95 36.1804C523.029 36.5836 521.983 36.9225 521.031 37.2306C513.2 39.6617 505.057 41.4578 497.04 43.3181C492.445 44.3856 487.946 45.4222 483.32 46.3946C481.261 46.8513 476.356 47.2836 475.136 49.3603C475.072 49.4863 475.038 49.7074 475.195 49.8668C476.704 50.955 480.196 49.4037 481.718 48.9108C485.713 47.6168 489.647 46.1326 493.517 44.7743C499.259 42.7047 504.939 40.4448 510.462 38.0255C513.319 36.785 516.145 35.4494 519.033 34.304C520.239 33.8084 523.16 32.442 524.422 32.769C525.116 32.9647 523.437 33.2982 522.992 33.5474C522.072 33.9506 521.025 34.2895 520.074 34.5976C512.242 37.0287 504.099 38.8248 496.082 40.6851C491.488 41.7526 486.988 42.7893 482.363 43.7616C480.303 44.2183 475.398 44.6506 474.178 46.7273C474.114 46.8533 474.08 47.0744 474.237 47.2338C475.746 48.322 479.238 46.7707 480.76 46.2778C484.756 44.9838 488.69 43.4996 492.559 42.1413C498.301 40.0717 503.981 37.8118 509.504 35.3925C512.361 34.152 515.187 32.8164 518.075 31.671C519.281 31.1754 522.202 29.809 523.464 30.136C524.158 30.3317 522.479 30.6652 522.034 30.9144C521.114 31.3176 520.067 31.6565 519.116 31.9646C511.284 34.3957 503.141 36.1918 495.124 38.0521C490.53 39.1196 486.03 40.1563 481.405 41.1286C479.345 41.5853 474.44 42.0176 473.22 44.0943C473.156 44.2203 473.123 44.4414 473.279 44.6008C474.788 45.689 478.28 44.1377 479.802 43.6448C483.798 42.3508 487.732 40.8666 491.602 39.5083C497.343 37.4387 503.023 35.1788 508.547 32.7595C511.403 31.519 514.229 30.1834 517.117 29.038C518.323 28.5424 521.244 27.176 522.506 27.503C523.2 27.6987 521.521 28.0322 521.077 28.2814C520.156 28.6846 519.109 29.0235 518.158 29.3316C510.326 31.7628 502.183 33.5588 494.167 35.4191C489.572 36.4866 485.073 37.5233 480.447 38.4956C478.388 38.9523 473.482 39.3846 472.263 41.4614C472.198 41.5873 472.165 41.8084 472.322 41.9678C473.83 43.056 477.322 41.5047 478.844 41.0118C482.84 39.7178 486.774 38.2336 490.644 36.8753C496.386 34.8057 502.066 32.5458 507.589 30.1265C510.446 28.886 513.272 27.5504 516.159 26.405C517.365 25.9094 520.286 24.543 521.548 24.87C522.243 25.0657 520.564 25.3992 520.119 25.6484C519.198 26.0516 518.152 26.3905 517.2 26.6986C509.368 29.1298 501.226 30.9258 493.209 32.7861C488.614 33.8536 484.115 34.8903 479.489 35.8626C477.43 36.3193 472.524 36.7516 471.305 38.8284C471.241 38.9543 471.207 39.1754 471.364 39.3348C472.998 40.4873 476.65 38.7793 478.267 38.2555C482.073 37.0232 485.911 35.5698 489.686 34.2423C495.618 32.1111 501.519 29.8847 507.42 27.6584C510.339 26.6082 513.26 25.2417 516.178 24.1915C516.844 23.9759 520.652 22.4273 521.123 22.9057C521.153 23.0008 516.206 24.6029 515.636 24.7877C508.22 26.5584 500.839 28.1079 493.424 29.8786C488.829 30.946 484.139 32.0443 479.575 33.2069C477.452 33.7896 475.202 34.3079 473.075 35.2068C472.345 35.5484 470.887 35.9154 470.627 36.7354C470.594 36.9564 470.56 37.1775 470.781 37.211C471.663 37.6613 472.774 37.1965 473.661 37.0144C476.006 36.4652 478.227 35.5355 480.575 34.6702C485.429 32.7827 490.315 30.9904 495.2 29.1981C500.276 27.3441 505.287 25.6162 510.394 23.8573C512.772 23.0871 515.058 22.0315 517.342 21.2921C518.103 21.0456 521.905 20.1295 519.398 21.1516C518.383 21.5856 517.336 21.9245 516.259 22.1683C508.936 24.2243 501.434 25.0771 494.083 26.7218C489.298 27.8509 484.513 28.98 479.664 30.235C477.319 30.7842 474.879 31.3641 472.658 32.2938C471.801 32.5711 470.089 33.1256 469.765 34.0716C469.731 34.2926 469.697 34.5137 469.919 34.5472C470.8 34.9975 471.911 34.5327 472.798 34.3506C475.143 33.8014 477.365 32.8717 479.712 32.0064C484.567 30.1189 489.452 28.3266 494.338 26.5343C499.413 24.6803 504.425 22.9524 509.531 21.1935C511.91 20.4233 514.257 19.558 516.571 18.9137C517.363 18.7624 521.135 17.7511 518.659 18.8683C517.643 19.3024 516.597 19.6413 515.519 19.885C508.261 21.8151 500.602 22.5085 493.251 24.1532C488.466 25.2823 483.681 26.4113 478.832 27.6664C476.487 28.2155 474.047 28.7954 471.826 29.7251C470.969 30.0024 469.257 30.557 468.933 31.5029C468.899 31.724 468.866 31.9451 469.087 31.9786C469.968 32.4289 471.079 31.964 471.966 31.7819C474.311 31.2327 476.533 30.3031 478.88 29.4377C483.735 27.5503 488.62 25.7579 493.506 23.9656C498.582 22.1117 503.593 20.3837 508.699 18.6249C511.078 17.8547 513.425 16.9893 515.74 16.345C516.531 16.1937 520.303 15.1824 517.827 16.2997C516.811 16.7337 515.765 17.0726 514.688 17.3164C507.429 19.2465 499.77 19.9398 492.419 21.5845C487.634 22.7136 482.85 23.8427 478 25.0977C475.656 25.6468 473.215 26.2268 470.994 27.1565C470.138 27.4337 468.425 27.9883 468.101 28.9342C468.067 29.1553 468.034 29.3764 468.255 29.4099C469.136 29.8602 470.247 29.3954 471.134 29.2132C473.479 28.6641 475.701 27.7344 478.048 26.869C482.903 24.9816 487.789 23.1893 492.674 21.3969C497.75 19.543 502.761 17.815 507.868 16.0562C510.246 15.286 512.594 14.4206 514.908 13.7764C515.7 13.625 519.471 12.6138 516.995 13.731C515.98 14.165 514.933 14.5039 513.856 14.7477C506.597 16.6778 498.938 17.3711 491.588 19.0158C486.803 20.1449 482.018 21.274 477.169 22.529C474.824 23.0782 472.384 23.6581 470.162 24.5878C469.306 24.8651 467.593 25.4196 467.269 26.3656C467.235 26.5866 467.202 26.8077 467.423 26.8412C468.305 27.2915 469.415 26.8267 470.303 26.6445C472.647 26.0954 474.869 25.1657 477.217 24.3004C482.071 22.4129 486.957 20.6206 491.842 18.8283C496.918 16.9743 501.929 15.2463 507.036 13.4875C509.414 12.7173 511.762 11.852 514.076 11.2077C514.868 11.0564 518.64 10.0451 516.163 11.1623C515.148 11.5964 514.101 11.9353 513.024 12.179C505.765 14.1091 498.107 14.8025 490.756 16.4472C485.971 17.5763 481.186 18.7053 476.337 19.9604C473.992 20.5095 471.552 21.0894 469.33 22.0191C468.474 22.2964 466.762 22.851 466.437 23.7969C466.404 24.018 466.37 24.2391 466.591 24.2726C467.473 24.7229 468.584 24.258 469.471 24.0759C471.816 23.5267 474.037 22.5971 476.385 21.7317C481.239 19.8443 486.125 18.0519 491.01 16.2596C496.086 14.4057 501.097 12.6777 506.204 10.9189C508.582 10.1487 510.93 9.28331 513.244 8.63904C514.036 8.4877 517.808 7.47644 515.332 8.59368C514.316 9.02771 513.269 9.3666 512.192 9.61036C504.934 11.5405 497.275 12.2338 489.924 13.8785C485.139 15.0076 480.354 16.1367 475.505 17.3917C473.16 17.9408 470.72 18.5208 468.498 19.4505C467.642 19.7277 465.93 20.2823 465.605 21.2282C465.572 21.4493 465.538 21.6704 465.759 21.7039C466.641 22.1542 467.752 21.6894 468.639 21.5072C470.984 20.9581 473.205 20.0284 475.553 19.163C480.408 17.2756 485.293 15.4833 490.178 13.6909C495.254 11.837 500.266 10.109 505.372 8.35021C507.751 7.57999 510.098 6.71464 512.412 6.07037C513.204 5.91903 516.976 4.90777 514.5 6.02501C513.484 6.45904 512.438 6.79794 511.36 7.0417C504.102 8.9718 496.443 9.66514 489.092 11.3098C484.307 12.4389 479.522 13.568 474.673 14.823C472.328 15.3722 469.888 15.9521 467.667 16.8818C466.81 17.1591 465.098 17.7136 464.774 18.6596C464.74 18.8806 464.706 19.1017 464.928 19.1352C465.935 19.6499 467.617 19.0002 468.599 18.7872C471.61 18.0224 474.436 16.6868 477.354 15.6366C483.16 13.4411 489.061 11.2147 494.929 9.20943C500.48 7.20145 506.16 4.94158 512.022 3.56874C512.624 3.47902 514.426 3.52609 514.714 3.11745C514.491 3.40014 513.349 3.76985 512.968 3.89308C511.858 4.35792 510.685 4.63249 509.513 4.90706C506.566 5.54591 503.558 5.99449 500.581 6.53821C488.165 8.77198 475.996 11.7668 464.502 17.1709C453.167 22.4182 442.084 27.7942 430.377 32.2161C406.423 41.3399 381.976 48.9415 357.775 57.3042C333.289 65.7593 308.707 74.2452 284.252 82.7955C235.025 99.8933 185.672 116.927 136.445 134.025C109.136 143.499 81.7034 152.593 54.6405 162.829C43.5042 167.066 32.3987 171.398 21.7299 176.429C18.0785 178.138 14.3936 180.067 11.0222 182.315C9.55894 183.314 7.11081 184.843 6.90429 186.802C6.19768 191.76 20.1864 190.489 22.3691 190.413C27.5572 190.204 32.6918 188.857 37.6978 187.761C43.907 186.486 50.1805 185.085 56.3589 183.715C69.1914 180.821 81.8363 177.672 94.5456 174.397C144.845 161.261 194.534 145.591 244.249 130.648C294.249 115.612 344.153 100.607 394.153 85.5715C406.137 82.0058 418.528 79.0445 429.924 73.9874C438.59 70.2352 448.032 64.3392 451.433 55.0393C453.762 48.9242 451.574 38.596 443.542 38.4639C440.791 38.4087 437.84 39.68 436.049 41.9416C434.259 44.2032 434.523 46.6405 435.45 49.1784C439.93 61.392 452.607 61.9117 463.664 63.2714C469.697 64.0505 476.075 65.2436 480.719 69.521C489.004 76.9288 489.682 90.0585 490.701 100.345C491.784 110.506 493.337 121.145 500.352 129.174C500.666 129.493 501.144 129.023 500.8 128.608C492.909 119.496 492.191 107.22 490.898 95.7612C489.992 87.1201 488.685 77.2423 482.734 70.5502C475.154 62.0733 462.844 63.0114 452.582 61.1841C447.214 60.1894 441.95 58.2153 438.605 53.7276C436.76 51.2768 434.582 47.147 435.683 44.0573C436.978 40.5897 441.516 38.6996 444.925 39.4878C450.48 40.7371 452.441 48.0906 451.261 52.8874C450.146 57.5581 446.918 61.5467 443.443 64.7742C434.902 72.4805 423.424 75.9873 412.676 79.1524C366.418 93.0816 320.159 107.011 273.9 120.94C228.022 134.746 182.141 148.868 136.078 162.103C112.999 168.736 89.8277 175.084 66.5049 180.64C54.9065 183.45 43.3108 185.944 31.6534 188.247C25.3182 189.458 19.0502 190.226 12.6053 189.475C11.2788 189.274 7.64364 189.085 7.43884 187.154C7.29566 185.413 10.1887 183.636 11.3974 182.824C18.7137 177.827 27.1862 174.452 35.2473 171.106C56.0983 162.462 77.5401 154.992 98.8225 147.68C139.675 133.609 180.401 119.475 221.222 105.309C266.77 89.508 312.348 73.802 357.8 58.0317C380.098 50.2852 402.581 43.1095 424.756 34.9824C435.383 31.1205 445.982 26.8472 456.175 21.9696C467.098 16.7504 477.764 12.035 489.615 9.35363C495.287 8.04241 500.987 7.14254 506.751 6.11673C508.651 5.81677 510.615 5.39087 512.423 4.8055C513.47 4.46661 515.148 4.13313 515.663 3.12558C515.727 2.99963 515.761 2.77855 515.604 2.61909C514.096 1.53095 510.699 3.05141 509.177 3.54435C505.055 4.77398 501.121 6.25822 497.061 7.67813C489.321 10.3947 481.613 13.2064 473.965 16.2084C472.189 16.8889 470.507 17.5386 468.699 18.124C467.938 18.3704 466.637 18.8969 465.943 18.7012C465.596 18.6034 465.627 18.6985 465.658 18.7936C465.627 18.6985 467.563 17.8612 467.849 17.7688C471.562 16.2511 475.742 15.5279 479.64 14.581C485.883 13.0849 492.126 11.5888 498.492 10.4733C501.975 9.87067 505.364 9.29886 508.848 8.69623C510.843 8.36547 515.432 7.93044 516.461 5.91532C516.526 5.78938 516.559 5.5683 516.402 5.40884C514.894 4.32069 511.497 5.84116 509.975 6.3341C505.853 7.56373 501.919 9.04797 497.859 10.4679C490.12 13.1845 482.411 15.9962 474.764 18.9982C472.987 19.6787 471.305 20.3284 469.498 20.9137C468.737 21.1602 467.436 21.6866 466.742 21.491C466.395 21.3931 466.425 21.4882 466.456 21.5834C466.425 21.4882 468.362 20.651 468.647 20.5586C472.36 19.0408 476.541 18.3177 480.438 17.3707C486.681 15.8746 492.924 14.3786 499.29 13.263C502.774 12.6604 506.162 12.0886 509.646 11.486C511.641 11.1552 516.23 10.7202 517.26 8.70507C517.324 8.57913 517.358 8.35805 517.201 8.19858C515.692 7.11044 512.295 8.63091 510.773 9.12384C506.652 10.3535 502.717 11.8377 498.657 13.2576C490.918 15.9742 483.209 18.7859 475.562 21.7879C473.785 22.4684 472.104 23.1181 470.296 23.7035C469.535 23.9499 468.234 24.4764 467.54 24.2807C467.193 24.1829 467.224 24.278 467.254 24.3731C467.224 24.278 469.16 23.4407 469.445 23.3483C473.158 21.8306 477.339 21.1074 481.237 20.1605C487.479 18.6644 493.722 17.1683 500.088 16.0528C503.572 15.4502 506.961 14.8784 510.444 14.2757C512.44 13.945 517.029 13.5099 518.058 11.4948C518.122 11.3689 518.156 11.1478 517.999 10.9883C516.49 9.90019 513.094 11.4207 511.571 11.9136C507.45 13.1432 503.516 14.6275 499.456 16.0474C491.716 18.764 484.007 21.5757 476.36 24.5777C474.584 25.2582 472.902 25.9079 471.094 26.4932C470.333 26.7397 469.032 27.2661 468.338 27.0704C467.991 26.9726 468.022 27.0677 468.053 27.1629C468.022 27.0677 469.958 26.2305 470.244 26.1381C473.957 24.6203 478.137 23.8972 482.035 22.9502C488.278 21.4541 494.521 19.9581 500.886 18.8425C504.37 18.2399 507.759 17.6681 511.243 17.0655C513.238 16.7347 517.827 16.2997 518.856 14.2846C518.921 14.1586 518.954 13.9375 518.797 13.7781C517.289 12.6899 513.892 14.2104 512.37 14.7033C508.248 15.933 504.314 17.4172 500.254 18.8371C492.515 21.5537 484.806 24.3654 477.159 27.3674C475.382 28.0479 473.7 28.6976 471.893 29.283C471.132 29.5294 469.831 30.0559 469.136 29.8602C468.789 29.7624 468.82 29.8575 468.851 29.9526C468.82 29.8575 470.757 29.0202 471.042 28.9278C474.755 27.4101 478.935 26.6869 482.833 25.74C489.076 24.2439 495.319 22.7478 501.685 21.6323C505.169 21.0297 508.557 20.4578 512.041 19.8552C514.036 19.5245 518.625 19.0894 519.655 17.0743C519.719 16.9484 519.752 16.7273 519.596 16.5678C518.087 15.4797 514.69 17.0001 513.168 17.4931C509.046 18.7227 505.112 20.207 501.052 21.6269C493.313 24.3434 485.604 27.1552 477.957 30.1572C476.18 30.8377 474.499 31.4873 472.691 32.0727C471.93 32.3192 470.629 32.8456 469.935 32.6499C469.588 32.5521 469.619 32.6472 469.649 32.7424C469.619 32.6472 471.555 31.81 471.84 31.7176C475.553 30.1998 479.734 29.4767 483.632 28.5297C489.874 27.0336 496.117 25.5376 502.483 24.422C505.967 23.8194 509.356 23.2476 512.839 22.645C514.835 22.3142 519.424 21.8792 520.453 19.8641C520.517 19.7381 520.551 19.517 520.394 19.3576C518.885 18.2694 515.489 19.7899 513.966 20.2828C509.845 21.5125 505.911 22.9967 501.851 24.4166C494.111 27.1332 486.402 29.9449 478.755 32.9469C476.979 33.6274 475.297 34.2771 473.489 34.8625C472.728 35.1089 471.427 35.6354 470.733 35.4397C470.386 35.3418 470.417 35.437 470.448 35.5321C470.417 35.437 472.353 34.5997 472.639 34.5073C476.352 32.9896 480.532 32.2664 484.43 31.3195C490.673 29.8234 496.915 28.3273 503.281 27.2118C506.765 26.6092 510.185 26.1325 513.576 25.2444C515.51 24.7234 520.099 24.2884 521.159 22.3684C521.223 22.2425 521.257 22.0214 521.1 21.8619C520.409 21.35 519.457 21.6581 518.635 21.7143C516.228 22.0732 514.068 23.1931 511.816 24.0277C507.09 25.6632 502.268 27.3296 497.542 28.9652C492.942 30.6651 488.312 32.2698 483.742 34.0649C481.395 34.9302 479.078 35.8907 476.635 36.7869C475.494 37.1566 474.352 37.5263 473.275 37.77C472.578 37.8905 470.642 38.7278 472.041 37.8543C473.949 36.6057 476.546 36.1852 478.764 35.5718C481.269 34.8659 483.804 34.2551 486.339 33.6444C490.237 32.6974 494.071 31.8764 497.968 30.9295C502.974 29.8339 507.98 28.7384 513.051 27.5169C515.395 26.9677 517.771 26.5137 519.993 25.5841C520.723 25.2424 521.8 24.9987 522.03 24.0836C522.094 23.9576 522.032 23.7673 521.78 23.6387C519.323 22.5424 514.874 25.0342 512.653 25.9639C509.13 27.42 505.577 28.781 501.992 30.0469C493.713 33.0435 485.492 36.5465 476.963 39.0982C475.727 39.4987 474.045 40.1484 472.654 40.0732C470.947 39.9954 473.989 39.3257 474.56 39.1409C476.938 38.3706 479.314 37.9166 481.754 37.3367C486.855 36.2103 491.925 34.9888 496.995 33.7673C502.256 32.4842 507.421 31.2319 512.62 29.7585C514.934 29.1142 517.279 28.5651 519.627 27.6997C520.452 27.3273 522.1 26.8987 522.425 25.9528C522.458 25.7317 522.492 25.5106 522.271 25.4771C521.389 25.0268 520.278 25.4916 519.391 25.6738C517.237 26.1613 515.205 27.0294 513.174 27.8974C509.682 29.4487 506.19 31 502.667 32.4561C494.511 35.8332 486.198 39.0509 477.7 41.6977C476.463 42.0982 474.782 42.7479 473.391 42.6727C471.684 42.5948 474.725 41.9252 475.296 41.7403C477.675 40.9701 480.05 40.5161 482.49 39.9362C487.591 38.8098 492.662 37.5883 497.732 36.3668C502.993 35.0837 508.158 33.8314 513.357 32.358C515.671 31.7137 518.016 31.1646 520.364 30.2992C521.189 29.9268 522.837 29.4982 523.161 28.5522C523.195 28.3312 523.228 28.1101 523.007 28.0766C522.126 27.6263 521.015 28.0911 520.128 28.2732C517.973 28.7608 515.942 29.6288 513.911 30.4969C510.419 32.0482 506.927 33.5994 503.404 35.0556C495.248 38.4327 486.935 41.6503 478.437 44.2972C477.2 44.6977 475.518 45.3474 474.127 45.2722C472.42 45.1943 475.462 44.5247 476.033 44.3398C478.411 43.5696 480.787 43.1156 483.227 42.5357C488.328 41.4093 493.398 40.1878 498.469 38.9663C503.729 37.6831 508.895 36.4308 514.094 34.9574C516.408 34.3132 518.753 33.764 521.1 32.8987C521.926 32.5263 523.574 32.0976 523.898 31.1517C523.932 30.9306 523.965 30.7096 523.744 30.676C522.862 30.2257 521.752 30.6906 520.865 30.8727C518.71 31.3602 516.679 32.2283 514.647 33.0964C511.155 34.6476 507.663 36.1989 504.141 37.655C495.984 41.0322 487.671 44.2498 479.173 46.8966C477.937 47.2972 476.255 47.9468 474.864 47.8717C473.157 47.7938 476.199 47.1241 476.77 46.9393C479.148 46.1691 481.524 45.7151 483.964 45.1351C489.065 44.0088 494.135 42.7873 499.205 41.5657C504.466 40.2826 509.631 39.0303 514.83 37.5569C517.144 36.9126 519.489 36.3635 521.837 35.4981C522.662 35.1257 524.31 34.6971 524.635 33.7512C524.668 33.5301 524.702 33.309 524.481 33.2755C523.599 32.8252 522.488 33.2901 521.601 33.4722C519.447 33.9597 517.415 34.8278 515.384 35.6958C511.892 37.2471 508.4 38.7984 504.877 40.2545C496.721 43.6316 488.408 46.8493 479.91 49.4961C478.673 49.8966 476.992 50.5463 475.601 50.4712C473.894 50.3933 476.935 49.7236 477.506 49.5388C479.885 48.7686 482.26 48.3145 484.7 47.7346C489.802 46.6082 494.872 45.3867 499.942 44.1652C505.203 42.8821 510.368 41.6298 515.567 40.1564C517.881 39.5121 520.226 38.963 522.574 38.0976C523.399 37.7252 525.047 37.2966 525.371 36.3507C525.405 36.1296 525.439 35.9085 525.217 35.875C524.336 35.4247 523.225 35.8895 522.338 36.0717C520.183 36.5592 518.152 37.4273 516.121 38.2953C512.629 39.8466 509.137 41.3979 505.614 42.854C497.458 46.2311 489.145 49.4488 480.647 52.0956C479.41 52.4961 477.728 53.1458 476.338 53.0706C474.631 52.9928 477.672 52.3231 478.243 52.1382C480.621 51.368 482.997 50.914 485.437 50.3341C490.538 49.2077 495.609 47.9862 500.679 46.7647C505.939 45.4816 511.105 44.2293 516.304 42.7559C518.618 42.1116 520.963 41.5625 523.31 40.6971C524.136 40.3247 525.784 39.8961 526.108 38.9501C526.142 38.7291 526.175 38.508 525.954 38.4745C525.073 38.0242 523.962 38.489 523.075 38.6712C520.92 39.1587 518.889 40.0267 516.857 40.8948C513.365 42.4461 509.873 43.9973 506.351 45.4535C498.194 48.8306 489.881 52.0482 481.383 54.6951C480.147 55.0956 478.465 55.7453 477.074 55.6701C475.367 55.5922 478.409 54.9226 478.98 54.7377C481.358 53.9675 483.734 53.5135 486.174 52.9336C491.275 51.8072 496.345 50.5857 501.416 49.3642C506.676 48.0811 511.842 46.8287 517.04 45.3553C519.355 44.7111 521.699 44.1619 524.047 43.2966C524.872 42.9242 526.521 42.4956 526.845 41.5496C526.878 41.3285 526.912 41.1075 526.691 41.0739C525.557 40.495 523.685 41.2063 522.639 41.5452C520.325 42.1895 518.134 43.2143 515.943 44.2391C510.039 46.7817 504.166 49.4194 498.108 51.4863C486.023 55.7152 473.163 58.1981 460.324 58.1513C461.471 57.1492 461.527 57.9719 462.034 57.913Z" fill="#634C3D"/>
</g>
<defs>
<clipPath id="clip0_184_387">
<rect width="118.62" height="540.98" fill="white" transform="translate(514.799) rotate(72.056)"/>
</clipPath>
</defs>
</svg>
