<svg width="74" height="227" viewBox="0 0 74 227" fill="none" xmlns="http://www.w3.org/2000/svg">
<path d="M0.400451 225.697C10.4103 222.733 20.7445 223.344 30.9239 224.359C40.1745 225.275 49.3662 226.272 58.6537 225.661C63.3491 225.347 68.0665 224.754 72.6587 223.506C72.7029 223.497 72.7398 223.434 72.7398 223.38V154.266C72.7398 151.482 72.5997 148.653 72.9093 145.886C73.0567 144.557 73.558 142.536 73.0273 141.261C72.4302 139.815 70.6022 139.617 69.784 140.848C69.1132 141.853 69.5702 143.928 70.8675 143.578C71.9216 143.291 71.87 141.629 70.9634 141.171C69.5702 140.461 68.1845 141.952 67.7717 143.479C67.4842 144.539 67.4842 145.68 67.4842 146.784C67.4842 148.563 67.4916 150.341 67.499 152.12C67.5211 158.658 67.5358 165.188 67.5506 171.726C67.5874 186.438 67.6243 201.141 67.6685 215.853C67.6685 216.024 67.8823 216.024 67.8823 215.853C67.8307 198.474 67.7938 181.085 67.7422 163.706C67.7275 159.404 67.7201 155.101 67.7054 150.799C67.7054 148.769 67.5432 146.632 67.7864 144.611C67.9191 143.488 68.2582 142.374 69.0764 141.746C69.4228 141.476 69.843 141.288 70.2631 141.297C70.4916 141.297 70.9265 141.368 71.0739 141.566L71.3319 142.85L70.1894 143.201L69.9093 142.635C69.5629 142.24 69.526 141.782 69.8061 141.279C69.9462 140.964 70.1525 140.803 70.3958 140.623C70.8381 140.3 71.3098 140.237 71.8037 140.425C72.6366 140.74 72.9609 141.512 72.9757 142.473C72.9904 143.794 72.7693 145.114 72.6292 146.416C72.4523 148.132 72.5113 149.865 72.5113 151.599V158.101C72.5113 175.436 72.5113 192.771 72.5113 210.114V221.198C72.5113 221.692 72.6513 222.778 72.4155 223.165C72.1132 223.659 71.0444 223.685 70.5358 223.802C69.8209 223.964 69.1059 224.117 68.3909 224.251C66.8577 224.539 65.3098 224.772 63.7619 224.961C57.9314 225.67 52.0419 225.841 46.1819 225.527C32.6045 224.79 18.9607 221.736 5.39064 224.26C3.68793 224.575 1.99997 224.988 0.326741 225.482C0.194063 225.518 0.253031 225.769 0.385709 225.733H0.400451V225.697Z" fill="#634C3D" stroke="#634C3D" stroke-width="0.5" stroke-miterlimit="10"/>
<path d="M67.7287 215.719C64.7655 217.991 61.2274 218.916 57.7852 219.32C53.9744 219.769 50.1119 219.581 46.3085 219.069C42.5935 218.566 38.9006 217.748 35.274 216.626C34.5812 216.41 33.6893 216.284 33.0554 215.889C32.731 215.683 32.8121 215.934 32.6352 215.395C32.532 215.09 32.6352 214.407 32.6352 214.075L32.6352 163.023C32.6352 159.826 32.6352 156.628 32.6352 153.44C32.6426 150.826 32.79 148.087 32.473 145.5C32.3551 144.494 31.9128 141.359 30.645 141.566C30.2323 141.629 29.9079 142.06 29.9374 142.572C29.9816 143.281 30.6377 143.694 31.1168 143.865C32.1266 144.233 33.2839 144.171 34.3305 144.251C35.591 144.341 36.8441 144.413 38.1045 144.467C40.8023 144.566 43.5075 144.575 46.2127 144.503C51.0997 144.359 55.9866 143.973 60.822 143.156C60.94 143.138 60.9105 142.886 60.7926 142.895C55.3527 143.308 49.8908 143.452 44.451 143.03C43.2642 142.94 42.0775 142.814 40.8981 142.671C39.6229 142.509 38.2372 142.464 37.0136 142.006C35.3256 141.368 34.7876 139.509 34.7212 137.569L34.5517 132.916C34.5001 131.524 34.22 129.836 35.1487 128.767C36.0775 127.698 37.7949 128.057 38.9522 128.057C48.0775 128.057 57.2029 128.057 66.3282 128.057C66.6009 128.057 66.8884 128.075 67.1611 128.039C68.5395 127.833 69.483 126.117 69.0776 124.483C68.8565 123.594 68.0751 122.641 67.9498 121.896C67.8909 121.564 67.9498 121.133 67.9498 120.791V106.223C67.9498 96.0647 68.1194 85.8795 67.9498 75.7212C67.9203 73.9877 67.3675 72.3531 66.3061 71.1765C65.2447 69.9999 64.08 69.6945 62.7311 69.5598C61.5444 69.434 60.3577 69.2544 59.1709 69.1107C58.1537 68.9849 57.0702 68.7065 56.0677 69.0748C54.1365 69.7843 53.3183 71.913 53.3183 74.1943V122.058C53.3183 122.507 53.2667 123.001 53.3183 123.45C53.3183 123.495 53.3331 123.62 53.3183 123.665C53.4068 123.423 53.3626 123.585 53.0972 123.54C52.3306 123.414 51.4829 123.54 50.709 123.54H39.2397C38.8269 123.54 38.0382 123.728 37.6401 123.54C37.7139 123.576 37.7507 123.755 37.736 123.54C37.7286 123.387 37.736 123.225 37.736 123.073L37.736 100.924C37.736 91.0529 37.7065 81.1731 37.736 71.3022C37.736 69.6765 37.7728 67.6826 38.7605 66.4252C39.7483 65.1677 41.2519 65.2486 42.5271 65.2306C43.8023 65.2126 44.9522 65.1857 46.1611 65.1677C51.3355 65.0779 56.51 64.9881 61.6771 64.8983C62.8122 64.8803 63.9474 64.8624 65.0825 64.8354C65.2225 64.8354 65.2225 64.575 65.0825 64.575C59.9523 64.6648 54.8294 64.7546 49.6992 64.8444C47.4141 64.8803 45.1291 64.9252 42.8441 64.9612C41.8785 64.9791 40.8687 64.9432 39.9325 65.2935C38.451 65.8414 37.8097 67.4221 37.6107 69.1915C37.4264 70.8172 37.5148 72.5597 37.5148 74.2033L37.5148 121.51C37.5148 122.121 37.4338 122.83 37.5148 123.432C37.5222 123.513 37.5148 123.594 37.5148 123.674C37.5148 123.746 37.5664 123.809 37.6254 123.809H53.4142C53.4731 123.809 53.5247 123.746 53.5247 123.674V76.2601C53.5247 74.0506 53.2888 71.6795 54.9031 70.1077C56.3183 68.7335 58.0432 69.2275 59.6869 69.434C61.1169 69.6137 62.7238 69.6047 64.1169 70.0268C66.284 70.6915 67.6918 73.1075 67.7287 75.7661C67.7361 76.305 67.7287 76.8529 67.7287 77.3918V119.444C67.7287 120.172 67.6845 120.917 67.7287 121.636C67.7729 122.408 68.2373 123.037 68.5395 123.719C69.4093 125.704 68.5543 127.734 66.6746 127.797C66.0186 127.815 65.3626 127.797 64.7066 127.797C58.4412 127.797 52.1758 127.797 45.9104 127.797H38.1782C37.6696 127.797 37.161 127.77 36.6524 127.797C35.2298 127.869 34.2495 129.153 34.2568 130.878C34.2642 132.602 34.3748 134.183 34.4411 135.827C34.4927 137.291 34.3674 139.033 34.9866 140.344C36.188 142.895 39.1217 142.724 41.2151 142.976C44.4141 143.371 47.6279 143.542 50.8417 143.551C54.0554 143.56 57.4756 143.416 60.7852 143.165L60.7557 142.904C55.397 143.811 49.9793 144.197 44.5763 144.278C41.7827 144.323 38.989 144.278 36.1954 144.117C34.8613 144.045 33.5197 143.964 32.1929 143.811C31.8465 143.775 31.5001 143.739 31.1684 143.623C30.6524 143.443 30.6377 143.506 31.0504 142.904C31.6033 142.096 31.2568 142.365 31.5296 142.698C31.9276 143.174 32.0824 144.377 32.1856 145.033C32.4362 146.614 32.4067 148.23 32.3993 149.829C32.3993 151.634 32.3993 153.431 32.3993 155.236C32.3993 159.098 32.3993 162.96 32.3993 166.822L32.3993 215.853C32.3993 215.916 32.4362 215.961 32.4804 215.979C36.9767 217.623 41.6205 218.727 46.279 219.356C51.2102 220.021 56.311 220.2 61.1906 218.997C63.5125 218.431 65.7901 217.506 67.8098 215.97C67.9277 215.88 67.8172 215.656 67.6992 215.745L67.7287 215.719Z" fill="#634C3D" stroke="#634C3D" stroke-width="0.5" stroke-miterlimit="10"/>
<path d="M65.1122 64.7906C65.9746 64.8804 66.8223 65.2217 67.4341 65.9941C67.8911 66.5599 68.3628 67.6108 67.9353 68.3832C67.5594 69.0569 66.638 69.2006 66.0483 68.9491C65.4586 68.6976 65.009 68.006 64.7142 67.3324C64.0287 65.7875 63.8739 64.0271 63.8518 62.3026C63.8075 58.7639 63.6675 55.2341 63.5716 51.6953C63.4316 46.2883 63.2916 40.8813 63.1441 35.4744C63.0704 32.5284 62.9083 29.5734 62.9156 26.6274C62.9156 24.6245 62.9525 22.6755 62.7313 20.6726C62.466 18.2924 61.9574 15.9482 61.235 13.7118C59.7166 8.96947 57.2989 4.76604 54.4979 1.02069C54.4095 0.903924 54.2841 1.05661 54.3284 1.18236C55.434 4.1014 55.8984 7.35276 55.176 10.4874C54.6011 12.9933 53.3333 15.2027 51.7043 16.8644C50.0753 18.526 48.262 19.5768 46.2645 20.0079C45.2767 20.2235 44.2522 20.2594 43.2571 20.0439C42.461 19.8732 41.7534 19.3523 40.9868 19.2176C40.9205 19.2086 40.8541 19.2535 40.8541 19.3433C40.8025 23.5198 40.7509 27.6963 40.7067 31.8727C40.6551 36.4713 40.633 41.0789 40.6109 45.6776C40.5961 48.5786 40.3824 51.6324 40.6109 54.5335C40.8394 57.4346 41.3332 60.0572 41.3111 62.8326C41.3111 63.084 41.3406 64.5211 40.7067 63.9912C40.4708 63.7936 40.5151 62.8685 40.5224 62.5631C40.5224 61.9523 40.6256 61.3506 40.7436 60.7578C41.0089 59.3836 41.348 58.0274 41.5396 56.6352C41.9745 53.5096 41.7829 50.2941 41.8861 47.1326C42.0187 43.2256 42.0851 39.3185 42.1662 35.4115C42.262 31.0374 42.3504 26.6723 42.4463 22.2983C42.5126 19.1816 42.5716 16.2177 43.5298 13.2896C44.488 10.3616 46.1318 7.83777 48.0998 5.78995C49.3603 4.47863 50.7461 3.34694 52.1908 2.34997C52.7289 1.98172 53.0237 1.69431 53.3628 2.34997C53.5692 2.74517 53.6871 3.2212 53.7977 3.6613C54.4095 6.23006 54.4389 9.30179 53.5913 11.7897C52.4782 15.077 49.3087 17.3045 46.6109 18.1936C45.0998 18.6876 43.5151 18.8313 41.9598 18.6068C40.2866 18.3643 38.8271 17.3224 37.1981 16.8464C34.6919 16.1189 32.09 16.1548 29.6133 17.017C27.6157 17.7086 25.773 18.8942 23.9892 20.1606C22.6108 21.1396 21.0039 22.6306 19.316 22.451C19.058 22.424 18.5862 22.2983 18.3946 22.0378C17.8933 21.3732 18.2177 20.6726 18.5862 20.2415C18.9106 19.8642 19.3381 19.6487 19.773 19.5139C20.569 19.2714 21.4314 19.3523 22.2054 19.6756C23.6649 20.2774 24.9253 21.7145 25.2791 23.5737C25.7214 25.8999 24.999 28.307 24.2103 30.4087C23.5469 32.1781 22.7214 33.8487 21.7558 35.3846C20.7902 36.9204 19.6698 38.3216 18.4535 39.57C18.3504 39.6778 18.4978 39.8664 18.6083 39.7586C21.7189 36.5791 24.402 32.1332 25.3897 27.2741C25.8172 25.1724 25.7288 22.909 24.5125 21.2205C23.5469 19.8732 22.058 19.0559 20.5838 19.1188C19.5739 19.1637 17.4806 20.0169 17.9965 21.7414C18.3798 23.0258 19.9425 22.8102 20.7902 22.4869C23.0457 21.6246 24.999 19.6127 27.144 18.4182C30.66 16.4692 34.6403 15.9572 38.3406 17.511C39.3504 17.9332 40.2939 18.5349 41.3554 18.7595C42.3136 18.9661 43.3087 19.011 44.2743 18.9301C46.1318 18.7775 47.9451 18.1038 49.5667 16.9901C51.0188 15.9931 52.5667 14.601 53.4217 12.8136C54.1294 11.3316 54.3947 9.58022 54.4316 7.88268C54.4684 6.32885 54.3284 4.70317 53.9156 3.2212C53.7755 2.71822 53.5102 1.62246 52.9647 1.57755C52.7141 1.55959 52.434 1.86496 52.235 2.00867C51.7559 2.33201 51.2915 2.67331 50.8271 3.03258C49.9795 3.68824 49.1613 4.39779 48.3799 5.16124C47.0016 6.52645 45.7632 8.08926 44.7681 9.8856C42.9696 13.1459 42.3578 16.7296 42.2767 20.5917C42.1514 26.4837 42.0261 32.3757 41.9008 38.2677C41.805 42.8573 41.606 47.4559 41.5912 52.0456C41.5912 54.5694 41.3406 56.9496 40.8173 59.3836C40.5372 60.7039 39.9917 62.5272 40.4561 63.8834C40.9205 65.2396 41.5249 63.8385 41.5396 63.0391C41.5765 60.9913 41.3038 58.9255 41.0826 56.9136C40.6551 52.9617 40.8246 48.9828 40.8394 44.995C40.8615 39.597 40.8983 34.208 40.9647 28.81C41.0015 25.7382 40.9426 22.6396 41.0753 19.5768C41.0753 19.5409 41.0605 19.3613 41.0753 19.3343C40.9352 19.5409 41.3185 19.5499 41.488 19.6217C42.0114 19.8553 42.4979 20.1067 43.0507 20.2415C44.1858 20.5199 45.3726 20.466 46.5077 20.1966C51.7485 18.9481 56.09 13.128 55.7362 6.46358C55.633 4.55946 55.176 2.74517 54.5274 1.02069L54.3579 1.18236C57.262 5.06244 59.7535 9.45448 61.2424 14.4124C61.9132 16.6578 62.3775 18.993 62.5987 21.3732C62.7682 23.1425 62.7092 24.867 62.7092 26.6364C62.7092 30.1393 62.8935 33.6601 62.982 37.1629L63.439 54.5604C63.5201 57.5693 63.439 60.659 63.6748 63.6589C63.837 65.7516 64.6331 69.7215 66.9771 69.2544C67.9869 69.0569 68.5618 68.1138 68.2007 66.8923C67.7437 65.3564 66.3653 64.6289 65.1269 64.5031C64.9869 64.4852 64.9869 64.7546 65.1269 64.7636L65.1122 64.7906Z" fill="#634C3D" stroke="#634C3D" stroke-width="0.5" stroke-miterlimit="10"/>
</svg>
