<svg width="417" height="247" viewBox="0 0 417 247" fill="none" xmlns="http://www.w3.org/2000/svg">
<g clip-path="url(#clip0_184_294)">
<path d="M167.217 45.0515C156.964 55.9112 146.71 66.6892 136.28 77.4673C125.938 88.2453 115.419 98.9417 104.9 109.556C94.4693 120.171 83.8621 130.704 73.2548 141.156C62.5591 151.689 51.8635 162.14 41.0794 172.592C35.6874 177.736 30.3838 182.88 24.9917 188.024C22.2515 190.637 19.5113 193.249 16.7711 195.862C15.9756 196.597 15.18 197.659 13.8541 197.577C12.7934 197.495 11.9095 196.924 11.2907 196.189C10.5835 195.291 10.4068 194.229 10.5835 193.249C10.7603 192.351 8.19692 192.678 8.02013 193.576C7.66655 195.699 8.72728 197.74 10.8487 198.639C13.147 199.537 15.7988 198.965 17.6551 197.414C20.5721 194.883 23.3123 192.025 26.1409 189.33C28.9695 186.636 31.7097 184.023 34.5383 181.328C45.7643 170.55 56.9019 159.772 68.0396 148.913C79.0888 138.053 90.138 127.112 101.099 116.089C112.06 105.066 122.932 94.0426 133.716 82.8563C144.5 71.7517 155.108 60.5654 165.715 49.3791C167.041 47.991 168.367 46.6029 169.693 45.2148C170.134 44.8066 169.339 44.48 168.985 44.48C168.278 44.3167 167.659 44.6433 167.217 45.0515Z" fill="#222221"/>
<path d="M198.423 179.939L195.152 182.715V186.063H194.445V170.468H195.152V181.899L203.196 175.122H204.169L199.042 179.531L204.699 186.063H203.727L198.423 179.939Z" fill="black"/>
<path d="M224.677 178.96V185.982H223.881V183.777C223.174 185.165 221.671 186.064 219.462 186.064C216.81 186.064 215.219 184.839 215.219 182.961C215.219 181.328 216.279 179.94 219.55 179.94H223.881V178.878C223.881 176.674 222.644 175.612 220.257 175.612C218.578 175.612 217.075 176.184 216.014 177.082L215.572 176.592C216.721 175.612 218.401 174.959 220.257 174.959C223.086 175.041 224.677 176.429 224.677 178.96ZM223.881 182.879V180.593H219.55C216.987 180.593 216.014 181.573 216.014 182.961C216.014 184.512 217.34 185.492 219.55 185.492C221.76 185.492 223.174 184.594 223.881 182.879Z" fill="black"/>
<path d="M245.978 183.205C245.978 184.919 244.475 186.063 241.47 186.063C239.525 186.063 237.757 185.491 236.785 184.593L237.139 184.021C238.023 184.756 239.614 185.409 241.47 185.409C244.122 185.409 245.183 184.511 245.183 183.123C245.183 179.694 237.227 182.143 237.227 177.816C237.227 176.264 238.553 174.876 241.558 174.876C242.973 174.876 244.564 175.285 245.536 176.019L245.183 176.591C244.21 175.938 242.884 175.53 241.558 175.53C239.083 175.53 238.023 176.509 238.023 177.816C238.023 181.49 245.978 179.122 245.978 183.205ZM241.028 173.325L238.199 170.957H239.083L241.558 172.835L244.033 170.957H244.917L242.089 173.325H241.028Z" fill="black"/>
<path d="M268.167 180.674H257.825C257.914 183.531 260.035 185.491 263.041 185.491C264.632 185.491 266.046 185.001 266.93 183.858L267.372 184.348C266.311 185.491 264.72 186.144 262.952 186.144C259.505 186.144 256.941 183.858 256.941 180.592C256.941 177.326 259.328 175.04 262.51 175.04C265.692 175.04 268.079 177.326 268.079 180.51V180.674H268.167ZM257.825 180.102H267.46C267.283 177.571 265.339 175.693 262.599 175.693C259.947 175.693 258.002 177.571 257.825 180.102Z" fill="black"/>
<path d="M229.277 144.503C254.381 143.686 279.573 142.87 304.677 142.135C329.692 141.319 354.708 140.584 379.635 139.767C393.778 139.359 407.833 138.869 421.976 138.461C422.418 138.461 423.478 138.297 423.655 137.889C423.92 137.481 423.39 137.481 423.036 137.481C397.932 138.297 372.74 139.114 347.636 139.849C322.621 140.665 297.605 141.4 272.678 142.217C258.535 142.625 244.481 143.115 230.338 143.523C229.896 143.523 228.835 143.686 228.658 144.095C228.393 144.503 228.835 144.503 229.277 144.503Z" fill="url(#paint0_linear_184_294)"/>
<path d="M136.547 136.256C133.012 135.276 129.211 135.684 125.852 136.991C124.172 137.644 122.67 138.542 121.344 139.685C120.283 140.583 118.957 141.89 118.869 143.278C118.604 148.422 128.15 144.502 130.36 143.523C133.189 142.298 135.929 140.828 138.492 139.113C137.697 139.195 136.989 139.277 136.194 139.358C137.078 141.808 139.641 142.951 142.293 143.359C145.387 143.931 148.392 143.523 151.221 142.298C155.464 140.42 159.707 138.297 163.95 136.337C163.331 136.419 162.624 136.501 162.005 136.582C162.8 137.562 163.242 138.705 163.419 139.93C163.508 140.42 165.187 139.848 165.452 139.767C167.751 138.787 170.049 137.725 172.435 136.746C171.728 136.827 171.109 136.827 170.402 136.909C171.64 139.44 174.734 140.175 177.474 140.338C181.363 140.583 185.429 140.012 189.319 139.767C198.512 139.195 207.705 138.542 216.898 137.97C217.163 137.97 219.461 137.235 218.489 136.991C214.953 136.011 211.152 136.419 207.793 137.725C206.113 138.379 204.611 139.277 203.285 140.42C202.224 141.318 200.898 142.625 200.81 144.013C200.545 149.157 210.091 145.237 212.301 144.258C215.13 143.033 217.87 141.563 220.433 139.848C219.638 139.93 218.931 140.012 218.135 140.093C219.638 144.339 225.648 144.503 229.626 144.421C230.068 144.421 231.129 144.258 231.306 143.849C231.571 143.441 231.041 143.441 230.687 143.441C227.063 143.523 222.024 143.196 220.698 139.44C220.522 138.869 218.754 139.522 218.4 139.685C215.041 141.971 211.063 144.176 206.997 145.237C205.848 145.564 204.08 145.891 203.462 144.584C202.401 142.461 205.229 140.257 206.909 139.195C209.738 137.399 213.097 136.991 216.367 137.889C216.898 137.562 217.428 137.235 217.958 136.909C209.296 137.48 200.721 138.052 192.059 138.624C188.169 138.869 184.192 139.358 180.214 139.358C177.385 139.358 174.115 138.869 172.877 136.256C172.612 135.766 171.198 136.256 170.844 136.419C168.546 137.399 166.248 138.46 163.861 139.44C164.568 139.358 165.187 139.358 165.894 139.277C165.717 137.97 165.275 136.827 164.392 135.766C164.126 135.357 162.712 135.847 162.447 136.011C158.469 137.807 154.58 139.767 150.602 141.563C150.16 141.808 149.63 142.053 149.099 142.216C147.597 142.788 146.094 142.706 144.503 142.461C142.028 142.053 139.641 141.073 138.757 138.705C138.581 138.134 136.813 138.787 136.459 138.95C133.1 141.236 129.122 143.441 125.056 144.502C123.907 144.829 122.139 145.156 121.521 143.849C120.46 141.726 123.288 139.522 124.968 138.46C127.796 136.664 131.155 136.256 134.426 137.154C134.956 137.317 135.752 137.072 136.194 136.827C136.547 136.746 137.078 136.419 136.547 136.256Z" fill="#222221"/>
</g>
<defs>
<linearGradient id="paint0_linear_184_294" x1="229.778" y1="140.913" x2="422.542" y2="140.913" gradientUnits="userSpaceOnUse">
<stop/>
<stop offset="1" stop-color="white"/>
</linearGradient>
<clipPath id="clip0_184_294">
<rect width="416" height="247" fill="white" transform="translate(0.132812)"/>
</clipPath>
</defs>
</svg>
