<svg width="283" height="247" viewBox="0 0 283 247" fill="none" xmlns="http://www.w3.org/2000/svg">
<g clip-path="url(#clip0_188_492)">
<ellipse cx="180.091" cy="79.4343" rx="83.0289" ry="79.4343" fill="#F4F0EC"/>
<ellipse cx="114.019" cy="183.801" rx="99.9855" ry="63.1995" fill="#F4F0EC"/>
<path d="M199.052 129.24C199.27 129.24 199.27 128.91 199.052 128.91C198.834 128.91 198.834 129.24 199.052 129.24Z" fill="#1D1D1B" stroke="#1D1D1B" stroke-width="0.5" stroke-miterlimit="10"/>
<path d="M18.0375 192.92C19.5609 201.505 22.5046 210.398 28.6326 216.839C35.7915 224.364 44.6228 230.201 53.9923 234.625C73.6364 243.905 95.5598 247.177 117.174 246.653C135.776 246.208 154.835 242.719 171.387 233.929C183.746 227.351 194.834 217.443 200.183 204.298C202.588 198.404 203.722 192.02 203.482 185.658C203.161 177.233 200.148 167.667 193.86 161.75C192.394 160.371 190.733 159.253 188.877 158.467C188.74 158.41 188.545 158.535 188.648 158.695C189.53 159.96 191.982 160.279 193.322 160.496C196.861 161.055 200.355 160.952 203.86 160.325C212.198 158.82 220.342 156.335 228.601 154.454C232.713 153.519 236.859 152.629 241.063 152.208C244.602 151.854 247.97 152.208 251.441 152.96C253.903 153.496 256.984 154.237 258.725 156.164C259.882 157.441 260.65 159.299 260.146 161.009C259.642 162.719 258.095 163.928 256.354 164.008C253.021 164.156 251.131 160.336 252.219 157.498C253.411 154.374 257.145 153.279 260.18 153.314C263.937 153.359 267.591 154.476 271.371 154.488C274.372 154.499 277.384 154.1 280.294 153.325C286.273 151.74 291.748 148.571 296.066 144.159C296.215 144.01 295.986 143.771 295.826 143.919C291.233 148.616 285.311 151.877 278.896 153.314C275.85 153.998 272.7 154.271 269.584 154.089C265.965 153.872 262.334 152.664 258.68 153.028C254.442 153.462 249.883 157.064 252.139 161.682C254.201 165.889 260.822 164.543 260.638 159.709C260.432 154.271 253.548 152.892 249.31 152.208C245.92 151.66 242.758 151.615 239.333 152.059C229.93 153.291 220.766 156.038 211.568 158.273C207.651 159.219 203.573 160.371 199.518 160.519C196.792 160.621 193.86 160.462 191.237 159.675C190.538 159.47 189.347 159.105 188.923 158.501L188.694 158.729C197.079 162.263 201.156 172.285 202.6 180.619C203.757 187.311 203.138 194.3 201.088 200.764C196.907 213.955 186.804 224.33 175.121 231.387C159.784 240.656 141.686 244.817 123.943 245.991C102.902 247.382 81.2992 245.125 61.5636 237.486C51.816 233.712 42.4808 228.628 34.4858 221.878C30.6371 218.629 26.9832 215.072 24.4518 210.694C22.1037 206.635 20.5116 202.155 19.3776 197.617C18.9767 196.033 18.6331 194.425 18.3467 192.806C18.3124 192.601 17.9916 192.681 18.026 192.897L18.0375 192.92Z" fill="#634C3D" stroke="#634C3D" stroke-width="0.5" stroke-miterlimit="10"/>
<path d="M210.676 106.273C210.035 111.734 207.836 116.933 204.354 121.197C202.773 123.135 200.402 125.963 197.893 126.647C195.396 127.319 193.93 124.766 195.648 122.953C196.782 121.756 198.741 121.676 200.15 122.428C203.231 124.093 202.074 127.764 199.978 129.668C197.825 131.606 194.858 132.347 192.075 132.872C185.958 134.012 179.612 133.704 173.542 132.438C158.308 129.28 144.895 120.467 135.983 107.744C131.298 101.052 128.057 93.3904 126.705 85.33C125.079 75.6506 126.19 65.5495 129.317 56.2691C131.951 48.4595 136.739 41.6076 143.154 36.4088C150.312 30.6058 159.407 26.4103 168.445 24.6545C183.301 21.7815 198.604 24.7001 210.928 33.5586C222.291 41.733 230.412 53.989 234.513 67.2596C238.613 80.5302 238.842 93.9833 233.906 106.399C227.984 121.323 214.754 132.37 200.219 138.583C193.919 141.274 187.275 143.178 180.517 144.295C175.959 145.048 171.205 145.572 166.577 145.173C164.504 144.991 161.263 144.444 160.289 142.448C159.957 141.776 160.175 140.579 160.908 140.18C161.022 140.111 160.793 140.202 161.102 140.18C161.446 140.157 161.847 140.259 162.191 140.294C165.581 140.67 168.96 141.137 172.316 141.73C176.394 142.46 180.769 143.235 184.48 145.173C186.233 146.085 189.337 148.183 188.81 150.623C188.787 150.737 188.856 150.828 188.971 150.828C203.529 151.831 218.5 149.38 230.962 141.491C243.687 133.419 252.564 120.513 256.299 106.045C260.17 91.0418 259.139 74.636 253.664 60.1568C248.67 46.966 240.629 34.1286 229.851 24.8825C224.364 20.1854 218.145 16.4003 211.547 13.4703C209.817 12.695 208.111 12.0109 206.186 11.9425C204.136 11.8741 202.326 12.4784 200.494 13.322C199.623 13.7211 198.821 14.2227 197.985 14.6673C197.08 15.1576 196.118 14.6559 195.144 14.3937C193.678 14.0061 192.201 13.6641 190.723 13.2764C190.116 13.1168 188.558 12.9914 188.226 12.4784C188.157 12.3758 188.215 11.9197 188.192 11.7829C188.123 11.2585 187.963 10.7454 187.814 10.2324C187.333 8.62488 186.771 7.18837 185.397 6.13949C184.183 5.21602 182.82 4.988 181.342 4.85119C179.395 4.68018 177.436 4.60037 175.489 4.63458C167.815 4.73719 160.186 6.36751 153.05 9.14932C139.145 14.5761 126.648 24.4265 118.745 37.1043C109.753 51.515 106.007 69.802 109.226 86.4929C112.284 102.294 120.062 117.173 131.86 128.22C143.05 138.697 159.602 142.095 168.662 155.012C173.301 161.625 176.44 169.81 175.855 177.974C175.225 186.821 169.67 193.513 162.305 198.039C154.94 202.565 146.555 205.586 138.251 207.753C129.615 210.01 120.715 211.207 111.78 211.344C94.2554 211.606 76.3868 207.821 60.7861 199.761C53.8449 196.169 46.9036 191.278 43.2726 184.187C39.3438 176.526 40.7756 167.758 45.3458 160.713C50.3971 152.926 58.4724 148.103 67.0516 144.968C71.702 143.258 76.5013 142.004 81.3121 140.818C83.4999 140.282 85.6647 139.655 87.8525 139.085C89.2499 138.72 92.228 137.329 93.3734 138.743C94.2325 139.803 92.1707 139.689 91.4949 139.678C90.2006 139.667 88.8948 139.53 87.612 139.37C86.0542 139.176 84.4506 138.709 82.8814 138.732C77.7842 138.8 72.6527 139.484 67.6587 140.533C59.7209 142.198 51.4509 144.888 44.8876 149.779C39.1032 154.089 34.3955 160.257 32.7232 167.348C31.0509 174.439 33.0898 182.089 37.2706 188.177C41.5888 194.459 47.6825 198.883 54.303 202.497C66.9829 209.406 81.0487 213.567 95.3436 215.471C109.134 217.307 123.212 217.113 136.957 214.992C148.434 213.225 159.957 210.17 170.334 204.88C177.012 201.471 184.606 196.625 187.527 189.374C189.887 183.537 189.051 176.434 186.634 170.768C183.793 164.099 178.765 158.022 172.889 153.769C159.716 144.227 143.096 140.852 129.798 131.526C123.177 126.886 117.553 120.844 113.682 113.741C110.051 107.094 107.29 99.8775 105.377 92.5581C102.044 79.8006 101.598 66.2677 104.816 53.4417C107.749 41.7786 113.693 30.9364 122.078 22.2717C130.462 13.6071 141.458 7.11997 153.233 3.69971C166.417 -0.130989 180.46 -0.233597 193.873 2.51401C206.874 5.18182 219.519 10.1868 230.217 18.0762C239.255 24.7343 246.849 33.2736 252.507 42.9415C257.971 52.2674 261.648 62.6308 263.171 73.3249C264.695 84.0189 264.042 94.8497 260.949 105.122C257.856 115.394 252.083 125.244 244.352 133.043C235.04 142.437 222.692 149.665 209.829 152.949C200.494 155.331 190.631 155.502 181.205 153.496C171.812 151.501 162.798 147.602 153.875 144.159C144.952 140.715 135.411 137.261 125.755 135.118C116.477 133.054 106.981 131.982 97.4741 131.971C88.0014 131.96 78.5402 132.986 69.2508 134.855C60.7518 136.566 52.0809 138.686 44.166 142.277C37.1789 145.447 30.5469 149.665 24.9573 154.944C19.6883 159.915 15.0608 166.162 13.9268 173.447C12.6898 181.325 16.0573 188.713 21.0857 194.653C23.2506 197.218 25.7247 199.487 28.3133 201.63C29.413 202.542 30.5355 203.42 31.6465 204.321C32.1162 204.697 32.5858 205.085 33.0554 205.472C33.2387 205.621 33.6625 205.849 33.7427 206.065C33.9145 206.487 33.4678 207.308 33.3418 207.718C32.9867 208.836 32.666 209.976 32.9752 211.139C33.3418 212.518 34.3154 213.738 35.3233 214.719C38.1869 217.5 41.9897 219.564 45.4603 221.491C53.0774 225.743 61.2901 228.867 69.8006 230.828C69.9152 230.851 70.0526 230.748 70.0068 230.623C69.6861 229.768 69.7204 228.662 69.6059 227.773C69.4455 226.53 69.205 225.242 69.1935 223.987C69.1935 223.794 69.1935 223.634 69.2164 223.44C69.2852 222.984 69.4684 222.528 69.8693 222.255L70.2244 221.901L70.4306 223.987C70.1786 224.193 68.3803 223.474 68.0138 223.349C67.3609 223.132 66.6965 222.916 66.0436 222.699C63.5924 221.867 61.1641 220.955 58.7587 219.986C49.0112 216.052 39.6301 211.025 31.0509 204.948C26.1141 201.448 21.7844 197.332 18.2909 192.384C18.1649 192.213 17.8785 192.384 18.0045 192.555C23.5369 200.399 31.2227 205.883 39.4011 210.751C47.7856 215.745 56.697 219.872 65.952 223.018C67.464 223.531 69.9953 224.922 71.5875 224.067C72.5382 223.554 72.7673 222.357 71.828 221.707C71.0262 221.149 70.0412 221.422 69.4455 222.141C68.7583 222.973 68.8385 223.885 68.9415 224.877C69.0675 226.211 69.2394 227.545 69.4226 228.878C69.4799 229.312 69.5715 229.768 69.6059 230.201C69.6632 231.022 69.5486 230.429 68.6666 230.224C63.833 229.049 59.1023 227.488 54.5207 225.549C49.4693 223.406 44.6013 220.807 40.0081 217.797C37.786 216.337 35.3119 214.81 33.9374 212.45C32.6774 210.284 33.4678 208.368 34.2237 206.156C34.2466 206.099 34.2237 206.031 34.1779 205.997C30.272 202.577 26.0454 199.601 22.5175 195.759C17.6265 190.435 13.7436 183.606 14.007 176.195C14.5224 162.126 27.6834 151.501 39.046 145.23C45.2427 141.81 51.7945 139.553 58.6213 137.706C66.8454 135.482 75.2299 133.841 83.7175 132.986C100.544 131.287 117.542 132.826 133.795 137.478C141.813 139.769 149.579 142.825 157.345 145.823C165.111 148.821 172.98 152.071 181.159 153.804C195.614 156.87 210.253 154.579 223.471 148.183C240.904 139.735 254.798 125.233 260.834 106.729C266.447 89.5141 265.038 70.5202 258.28 53.8408C251.27 36.5456 238.533 21.7017 222.211 12.4784C211.948 6.67533 200.276 2.97005 188.615 1.25992C177.562 -0.359007 166.2 -0.00557983 155.364 2.78764C135.617 7.88383 118.653 21.1886 109.638 39.4871C99.7764 59.5184 100.544 82.8674 108.585 103.366C110.876 109.203 113.567 114.984 117.359 120.011C121.322 125.279 126.281 129.736 131.848 133.282C143.692 140.841 157.597 144.501 169.544 151.911C181.113 159.082 190.883 172.41 188.054 186.57C186.76 193.057 181.285 197.822 175.981 201.277C168.147 206.384 159.121 209.657 150.095 211.982C138.984 214.855 127.473 216.258 116.007 216.372C103.545 216.508 91.0253 215.095 78.9755 211.88C72.8016 210.227 66.7652 208.095 60.9579 205.438C54.8986 202.656 48.805 199.43 43.8109 194.984C38.7023 190.423 34.533 184.518 33.0439 177.757C31.5434 170.951 33.3074 164.064 37.1675 158.33C45.2885 146.29 60.5456 141.548 74.325 139.746C77.2573 139.359 80.5218 138.8 83.4999 139.062C85.5387 139.245 87.5547 139.746 89.6164 139.917C90.487 139.986 93.2589 140.499 93.9462 139.598C94.6334 138.697 92.8809 137.956 92.2624 137.888C91.0482 137.763 89.7768 138.184 88.6428 138.538C86.9247 139.074 85.1378 139.507 83.3968 139.974C75.585 142.084 67.7159 143.839 60.4196 147.465C48.931 153.188 38.1182 165.319 41.1192 179.045C44.1202 192.772 57.7164 199.316 69.0675 203.865C96.3057 214.787 128.011 214.297 154.814 202.314C160.953 199.567 167.15 196.135 171.377 190.765C175.283 185.783 176.783 179.524 176.176 173.288C175.535 166.664 172.809 160.279 169.006 154.841C165.409 149.711 160.656 145.971 155.329 142.745C149.717 139.347 143.749 136.52 138.297 132.86C132.387 128.893 127.37 123.591 123.177 117.879C114.77 106.422 109.295 91.9995 108.573 77.794C107.817 62.8361 112.193 47.0572 120.783 34.7329C128.527 23.6056 139.832 14.8954 152.397 9.79918C158.399 7.37079 164.768 5.75186 171.228 5.19322C174.401 4.9196 177.585 4.8968 180.758 5.13622C182.636 5.28443 184.4 5.51244 185.809 6.88055C186.6 7.64441 186.989 8.56788 187.333 9.59396C187.642 10.506 188.134 11.6917 187.917 12.6608C187.894 12.752 187.94 12.8432 188.031 12.866C191.204 13.7781 194.434 14.4963 197.607 15.4084C197.664 15.4198 197.733 15.4084 197.767 15.3628C199.142 13.9833 201.708 12.9572 203.575 12.524C206.209 11.9083 208.615 12.5126 211.043 13.5729C214.273 14.9866 217.411 16.5941 220.412 18.4182C225.991 21.8043 231.088 25.9428 235.509 30.7312C239.93 35.5196 243.71 40.992 246.929 46.7038C250.48 53.0199 253.561 59.6324 255.497 66.6211C259.391 80.6556 259.414 96.0126 254.901 109.91C250.491 123.466 241.248 135.277 228.82 142.437C223.024 145.777 216.667 148.046 210.104 149.335C206.576 150.03 203.002 150.452 199.405 150.623C197.699 150.703 195.981 150.737 194.274 150.714C193.403 150.714 192.533 150.68 191.674 150.646C191.387 150.634 191.09 150.623 190.803 150.6C190.689 150.6 189.108 150.577 189.211 150.691C189.154 150.634 189.234 149.973 189.211 149.859C189.131 149.198 188.856 148.571 188.512 148.012C187.104 145.8 184.435 144.558 182.052 143.714C176.84 141.856 171.182 141.069 165.718 140.351C164.722 140.225 163.737 140.1 162.74 139.986C162.282 139.929 161.515 139.701 161.057 139.803C160.553 139.917 160.197 140.476 160.003 140.966C158.869 143.885 163.909 145.162 166.005 145.413C172.935 146.222 180.357 144.911 187.069 143.281C207.836 138.219 228.304 124.845 235.257 103.811C241.305 85.501 236.735 64.455 226.071 48.7332C220.584 40.6499 213.265 33.7296 204.56 29.1807C195.19 24.2897 184.538 22.4199 174.034 23.4916C161.744 24.7457 149.224 30.0243 140.233 38.5636C131.024 47.3195 126.728 59.6666 125.835 72.1278C124.941 84.5889 128.068 96.2178 134.712 106.353C140.164 114.687 147.758 121.767 156.498 126.601C161.927 129.6 167.941 131.652 174.023 132.849C178.158 133.67 182.396 134.046 186.611 133.829C190.414 133.635 194.743 133.157 198.157 131.367C200.345 130.227 202.716 127.981 202.452 125.301C202.212 122.85 199.818 121.209 197.412 121.676C195.488 122.052 193.426 124.583 195.133 126.35C197.321 128.619 200.631 125.529 202.2 124.047C207.148 119.362 210.275 113 211.066 106.262C211.089 106.045 210.757 106.057 210.734 106.262L210.676 106.273Z" fill="#634C3D" stroke="#634C3D" stroke-width="0.5" stroke-miterlimit="10"/>
</g>
<defs>
<clipPath id="clip0_188_492">
<rect width="283" height="247" fill="white"/>
</clipPath>
</defs>
</svg>
